<svg width="43" height="12" viewBox="0 0 43 12" fill="none" xmlns="http://www.w3.org/2000/svg">
<path d="M0.12 11L3.855 0.349999H5.895L9.63 11H7.65L6.735 8.27H3L2.1 11H0.12ZM3.48 6.695H6.255L5.31 3.845L4.89 2.195H4.86C4.7 2.895 4.56 3.445 4.44 3.845L3.48 6.695ZM10.7759 11V0.349999H12.6809V3.665L12.6359 4.31H12.6659C12.8859 3.97 13.2059 3.695 13.6259 3.485C14.0559 3.275 14.5059 3.17 14.9759 3.17C16.0059 3.17 16.8259 3.54 17.4359 4.28C18.0559 5.02 18.3659 5.985 18.3659 7.175C18.3659 8.375 18.0359 9.345 17.3759 10.085C16.7259 10.815 15.8859 11.18 14.8559 11.18C14.3959 11.18 13.9559 11.075 13.5359 10.865C13.1159 10.655 12.7859 10.365 12.5459 9.995H12.5159C12.5359 10.135 12.5459 10.305 12.5459 10.505V11H10.7759ZM12.6209 7.22C12.6209 7.86 12.7859 8.415 13.1159 8.885C13.4559 9.345 13.9259 9.575 14.5259 9.575C15.0759 9.575 15.5309 9.365 15.8909 8.945C16.2609 8.515 16.4459 7.935 16.4459 7.205C16.4459 6.485 16.2709 5.905 15.9209 5.465C15.5709 5.025 15.1159 4.805 14.5559 4.805C14.0059 4.805 13.5459 5.01 13.1759 5.42C12.8059 5.82 12.6209 6.42 12.6209 7.22ZM20.7397 10.055C19.9297 9.295 19.5247 8.335 19.5247 7.175C19.5247 6.015 19.9297 5.06 20.7397 4.31C21.5497 3.55 22.5397 3.17 23.7097 3.17C24.8897 3.17 25.8847 3.55 26.6947 4.31C27.5147 5.06 27.9247 6.015 27.9247 7.175C27.9247 8.335 27.5197 9.295 26.7097 10.055C25.8997 10.805 24.9047 11.18 23.7247 11.18C22.5447 11.18 21.5497 10.805 20.7397 10.055ZM21.4597 7.175C21.4597 7.875 21.6747 8.45 22.1047 8.9C22.5447 9.34 23.0847 9.56 23.7247 9.56C24.3647 9.56 24.9047 9.34 25.3447 8.9C25.7847 8.45 26.0047 7.875 26.0047 7.175C26.0047 6.485 25.7797 5.915 25.3297 5.465C24.8897 5.015 24.3547 4.79 23.7247 4.79C23.0947 4.79 22.5597 5.015 22.1197 5.465C21.6797 5.915 21.4597 6.485 21.4597 7.175ZM29.4216 8.27V3.35H31.3266V7.88C31.3266 8.39 31.4116 8.78 31.5816 9.05C31.7616 9.31 32.0716 9.44 32.5116 9.44C33.1716 9.44 33.6916 9.19 34.0716 8.69C34.4616 8.19 34.6566 7.58 34.6566 6.86V3.35H36.5466V11H34.7166V10.1L34.7616 9.575H34.7316C34.5316 10.005 34.1916 10.38 33.7116 10.7C33.2316 11.02 32.6866 11.18 32.0766 11.18C30.3066 11.18 29.4216 10.21 29.4216 8.27ZM38.9829 8.195V4.97H37.9929V3.455H39.0279V1.265H40.8879V3.455H42.6279V4.97H40.8879V7.955C40.8879 8.505 41.0429 8.885 41.3529 9.095C41.6729 9.295 42.0229 9.395 42.4029 9.395C42.5329 9.395 42.6479 9.385 42.7479 9.365V11.03C42.4479 11.06 42.2529 11.075 42.1629 11.075C41.9029 11.075 41.6529 11.055 41.4129 11.015C41.1729 10.985 40.8979 10.91 40.5879 10.79C40.2779 10.67 40.0079 10.515 39.7779 10.325C39.5579 10.125 39.3679 9.845 39.2079 9.485C39.0579 9.115 38.9829 8.685 38.9829 8.195Z" fill="#333333"/>
</svg>
