<svg width="66" height="12" viewBox="0 0 66 12" fill="none" xmlns="http://www.w3.org/2000/svg">
<path d="M0.12 11L3.855 0.349999H5.895L9.63 11H7.65L6.735 8.27H3L2.1 11H0.12ZM3.48 6.695H6.255L5.31 3.845L4.89 2.195H4.86C4.7 2.895 4.56 3.445 4.44 3.845L3.48 6.695ZM10.1497 7.175C10.1497 6.055 10.5297 5.11 11.2897 4.34C12.0597 3.56 13.0647 3.17 14.3047 3.17C14.8547 3.17 15.3947 3.265 15.9247 3.455C16.4547 3.645 16.8947 3.93 17.2447 4.31L16.3897 5.615C15.8397 5.065 15.1797 4.79 14.4097 4.79C13.7197 4.79 13.1597 5.02 12.7297 5.48C12.2997 5.93 12.0847 6.49 12.0847 7.16C12.0847 7.83 12.3047 8.4 12.7447 8.87C13.1847 9.33 13.7597 9.56 14.4697 9.56C15.2997 9.56 16.0497 9.235 16.7197 8.585L17.4547 9.935C17.0947 10.315 16.6297 10.62 16.0597 10.85C15.4997 11.07 14.9147 11.18 14.3047 11.18C13.0647 11.18 12.0597 10.8 11.2897 10.04C10.5297 9.27 10.1497 8.315 10.1497 7.175ZM18.2064 7.175C18.2064 6.055 18.5864 5.11 19.3464 4.34C20.1164 3.56 21.1214 3.17 22.3614 3.17C22.9114 3.17 23.4514 3.265 23.9814 3.455C24.5114 3.645 24.9514 3.93 25.3014 4.31L24.4464 5.615C23.8964 5.065 23.2364 4.79 22.4664 4.79C21.7764 4.79 21.2164 5.02 20.7864 5.48C20.3564 5.93 20.1414 6.49 20.1414 7.16C20.1414 7.83 20.3614 8.4 20.8014 8.87C21.2414 9.33 21.8164 9.56 22.5264 9.56C23.3564 9.56 24.1064 9.235 24.7764 8.585L25.5114 9.935C25.1514 10.315 24.6864 10.62 24.1164 10.85C23.5564 11.07 22.9714 11.18 22.3614 11.18C21.1214 11.18 20.1164 10.8 19.3464 10.04C18.5864 9.27 18.2064 8.315 18.2064 7.175ZM27.478 10.055C26.668 9.295 26.263 8.335 26.263 7.175C26.263 6.015 26.668 5.06 27.478 4.31C28.288 3.55 29.278 3.17 30.448 3.17C31.628 3.17 32.623 3.55 33.433 4.31C34.253 5.06 34.663 6.015 34.663 7.175C34.663 8.335 34.258 9.295 33.448 10.055C32.638 10.805 31.643 11.18 30.463 11.18C29.283 11.18 28.288 10.805 27.478 10.055ZM28.198 7.175C28.198 7.875 28.413 8.45 28.843 8.9C29.283 9.34 29.823 9.56 30.463 9.56C31.103 9.56 31.643 9.34 32.083 8.9C32.523 8.45 32.743 7.875 32.743 7.175C32.743 6.485 32.518 5.915 32.068 5.465C31.628 5.015 31.093 4.79 30.463 4.79C29.833 4.79 29.298 5.015 28.858 5.465C28.418 5.915 28.198 6.485 28.198 7.175ZM36.1598 8.27V3.35H38.0648V7.88C38.0648 8.39 38.1498 8.78 38.3198 9.05C38.4998 9.31 38.8098 9.44 39.2498 9.44C39.9098 9.44 40.4298 9.19 40.8098 8.69C41.1998 8.19 41.3948 7.58 41.3948 6.86V3.35H43.2848V11H41.4548V10.1L41.4998 9.575H41.4698C41.2698 10.005 40.9298 10.38 40.4498 10.7C39.9698 11.02 39.4248 11.18 38.8148 11.18C37.0448 11.18 36.1598 10.21 36.1598 8.27ZM45.3462 11V3.35H47.1762V4.25L47.1462 4.79H47.1762C47.3762 4.38 47.7062 4.01 48.1662 3.68C48.6262 3.34 49.2012 3.17 49.8912 3.17C51.6712 3.17 52.5612 4.14 52.5612 6.08V11H50.6562V6.47C50.6562 5.96 50.5662 5.575 50.3862 5.315C50.2162 5.045 49.9062 4.91 49.4562 4.91C48.7962 4.91 48.2612 5.15 47.8512 5.63C47.4512 6.11 47.2512 6.705 47.2512 7.415V11H45.3462ZM54.9057 8.195V4.97H53.9157V3.455H54.9507V1.265H56.8107V3.455H58.5507V4.97H56.8107V7.955C56.8107 8.505 56.9657 8.885 57.2757 9.095C57.5957 9.295 57.9457 9.395 58.3257 9.395C58.4557 9.395 58.5707 9.385 58.6707 9.365V11.03C58.3707 11.06 58.1757 11.075 58.0857 11.075C57.8257 11.075 57.5757 11.055 57.3357 11.015C57.0957 10.985 56.8207 10.91 56.5107 10.79C56.2007 10.67 55.9307 10.515 55.7007 10.325C55.4807 10.125 55.2907 9.845 55.1307 9.485C54.9807 9.115 54.9057 8.685 54.9057 8.195ZM59.5114 10.055L60.3664 8.795C60.9764 9.355 61.7014 9.635 62.5414 9.635C62.8814 9.635 63.1414 9.57 63.3214 9.44C63.5114 9.3 63.6064 9.11 63.6064 8.87C63.6064 8.65 63.4764 8.46 63.2164 8.3C62.9564 8.14 62.6414 7.995 62.2714 7.865C61.9014 7.735 61.5264 7.585 61.1464 7.415C60.7764 7.235 60.4614 6.98 60.2014 6.65C59.9414 6.32 59.8114 5.925 59.8114 5.465C59.8114 4.745 60.0864 4.185 60.6364 3.785C61.1964 3.375 61.8964 3.17 62.7364 3.17C63.7964 3.17 64.6564 3.46 65.3164 4.04L64.6114 5.375C64.3914 5.185 64.0964 5.03 63.7264 4.91C63.3664 4.78 63.0164 4.715 62.6764 4.715C61.9664 4.715 61.6114 4.96 61.6114 5.45C61.6114 5.67 61.7414 5.86 62.0014 6.02C62.2614 6.18 62.5764 6.325 62.9464 6.455C63.3264 6.585 63.7014 6.735 64.0714 6.905C64.4414 7.065 64.7564 7.31 65.0164 7.64C65.2764 7.97 65.4064 8.365 65.4064 8.825C65.4064 9.505 65.1414 10.07 64.6114 10.52C64.0814 10.96 63.3814 11.18 62.5114 11.18C61.2914 11.18 60.2914 10.805 59.5114 10.055Z" fill="#333333"/>
</svg>
