<svg width="448" height="108" viewBox="0 0 448 108" fill="none" xmlns="http://www.w3.org/2000/svg">
<path d="M19.35 1.4L15.102 14H13.698L10.008 3.254L6.3 14H4.914L0.666 1.4H2.034L5.67 12.236L9.432 1.4H10.674L14.382 12.29L18.072 1.4H19.35ZM29.0455 9.662H21.1255C21.1975 10.646 21.5755 11.444 22.2595 12.056C22.9435 12.656 23.8075 12.956 24.8515 12.956C25.4395 12.956 25.9795 12.854 26.4715 12.65C26.9635 12.434 27.3895 12.122 27.7495 11.714L28.4695 12.542C28.0495 13.046 27.5215 13.43 26.8855 13.694C26.2615 13.958 25.5715 14.09 24.8155 14.09C23.8435 14.09 22.9795 13.886 22.2235 13.478C21.4795 13.058 20.8975 12.482 20.4775 11.75C20.0575 11.018 19.8475 10.19 19.8475 9.266C19.8475 8.342 20.0455 7.514 20.4415 6.782C20.8495 6.05 21.4015 5.48 22.0975 5.072C22.8055 4.664 23.5975 4.46 24.4735 4.46C25.3495 4.46 26.1355 4.664 26.8315 5.072C27.5275 5.48 28.0735 6.05 28.4695 6.782C28.8655 7.502 29.0635 8.33 29.0635 9.266L29.0455 9.662ZM24.4735 5.558C23.5615 5.558 22.7935 5.852 22.1695 6.44C21.5575 7.016 21.2095 7.772 21.1255 8.708H27.8395C27.7555 7.772 27.4015 7.016 26.7775 6.44C26.1655 5.852 25.3975 5.558 24.4735 5.558ZM41.2538 4.46C42.1418 4.46 42.9458 4.664 43.6658 5.072C44.3858 5.468 44.9498 6.032 45.3578 6.764C45.7658 7.496 45.9698 8.33 45.9698 9.266C45.9698 10.214 45.7658 11.054 45.3578 11.786C44.9498 12.518 44.3858 13.088 43.6658 13.496C42.9578 13.892 42.1538 14.09 41.2538 14.09C40.4858 14.09 39.7898 13.934 39.1658 13.622C38.5538 13.298 38.0498 12.83 37.6538 12.218V17.492H36.3758V4.532H37.5998V6.404C37.9838 5.78 38.4878 5.3 39.1118 4.964C39.7478 4.628 40.4618 4.46 41.2538 4.46ZM41.1638 12.956C41.8238 12.956 42.4238 12.806 42.9638 12.506C43.5038 12.194 43.9238 11.756 44.2238 11.192C44.5358 10.628 44.6918 9.986 44.6918 9.266C44.6918 8.546 44.5358 7.91 44.2238 7.358C43.9238 6.794 43.5038 6.356 42.9638 6.044C42.4238 5.732 41.8238 5.576 41.1638 5.576C40.4918 5.576 39.8858 5.732 39.3457 6.044C38.8178 6.356 38.3978 6.794 38.0858 7.358C37.7858 7.91 37.6358 8.546 37.6358 9.266C37.6358 9.986 37.7858 10.628 38.0858 11.192C38.3978 11.756 38.8178 12.194 39.3457 12.506C39.8858 12.806 40.4918 12.956 41.1638 12.956ZM49.799 6.386C50.099 5.75 50.543 5.27 51.131 4.946C51.731 4.622 52.469 4.46 53.345 4.46V5.702L53.039 5.684C52.043 5.684 51.263 5.99 50.699 6.602C50.135 7.214 49.853 8.072 49.853 9.176V14H48.575V4.532H49.799V6.386ZM59.4411 14.09C58.5291 14.09 57.7071 13.886 56.9751 13.478C56.2431 13.058 55.6671 12.482 55.2471 11.75C54.8271 11.018 54.6171 10.19 54.6171 9.266C54.6171 8.342 54.8271 7.514 55.2471 6.782C55.6671 6.05 56.2431 5.48 56.9751 5.072C57.7071 4.664 58.5291 4.46 59.4411 4.46C60.3531 4.46 61.1751 4.664 61.9071 5.072C62.6391 5.48 63.2091 6.05 63.6171 6.782C64.0371 7.514 64.2471 8.342 64.2471 9.266C64.2471 10.19 64.0371 11.018 63.6171 11.75C63.2091 12.482 62.6391 13.058 61.9071 13.478C61.1751 13.886 60.3531 14.09 59.4411 14.09ZM59.4411 12.956C60.1131 12.956 60.7131 12.806 61.2411 12.506C61.7811 12.194 62.2011 11.756 62.5011 11.192C62.8011 10.628 62.9511 9.986 62.9511 9.266C62.9511 8.546 62.8011 7.904 62.5011 7.34C62.2011 6.776 61.7811 6.344 61.2411 6.044C60.7131 5.732 60.1131 5.576 59.4411 5.576C58.7691 5.576 58.1631 5.732 57.6231 6.044C57.0951 6.344 56.6751 6.776 56.3631 7.34C56.0631 7.904 55.9131 8.546 55.9131 9.266C55.9131 9.986 56.0631 10.628 56.3631 11.192C56.6751 11.756 57.0951 12.194 57.6231 12.506C58.1631 12.806 58.7691 12.956 59.4411 12.956ZM74.5485 4.532L70.3365 14H69.0225L64.8285 4.532H66.1605L69.7065 12.596L73.2885 4.532H74.5485ZM76.3484 4.532H77.6264V14H76.3484V4.532ZM76.9964 2.462C76.7324 2.462 76.5104 2.372 76.3304 2.192C76.1504 2.012 76.0604 1.796 76.0604 1.544C76.0604 1.304 76.1504 1.094 76.3304 0.913999C76.5104 0.733999 76.7324 0.643999 76.9964 0.643999C77.2604 0.643999 77.4824 0.733999 77.6624 0.913999C77.8424 1.082 77.9324 1.286 77.9324 1.526C77.9324 1.79 77.8424 2.012 77.6624 2.192C77.4824 2.372 77.2604 2.462 76.9964 2.462ZM89.8224 0.643999V14H88.5984V12.128C88.2144 12.764 87.7044 13.25 87.0684 13.586C86.4444 13.922 85.7364 14.09 84.9444 14.09C84.0564 14.09 83.2524 13.886 82.5324 13.478C81.8124 13.07 81.2484 12.5 80.8404 11.768C80.4324 11.036 80.2284 10.202 80.2284 9.266C80.2284 8.33 80.4324 7.496 80.8404 6.764C81.2484 6.032 81.8124 5.468 82.5324 5.072C83.2524 4.664 84.0564 4.46 84.9444 4.46C85.7124 4.46 86.4024 4.622 87.0144 4.946C87.6384 5.258 88.1484 5.72 88.5444 6.332V0.643999H89.8224ZM85.0524 12.956C85.7124 12.956 86.3064 12.806 86.8344 12.506C87.3744 12.194 87.7944 11.756 88.0944 11.192C88.4064 10.628 88.5624 9.986 88.5624 9.266C88.5624 8.546 88.4064 7.904 88.0944 7.34C87.7944 6.776 87.3744 6.344 86.8344 6.044C86.3064 5.732 85.7124 5.576 85.0524 5.576C84.3804 5.576 83.7744 5.732 83.2344 6.044C82.7064 6.344 82.2864 6.776 81.9744 7.34C81.6744 7.904 81.5244 8.546 81.5244 9.266C81.5244 9.986 81.6744 10.628 81.9744 11.192C82.2864 11.756 82.7064 12.194 83.2344 12.506C83.7744 12.806 84.3804 12.956 85.0524 12.956ZM101.626 9.662H93.7056C93.7776 10.646 94.1556 11.444 94.8396 12.056C95.5236 12.656 96.3876 12.956 97.4316 12.956C98.0196 12.956 98.5596 12.854 99.0516 12.65C99.5436 12.434 99.9696 12.122 100.33 11.714L101.05 12.542C100.63 13.046 100.102 13.43 99.4656 13.694C98.8416 13.958 98.1516 14.09 97.3956 14.09C96.4236 14.09 95.5596 13.886 94.8036 13.478C94.0596 13.058 93.4776 12.482 93.0576 11.75C92.6376 11.018 92.4276 10.19 92.4276 9.266C92.4276 8.342 92.6256 7.514 93.0216 6.782C93.4296 6.05 93.9816 5.48 94.6776 5.072C95.3856 4.664 96.1776 4.46 97.0536 4.46C97.9296 4.46 98.7156 4.664 99.4116 5.072C100.108 5.48 100.654 6.05 101.05 6.782C101.446 7.502 101.644 8.33 101.644 9.266L101.626 9.662ZM97.0536 5.558C96.1416 5.558 95.3736 5.852 94.7496 6.44C94.1376 7.016 93.7896 7.772 93.7056 8.708H100.42C100.336 7.772 99.9816 7.016 99.3576 6.44C98.7456 5.852 97.9776 5.558 97.0536 5.558ZM112.826 14.09C111.914 14.09 111.092 13.886 110.36 13.478C109.628 13.058 109.052 12.482 108.632 11.75C108.212 11.018 108.002 10.19 108.002 9.266C108.002 8.342 108.212 7.514 108.632 6.782C109.052 6.05 109.628 5.48 110.36 5.072C111.092 4.664 111.914 4.46 112.826 4.46C113.738 4.46 114.56 4.664 115.292 5.072C116.024 5.48 116.594 6.05 117.002 6.782C117.422 7.514 117.632 8.342 117.632 9.266C117.632 10.19 117.422 11.018 117.002 11.75C116.594 12.482 116.024 13.058 115.292 13.478C114.56 13.886 113.738 14.09 112.826 14.09ZM112.826 12.956C113.498 12.956 114.098 12.806 114.626 12.506C115.166 12.194 115.586 11.756 115.886 11.192C116.186 10.628 116.336 9.986 116.336 9.266C116.336 8.546 116.186 7.904 115.886 7.34C115.586 6.776 115.166 6.344 114.626 6.044C114.098 5.732 113.498 5.576 112.826 5.576C112.154 5.576 111.548 5.732 111.008 6.044C110.48 6.344 110.06 6.776 109.748 7.34C109.448 7.904 109.298 8.546 109.298 9.266C109.298 9.986 109.448 10.628 109.748 11.192C110.06 11.756 110.48 12.194 111.008 12.506C111.548 12.806 112.154 12.956 112.826 12.956ZM125.065 4.46C126.253 4.46 127.195 4.808 127.891 5.504C128.599 6.188 128.953 7.19 128.953 8.51V14H127.675V8.636C127.675 7.652 127.429 6.902 126.937 6.386C126.445 5.87 125.743 5.612 124.831 5.612C123.811 5.612 123.001 5.918 122.401 6.53C121.813 7.13 121.519 7.964 121.519 9.032V14H120.241V4.532H121.465V6.278C121.813 5.702 122.293 5.258 122.905 4.946C123.529 4.622 124.249 4.46 125.065 4.46ZM132.423 0.643999H133.701V14H132.423V0.643999ZM145.213 4.532L140.479 15.134C140.095 16.022 139.651 16.652 139.147 17.024C138.643 17.396 138.037 17.582 137.329 17.582C136.873 17.582 136.447 17.51 136.051 17.366C135.655 17.222 135.313 17.006 135.025 16.718L135.619 15.764C136.099 16.244 136.675 16.484 137.347 16.484C137.779 16.484 138.145 16.364 138.445 16.124C138.757 15.884 139.045 15.476 139.309 14.9L139.723 13.982L135.493 4.532H136.825L140.389 12.578L143.953 4.532H145.213ZM156.709 13.424C156.469 13.64 156.169 13.808 155.809 13.928C155.461 14.036 155.095 14.09 154.711 14.09C153.823 14.09 153.139 13.85 152.659 13.37C152.179 12.89 151.939 12.212 151.939 11.336V5.612H150.247V4.532H151.939V2.462H153.217V4.532H156.097V5.612H153.217V11.264C153.217 11.828 153.355 12.26 153.631 12.56C153.919 12.848 154.327 12.992 154.855 12.992C155.119 12.992 155.371 12.95 155.611 12.866C155.863 12.782 156.079 12.662 156.259 12.506L156.709 13.424ZM163.86 4.46C165.048 4.46 165.99 4.808 166.686 5.504C167.394 6.188 167.748 7.19 167.748 8.51V14H166.47V8.636C166.47 7.652 166.224 6.902 165.732 6.386C165.24 5.87 164.538 5.612 163.626 5.612C162.606 5.612 161.796 5.918 161.196 6.53C160.608 7.13 160.314 7.964 160.314 9.032V14H159.036V0.643999H160.314V6.188C160.662 5.636 161.142 5.21 161.754 4.91C162.366 4.61 163.068 4.46 163.86 4.46ZM179.497 9.662H171.577C171.649 10.646 172.027 11.444 172.711 12.056C173.395 12.656 174.259 12.956 175.303 12.956C175.891 12.956 176.431 12.854 176.923 12.65C177.415 12.434 177.841 12.122 178.201 11.714L178.921 12.542C178.501 13.046 177.973 13.43 177.337 13.694C176.713 13.958 176.023 14.09 175.267 14.09C174.295 14.09 173.431 13.886 172.675 13.478C171.931 13.058 171.349 12.482 170.929 11.75C170.509 11.018 170.299 10.19 170.299 9.266C170.299 8.342 170.497 7.514 170.893 6.782C171.301 6.05 171.853 5.48 172.549 5.072C173.257 4.664 174.049 4.46 174.925 4.46C175.801 4.46 176.587 4.664 177.283 5.072C177.979 5.48 178.525 6.05 178.921 6.782C179.317 7.502 179.515 8.33 179.515 9.266L179.497 9.662ZM174.925 5.558C174.013 5.558 173.245 5.852 172.621 6.44C172.009 7.016 171.661 7.772 171.577 8.708H178.291C178.207 7.772 177.853 7.016 177.229 6.44C176.617 5.852 175.849 5.558 174.925 5.558ZM191.705 4.46C192.593 4.46 193.397 4.664 194.117 5.072C194.837 5.468 195.401 6.032 195.809 6.764C196.217 7.496 196.421 8.33 196.421 9.266C196.421 10.202 196.217 11.036 195.809 11.768C195.401 12.5 194.837 13.07 194.117 13.478C193.397 13.886 192.593 14.09 191.705 14.09C190.913 14.09 190.199 13.922 189.563 13.586C188.939 13.25 188.435 12.764 188.051 12.128V14H186.827V0.643999H188.105V6.332C188.501 5.72 189.005 5.258 189.617 4.946C190.241 4.622 190.937 4.46 191.705 4.46ZM191.615 12.956C192.275 12.956 192.875 12.806 193.415 12.506C193.955 12.194 194.375 11.756 194.675 11.192C194.987 10.628 195.143 9.986 195.143 9.266C195.143 8.546 194.987 7.904 194.675 7.34C194.375 6.776 193.955 6.344 193.415 6.044C192.875 5.732 192.275 5.576 191.615 5.576C190.943 5.576 190.337 5.732 189.797 6.044C189.269 6.344 188.849 6.776 188.537 7.34C188.237 7.904 188.087 8.546 188.087 9.266C188.087 9.986 188.237 10.628 188.537 11.192C188.849 11.756 189.269 12.194 189.797 12.506C190.337 12.806 190.943 12.956 191.615 12.956ZM207.27 9.662H199.35C199.422 10.646 199.8 11.444 200.484 12.056C201.168 12.656 202.032 12.956 203.076 12.956C203.664 12.956 204.204 12.854 204.696 12.65C205.188 12.434 205.614 12.122 205.974 11.714L206.694 12.542C206.274 13.046 205.746 13.43 205.11 13.694C204.486 13.958 203.796 14.09 203.04 14.09C202.068 14.09 201.204 13.886 200.448 13.478C199.704 13.058 199.122 12.482 198.702 11.75C198.282 11.018 198.072 10.19 198.072 9.266C198.072 8.342 198.27 7.514 198.666 6.782C199.074 6.05 199.626 5.48 200.322 5.072C201.03 4.664 201.822 4.46 202.698 4.46C203.574 4.46 204.36 4.664 205.056 5.072C205.752 5.48 206.298 6.05 206.694 6.782C207.09 7.502 207.288 8.33 207.288 9.266L207.27 9.662ZM202.698 5.558C201.786 5.558 201.018 5.852 200.394 6.44C199.782 7.016 199.434 7.772 199.35 8.708H206.064C205.98 7.772 205.626 7.016 205.002 6.44C204.39 5.852 203.622 5.558 202.698 5.558ZM212.427 14.09C211.659 14.09 210.921 13.982 210.213 13.766C209.517 13.538 208.971 13.256 208.575 12.92L209.151 11.912C209.547 12.224 210.045 12.482 210.645 12.686C211.245 12.878 211.869 12.974 212.517 12.974C213.381 12.974 214.017 12.842 214.425 12.578C214.845 12.302 215.055 11.918 215.055 11.426C215.055 11.078 214.941 10.808 214.713 10.616C214.485 10.412 214.197 10.262 213.849 10.166C213.501 10.058 213.039 9.956 212.463 9.86C211.695 9.716 211.077 9.572 210.609 9.428C210.141 9.272 209.739 9.014 209.403 8.654C209.079 8.294 208.917 7.796 208.917 7.16C208.917 6.368 209.247 5.72 209.907 5.216C210.567 4.712 211.485 4.46 212.661 4.46C213.273 4.46 213.885 4.544 214.497 4.712C215.109 4.868 215.613 5.078 216.009 5.342L215.451 6.368C214.671 5.828 213.741 5.558 212.661 5.558C211.845 5.558 211.227 5.702 210.807 5.99C210.399 6.278 210.195 6.656 210.195 7.124C210.195 7.484 210.309 7.772 210.537 7.988C210.777 8.204 211.071 8.366 211.419 8.474C211.767 8.57 212.247 8.672 212.859 8.78C213.615 8.924 214.221 9.068 214.677 9.212C215.133 9.356 215.523 9.602 215.847 9.95C216.171 10.298 216.333 10.778 216.333 11.39C216.333 12.218 215.985 12.878 215.289 13.37C214.605 13.85 213.651 14.09 212.427 14.09ZM223.682 13.424C223.442 13.64 223.142 13.808 222.782 13.928C222.434 14.036 222.068 14.09 221.684 14.09C220.796 14.09 220.112 13.85 219.632 13.37C219.152 12.89 218.912 12.212 218.912 11.336V5.612H217.22V4.532H218.912V2.462H220.19V4.532H223.07V5.612H220.19V11.264C220.19 11.828 220.328 12.26 220.604 12.56C220.892 12.848 221.3 12.992 221.828 12.992C222.092 12.992 222.344 12.95 222.584 12.866C222.836 12.782 223.052 12.662 223.232 12.506L223.682 13.424ZM235.706 13.424C235.466 13.64 235.166 13.808 234.806 13.928C234.458 14.036 234.092 14.09 233.708 14.09C232.82 14.09 232.136 13.85 231.656 13.37C231.176 12.89 230.936 12.212 230.936 11.336V5.612H229.244V4.532H230.936V2.462H232.214V4.532H235.094V5.612H232.214V11.264C232.214 11.828 232.352 12.26 232.628 12.56C232.916 12.848 233.324 12.992 233.852 12.992C234.116 12.992 234.368 12.95 234.608 12.866C234.86 12.782 235.076 12.662 235.256 12.506L235.706 13.424ZM239.256 6.386C239.556 5.75 240 5.27 240.588 4.946C241.188 4.622 241.926 4.46 242.802 4.46V5.702L242.496 5.684C241.5 5.684 240.72 5.99 240.156 6.602C239.592 7.214 239.31 8.072 239.31 9.176V14H238.032V4.532H239.256V6.386ZM248.41 4.46C249.646 4.46 250.594 4.772 251.254 5.396C251.914 6.008 252.244 6.92 252.244 8.132V14H251.02V12.524C250.732 13.016 250.306 13.4 249.742 13.676C249.19 13.952 248.53 14.09 247.762 14.09C246.706 14.09 245.866 13.838 245.242 13.334C244.618 12.83 244.306 12.164 244.306 11.336C244.306 10.532 244.594 9.884 245.17 9.392C245.758 8.9 246.688 8.654 247.96 8.654H250.966V8.078C250.966 7.262 250.738 6.644 250.282 6.224C249.826 5.792 249.16 5.576 248.284 5.576C247.684 5.576 247.108 5.678 246.556 5.882C246.004 6.074 245.53 6.344 245.134 6.692L244.558 5.738C245.038 5.33 245.614 5.018 246.286 4.802C246.958 4.574 247.666 4.46 248.41 4.46ZM247.96 13.082C248.68 13.082 249.298 12.92 249.814 12.596C250.33 12.26 250.714 11.78 250.966 11.156V9.608H247.996C246.376 9.608 245.566 10.172 245.566 11.3C245.566 11.852 245.776 12.29 246.196 12.614C246.616 12.926 247.204 13.082 247.96 13.082ZM264.391 0.643999V14H263.167V12.128C262.783 12.764 262.273 13.25 261.637 13.586C261.013 13.922 260.305 14.09 259.513 14.09C258.625 14.09 257.821 13.886 257.101 13.478C256.381 13.07 255.817 12.5 255.409 11.768C255.001 11.036 254.797 10.202 254.797 9.266C254.797 8.33 255.001 7.496 255.409 6.764C255.817 6.032 256.381 5.468 257.101 5.072C257.821 4.664 258.625 4.46 259.513 4.46C260.281 4.46 260.971 4.622 261.583 4.946C262.207 5.258 262.717 5.72 263.113 6.332V0.643999H264.391ZM259.621 12.956C260.281 12.956 260.875 12.806 261.403 12.506C261.943 12.194 262.363 11.756 262.663 11.192C262.975 10.628 263.131 9.986 263.131 9.266C263.131 8.546 262.975 7.904 262.663 7.34C262.363 6.776 261.943 6.344 261.403 6.044C260.875 5.732 260.281 5.576 259.621 5.576C258.949 5.576 258.343 5.732 257.803 6.044C257.275 6.344 256.855 6.776 256.543 7.34C256.243 7.904 256.093 8.546 256.093 9.266C256.093 9.986 256.243 10.628 256.543 11.192C256.855 11.756 257.275 12.194 257.803 12.506C258.343 12.806 258.949 12.956 259.621 12.956ZM267.95 4.532H269.228V14H267.95V4.532ZM268.598 2.462C268.334 2.462 268.112 2.372 267.932 2.192C267.752 2.012 267.662 1.796 267.662 1.544C267.662 1.304 267.752 1.094 267.932 0.913999C268.112 0.733999 268.334 0.643999 268.598 0.643999C268.862 0.643999 269.084 0.733999 269.264 0.913999C269.444 1.082 269.534 1.286 269.534 1.526C269.534 1.79 269.444 2.012 269.264 2.192C269.084 2.372 268.862 2.462 268.598 2.462ZM277.608 4.46C278.796 4.46 279.738 4.808 280.434 5.504C281.142 6.188 281.496 7.19 281.496 8.51V14H280.218V8.636C280.218 7.652 279.972 6.902 279.48 6.386C278.988 5.87 278.286 5.612 277.374 5.612C276.354 5.612 275.544 5.918 274.944 6.53C274.356 7.13 274.062 7.964 274.062 9.032V14H272.784V4.532H274.008V6.278C274.356 5.702 274.836 5.258 275.448 4.946C276.072 4.622 276.792 4.46 277.608 4.46ZM293.767 4.532V12.848C293.767 14.456 293.371 15.644 292.579 16.412C291.799 17.192 290.617 17.582 289.033 17.582C288.157 17.582 287.323 17.45 286.531 17.186C285.751 16.934 285.115 16.58 284.623 16.124L285.271 15.152C285.727 15.56 286.279 15.878 286.927 16.106C287.587 16.334 288.277 16.448 288.997 16.448C290.197 16.448 291.079 16.166 291.643 15.602C292.207 15.05 292.489 14.186 292.489 13.01V11.804C292.093 12.404 291.571 12.86 290.923 13.172C290.287 13.484 289.579 13.64 288.799 13.64C287.911 13.64 287.101 13.448 286.369 13.064C285.649 12.668 285.079 12.122 284.659 11.426C284.251 10.718 284.047 9.92 284.047 9.032C284.047 8.144 284.251 7.352 284.659 6.656C285.079 5.96 285.649 5.42 286.369 5.036C287.089 4.652 287.899 4.46 288.799 4.46C289.603 4.46 290.329 4.622 290.977 4.946C291.625 5.27 292.147 5.738 292.543 6.35V4.532H293.767ZM288.925 12.506C289.609 12.506 290.227 12.362 290.779 12.074C291.331 11.774 291.757 11.36 292.057 10.832C292.369 10.304 292.525 9.704 292.525 9.032C292.525 8.36 292.369 7.766 292.057 7.25C291.757 6.722 291.331 6.314 290.779 6.026C290.239 5.726 289.621 5.576 288.925 5.576C288.241 5.576 287.623 5.72 287.071 6.008C286.531 6.296 286.105 6.704 285.793 7.232C285.493 7.76 285.343 8.36 285.343 9.032C285.343 9.704 285.493 10.304 285.793 10.832C286.105 11.36 286.531 11.774 287.071 12.074C287.623 12.362 288.241 12.506 288.925 12.506ZM304.59 14.09C303.822 14.09 303.084 13.982 302.376 13.766C301.68 13.538 301.134 13.256 300.738 12.92L301.314 11.912C301.71 12.224 302.208 12.482 302.808 12.686C303.408 12.878 304.032 12.974 304.68 12.974C305.544 12.974 306.18 12.842 306.588 12.578C307.008 12.302 307.218 11.918 307.218 11.426C307.218 11.078 307.104 10.808 306.876 10.616C306.648 10.412 306.36 10.262 306.012 10.166C305.664 10.058 305.202 9.956 304.626 9.86C303.858 9.716 303.24 9.572 302.772 9.428C302.304 9.272 301.902 9.014 301.566 8.654C301.242 8.294 301.08 7.796 301.08 7.16C301.08 6.368 301.41 5.72 302.07 5.216C302.73 4.712 303.648 4.46 304.824 4.46C305.436 4.46 306.048 4.544 306.66 4.712C307.272 4.868 307.776 5.078 308.172 5.342L307.614 6.368C306.834 5.828 305.904 5.558 304.824 5.558C304.008 5.558 303.39 5.702 302.97 5.99C302.562 6.278 302.358 6.656 302.358 7.124C302.358 7.484 302.472 7.772 302.7 7.988C302.94 8.204 303.234 8.366 303.582 8.474C303.93 8.57 304.41 8.672 305.022 8.78C305.778 8.924 306.384 9.068 306.84 9.212C307.296 9.356 307.686 9.602 308.01 9.95C308.334 10.298 308.496 10.778 308.496 11.39C308.496 12.218 308.148 12.878 307.452 13.37C306.768 13.85 305.814 14.09 304.59 14.09ZM314.728 14.09C313.816 14.09 312.994 13.886 312.262 13.478C311.53 13.058 310.954 12.482 310.534 11.75C310.114 11.018 309.904 10.19 309.904 9.266C309.904 8.342 310.114 7.514 310.534 6.782C310.954 6.05 311.53 5.48 312.262 5.072C312.994 4.664 313.816 4.46 314.728 4.46C315.64 4.46 316.462 4.664 317.194 5.072C317.926 5.48 318.496 6.05 318.904 6.782C319.324 7.514 319.534 8.342 319.534 9.266C319.534 10.19 319.324 11.018 318.904 11.75C318.496 12.482 317.926 13.058 317.194 13.478C316.462 13.886 315.64 14.09 314.728 14.09ZM314.728 12.956C315.4 12.956 316 12.806 316.528 12.506C317.068 12.194 317.488 11.756 317.788 11.192C318.088 10.628 318.238 9.986 318.238 9.266C318.238 8.546 318.088 7.904 317.788 7.34C317.488 6.776 317.068 6.344 316.528 6.044C316 5.732 315.4 5.576 314.728 5.576C314.056 5.576 313.45 5.732 312.91 6.044C312.382 6.344 311.962 6.776 311.65 7.34C311.35 7.904 311.2 8.546 311.2 9.266C311.2 9.986 311.35 10.628 311.65 11.192C311.962 11.756 312.382 12.194 312.91 12.506C313.45 12.806 314.056 12.956 314.728 12.956ZM325.275 1.634C324.723 1.634 324.303 1.784 324.015 2.084C323.739 2.384 323.601 2.828 323.601 3.416V4.532H326.517V5.612H323.637V14H322.359V5.612H320.667V4.532H322.359V3.362C322.359 2.498 322.605 1.814 323.097 1.31C323.601 0.805999 324.309 0.553999 325.221 0.553999C325.581 0.553999 325.929 0.607999 326.265 0.715999C326.601 0.812 326.883 0.955999 327.111 1.148L326.679 2.102C326.307 1.79 325.839 1.634 325.275 1.634ZM333.229 13.424C332.989 13.64 332.689 13.808 332.329 13.928C331.981 14.036 331.615 14.09 331.231 14.09C330.343 14.09 329.659 13.85 329.179 13.37C328.699 12.89 328.459 12.212 328.459 11.336V5.612H326.767V4.532H328.459V2.462H329.737V4.532H332.617V5.612H329.737V11.264C329.737 11.828 329.875 12.26 330.151 12.56C330.439 12.848 330.847 12.992 331.375 12.992C331.639 12.992 331.891 12.95 332.131 12.866C332.383 12.782 332.599 12.662 332.779 12.506L333.229 13.424ZM349.276 4.532L345.694 14H344.488L341.5 6.242L338.512 14H337.306L333.742 4.532H334.966L337.936 12.578L340.978 4.532H342.076L345.1 12.578L348.106 4.532H349.276ZM354.231 4.46C355.467 4.46 356.415 4.772 357.075 5.396C357.735 6.008 358.065 6.92 358.065 8.132V14H356.841V12.524C356.553 13.016 356.127 13.4 355.563 13.676C355.011 13.952 354.351 14.09 353.583 14.09C352.527 14.09 351.687 13.838 351.063 13.334C350.439 12.83 350.127 12.164 350.127 11.336C350.127 10.532 350.415 9.884 350.991 9.392C351.579 8.9 352.509 8.654 353.781 8.654H356.787V8.078C356.787 7.262 356.559 6.644 356.103 6.224C355.647 5.792 354.981 5.576 354.105 5.576C353.505 5.576 352.929 5.678 352.377 5.882C351.825 6.074 351.351 6.344 350.955 6.692L350.379 5.738C350.859 5.33 351.435 5.018 352.107 4.802C352.779 4.574 353.487 4.46 354.231 4.46ZM353.781 13.082C354.501 13.082 355.119 12.92 355.635 12.596C356.151 12.26 356.535 11.78 356.787 11.156V9.608H353.817C352.197 9.608 351.387 10.172 351.387 11.3C351.387 11.852 351.597 12.29 352.017 12.614C352.437 12.926 353.025 13.082 353.781 13.082ZM362.76 6.386C363.06 5.75 363.504 5.27 364.092 4.946C364.692 4.622 365.43 4.46 366.306 4.46V5.702L366 5.684C365.004 5.684 364.224 5.99 363.66 6.602C363.096 7.214 362.814 8.072 362.814 9.176V14H361.536V4.532H362.76V6.386ZM376.776 9.662H368.856C368.928 10.646 369.306 11.444 369.99 12.056C370.674 12.656 371.538 12.956 372.582 12.956C373.17 12.956 373.71 12.854 374.202 12.65C374.694 12.434 375.12 12.122 375.48 11.714L376.2 12.542C375.78 13.046 375.252 13.43 374.616 13.694C373.992 13.958 373.302 14.09 372.546 14.09C371.574 14.09 370.71 13.886 369.954 13.478C369.21 13.058 368.628 12.482 368.208 11.75C367.788 11.018 367.578 10.19 367.578 9.266C367.578 8.342 367.776 7.514 368.172 6.782C368.58 6.05 369.132 5.48 369.828 5.072C370.536 4.664 371.328 4.46 372.204 4.46C373.08 4.46 373.866 4.664 374.562 5.072C375.258 5.48 375.804 6.05 376.2 6.782C376.596 7.502 376.794 8.33 376.794 9.266L376.776 9.662ZM372.204 5.558C371.292 5.558 370.524 5.852 369.9 6.44C369.288 7.016 368.94 7.772 368.856 8.708H375.57C375.486 7.772 375.132 7.016 374.508 6.44C373.896 5.852 373.128 5.558 372.204 5.558ZM379.521 14.09C379.257 14.09 379.029 13.994 378.837 13.802C378.657 13.61 378.567 13.376 378.567 13.1C378.567 12.824 378.657 12.596 378.837 12.416C379.029 12.224 379.257 12.128 379.521 12.128C379.785 12.128 380.013 12.224 380.205 12.416C380.397 12.596 380.493 12.824 380.493 13.1C380.493 13.376 380.397 13.61 380.205 13.802C380.013 13.994 379.785 14.09 379.521 14.09ZM390.639 2.552H386.211V1.4H396.399V2.552H391.971V14H390.639V2.552ZM403.081 4.46C404.269 4.46 405.211 4.808 405.907 5.504C406.615 6.188 406.969 7.19 406.969 8.51V14H405.691V8.636C405.691 7.652 405.445 6.902 404.953 6.386C404.461 5.87 403.759 5.612 402.847 5.612C401.827 5.612 401.017 5.918 400.417 6.53C399.829 7.13 399.535 7.964 399.535 9.032V14H398.257V0.643999H399.535V6.188C399.883 5.636 400.363 5.21 400.975 4.91C401.587 4.61 402.289 4.46 403.081 4.46ZM418.717 9.662H410.797C410.869 10.646 411.247 11.444 411.931 12.056C412.615 12.656 413.479 12.956 414.523 12.956C415.111 12.956 415.651 12.854 416.143 12.65C416.635 12.434 417.061 12.122 417.421 11.714L418.141 12.542C417.721 13.046 417.193 13.43 416.557 13.694C415.933 13.958 415.243 14.09 414.487 14.09C413.515 14.09 412.651 13.886 411.895 13.478C411.151 13.058 410.569 12.482 410.149 11.75C409.729 11.018 409.519 10.19 409.519 9.266C409.519 8.342 409.717 7.514 410.113 6.782C410.521 6.05 411.073 5.48 411.769 5.072C412.477 4.664 413.269 4.46 414.145 4.46C415.021 4.46 415.807 4.664 416.503 5.072C417.199 5.48 417.745 6.05 418.141 6.782C418.537 7.502 418.735 8.33 418.735 9.266L418.717 9.662ZM414.145 5.558C413.233 5.558 412.465 5.852 411.841 6.44C411.229 7.016 410.881 7.772 410.797 8.708H417.511C417.427 7.772 417.073 7.016 416.449 6.44C415.837 5.852 415.069 5.558 414.145 5.558ZM6.768 43.424C6.528 43.64 6.228 43.808 5.868 43.928C5.52 44.036 5.154 44.09 4.77 44.09C3.882 44.09 3.198 43.85 2.718 43.37C2.238 42.89 1.998 42.212 1.998 41.336V35.612H0.306V34.532H1.998V32.462H3.276V34.532H6.156V35.612H3.276V41.264C3.276 41.828 3.414 42.26 3.69 42.56C3.978 42.848 4.386 42.992 4.914 42.992C5.178 42.992 5.43 42.95 5.67 42.866C5.922 42.782 6.138 42.662 6.318 42.506L6.768 43.424ZM10.3185 36.386C10.6185 35.75 11.0625 35.27 11.6505 34.946C12.2505 34.622 12.9885 34.46 13.8645 34.46V35.702L13.5585 35.684C12.5625 35.684 11.7825 35.99 11.2185 36.602C10.6545 37.214 10.3725 38.072 10.3725 39.176V44H9.0945V34.532H10.3185V36.386ZM19.4729 34.46C20.7089 34.46 21.6569 34.772 22.3169 35.396C22.9769 36.008 23.3069 36.92 23.3069 38.132V44H22.0829V42.524C21.7949 43.016 21.3689 43.4 20.8049 43.676C20.2529 43.952 19.5929 44.09 18.8249 44.09C17.7689 44.09 16.9289 43.838 16.3049 43.334C15.6809 42.83 15.3689 42.164 15.3689 41.336C15.3689 40.532 15.6569 39.884 16.2329 39.392C16.8209 38.9 17.7509 38.654 19.0229 38.654H22.0289V38.078C22.0289 37.262 21.8009 36.644 21.3449 36.224C20.8889 35.792 20.2229 35.576 19.3469 35.576C18.7469 35.576 18.1709 35.678 17.6189 35.882C17.0669 36.074 16.5929 36.344 16.1969 36.692L15.6209 35.738C16.1009 35.33 16.6769 35.018 17.3489 34.802C18.0209 34.574 18.7289 34.46 19.4729 34.46ZM19.0229 43.082C19.7429 43.082 20.3609 42.92 20.8769 42.596C21.3929 42.26 21.7769 41.78 22.0289 41.156V39.608H19.0589C17.4389 39.608 16.6289 40.172 16.6289 41.3C16.6289 41.852 16.8389 42.29 17.2589 42.614C17.6789 42.926 18.2669 43.082 19.0229 43.082ZM35.4533 30.644V44H34.2293V42.128C33.8453 42.764 33.3353 43.25 32.6993 43.586C32.0753 43.922 31.3673 44.09 30.5753 44.09C29.6873 44.09 28.8833 43.886 28.1633 43.478C27.4433 43.07 26.8793 42.5 26.4713 41.768C26.0633 41.036 25.8593 40.202 25.8593 39.266C25.8593 38.33 26.0633 37.496 26.4713 36.764C26.8793 36.032 27.4433 35.468 28.1633 35.072C28.8833 34.664 29.6873 34.46 30.5753 34.46C31.3433 34.46 32.0333 34.622 32.6453 34.946C33.2693 35.258 33.7793 35.72 34.1753 36.332V30.644H35.4533ZM30.6833 42.956C31.3433 42.956 31.9373 42.806 32.4653 42.506C33.0053 42.194 33.4253 41.756 33.7253 41.192C34.0373 40.628 34.1933 39.986 34.1933 39.266C34.1933 38.546 34.0373 37.904 33.7253 37.34C33.4253 36.776 33.0053 36.344 32.4653 36.044C31.9373 35.732 31.3433 35.576 30.6833 35.576C30.0113 35.576 29.4053 35.732 28.8653 36.044C28.3373 36.344 27.9173 36.776 27.6053 37.34C27.3053 37.904 27.1553 38.546 27.1553 39.266C27.1553 39.986 27.3053 40.628 27.6053 41.192C27.9173 41.756 28.3373 42.194 28.8653 42.506C29.4053 42.806 30.0113 42.956 30.6833 42.956ZM39.0125 34.532H40.2905V44H39.0125V34.532ZM39.6605 32.462C39.3965 32.462 39.1745 32.372 38.9945 32.192C38.8145 32.012 38.7245 31.796 38.7245 31.544C38.7245 31.304 38.8145 31.094 38.9945 30.914C39.1745 30.734 39.3965 30.644 39.6605 30.644C39.9245 30.644 40.1465 30.734 40.3265 30.914C40.5065 31.082 40.5965 31.286 40.5965 31.526C40.5965 31.79 40.5065 32.012 40.3265 32.192C40.1465 32.372 39.9245 32.462 39.6605 32.462ZM48.6705 34.46C49.8585 34.46 50.8005 34.808 51.4965 35.504C52.2045 36.188 52.5585 37.19 52.5585 38.51V44H51.2805V38.636C51.2805 37.652 51.0345 36.902 50.5425 36.386C50.0505 35.87 49.3485 35.612 48.4365 35.612C47.4165 35.612 46.6065 35.918 46.0065 36.53C45.4185 37.13 45.1245 37.964 45.1245 39.032V44H43.8465V34.532H45.0705V36.278C45.4185 35.702 45.8985 35.258 46.5105 34.946C47.1345 34.622 47.8545 34.46 48.6705 34.46ZM64.8293 34.532V42.848C64.8293 44.456 64.4333 45.644 63.6413 46.412C62.8613 47.192 61.6793 47.582 60.0953 47.582C59.2193 47.582 58.3853 47.45 57.5933 47.186C56.8133 46.934 56.1773 46.58 55.6853 46.124L56.3333 45.152C56.7893 45.56 57.3413 45.878 57.9893 46.106C58.6493 46.334 59.3393 46.448 60.0593 46.448C61.2593 46.448 62.1413 46.166 62.7053 45.602C63.2693 45.05 63.5513 44.186 63.5513 43.01V41.804C63.1553 42.404 62.6333 42.86 61.9853 43.172C61.3493 43.484 60.6413 43.64 59.8613 43.64C58.9733 43.64 58.1633 43.448 57.4313 43.064C56.7113 42.668 56.1413 42.122 55.7213 41.426C55.3133 40.718 55.1093 39.92 55.1093 39.032C55.1093 38.144 55.3133 37.352 55.7213 36.656C56.1413 35.96 56.7113 35.42 57.4313 35.036C58.1513 34.652 58.9613 34.46 59.8613 34.46C60.6653 34.46 61.3913 34.622 62.0393 34.946C62.6873 35.27 63.2093 35.738 63.6053 36.35V34.532H64.8293ZM59.9873 42.506C60.6713 42.506 61.2893 42.362 61.8413 42.074C62.3933 41.774 62.8193 41.36 63.1193 40.832C63.4313 40.304 63.5873 39.704 63.5873 39.032C63.5873 38.36 63.4313 37.766 63.1193 37.25C62.8193 36.722 62.3933 36.314 61.8413 36.026C61.3013 35.726 60.6833 35.576 59.9873 35.576C59.3033 35.576 58.6853 35.72 58.1333 36.008C57.5933 36.296 57.1673 36.704 56.8553 37.232C56.5553 37.76 56.4053 38.36 56.4053 39.032C56.4053 39.704 56.5553 40.304 56.8553 40.832C57.1673 41.36 57.5933 41.774 58.1333 42.074C58.6853 42.362 59.3033 42.506 59.9873 42.506ZM78.1 43.424C77.86 43.64 77.56 43.808 77.2 43.928C76.852 44.036 76.486 44.09 76.102 44.09C75.214 44.09 74.53 43.85 74.05 43.37C73.57 42.89 73.33 42.212 73.33 41.336V35.612H71.638V34.532H73.33V32.462H74.608V34.532H77.488V35.612H74.608V41.264C74.608 41.828 74.746 42.26 75.022 42.56C75.31 42.848 75.718 42.992 76.246 42.992C76.51 42.992 76.762 42.95 77.002 42.866C77.254 42.782 77.47 42.662 77.65 42.506L78.1 43.424ZM88.3365 39.662H80.4165C80.4885 40.646 80.8665 41.444 81.5505 42.056C82.2345 42.656 83.0985 42.956 84.1425 42.956C84.7305 42.956 85.2705 42.854 85.7625 42.65C86.2545 42.434 86.6805 42.122 87.0405 41.714L87.7605 42.542C87.3405 43.046 86.8125 43.43 86.1765 43.694C85.5525 43.958 84.8625 44.09 84.1065 44.09C83.1345 44.09 82.2705 43.886 81.5145 43.478C80.7705 43.058 80.1885 42.482 79.7685 41.75C79.3485 41.018 79.1385 40.19 79.1385 39.266C79.1385 38.342 79.3365 37.514 79.7325 36.782C80.1405 36.05 80.6925 35.48 81.3885 35.072C82.0965 34.664 82.8885 34.46 83.7645 34.46C84.6405 34.46 85.4265 34.664 86.1225 35.072C86.8185 35.48 87.3645 36.05 87.7605 36.782C88.1565 37.502 88.3545 38.33 88.3545 39.266L88.3365 39.662ZM83.7645 35.558C82.8525 35.558 82.0845 35.852 81.4605 36.44C80.8485 37.016 80.5005 37.772 80.4165 38.708H87.1305C87.0465 37.772 86.6925 37.016 86.0685 36.44C85.4565 35.852 84.6885 35.558 83.7645 35.558ZM92.1798 36.386C92.4798 35.75 92.9238 35.27 93.5118 34.946C94.1118 34.622 94.8498 34.46 95.7258 34.46V35.702L95.4198 35.684C94.4238 35.684 93.6438 35.99 93.0798 36.602C92.5158 37.214 92.2338 38.072 92.2338 39.176V44H90.9558V34.532H92.1798V36.386ZM109.848 34.46C111.036 34.46 111.966 34.802 112.638 35.486C113.322 36.17 113.664 37.178 113.664 38.51V44H112.386V38.636C112.386 37.652 112.146 36.902 111.666 36.386C111.198 35.87 110.532 35.612 109.668 35.612C108.684 35.612 107.91 35.918 107.346 36.53C106.782 37.13 106.5 37.964 106.5 39.032V44H105.222V38.636C105.222 37.652 104.982 36.902 104.502 36.386C104.034 35.87 103.362 35.612 102.486 35.612C101.514 35.612 100.74 35.918 100.164 36.53C99.5998 37.13 99.3178 37.964 99.3178 39.032V44H98.0398V34.532H99.2638V36.26C99.5998 35.684 100.068 35.24 100.668 34.928C101.268 34.616 101.958 34.46 102.738 34.46C103.53 34.46 104.214 34.628 104.79 34.964C105.378 35.3 105.816 35.798 106.104 36.458C106.452 35.834 106.95 35.348 107.598 35C108.258 34.64 109.008 34.46 109.848 34.46ZM117.13 34.532H118.408V44H117.13V34.532ZM117.778 32.462C117.514 32.462 117.292 32.372 117.112 32.192C116.932 32.012 116.842 31.796 116.842 31.544C116.842 31.304 116.932 31.094 117.112 30.914C117.292 30.734 117.514 30.644 117.778 30.644C118.042 30.644 118.264 30.734 118.444 30.914C118.624 31.082 118.714 31.286 118.714 31.526C118.714 31.79 118.624 32.012 118.444 32.192C118.264 32.372 118.042 32.462 117.778 32.462ZM126.788 34.46C127.976 34.46 128.918 34.808 129.614 35.504C130.322 36.188 130.676 37.19 130.676 38.51V44H129.398V38.636C129.398 37.652 129.152 36.902 128.66 36.386C128.168 35.87 127.466 35.612 126.554 35.612C125.534 35.612 124.724 35.918 124.124 36.53C123.536 37.13 123.242 37.964 123.242 39.032V44H121.964V34.532H123.188V36.278C123.536 35.702 124.016 35.258 124.628 34.946C125.252 34.622 125.972 34.46 126.788 34.46ZM137.457 34.46C138.693 34.46 139.641 34.772 140.301 35.396C140.961 36.008 141.291 36.92 141.291 38.132V44H140.067V42.524C139.779 43.016 139.353 43.4 138.789 43.676C138.237 43.952 137.577 44.09 136.809 44.09C135.753 44.09 134.913 43.838 134.289 43.334C133.665 42.83 133.353 42.164 133.353 41.336C133.353 40.532 133.641 39.884 134.217 39.392C134.805 38.9 135.735 38.654 137.007 38.654H140.013V38.078C140.013 37.262 139.785 36.644 139.329 36.224C138.873 35.792 138.207 35.576 137.331 35.576C136.731 35.576 136.155 35.678 135.603 35.882C135.051 36.074 134.577 36.344 134.181 36.692L133.605 35.738C134.085 35.33 134.661 35.018 135.333 34.802C136.005 34.574 136.713 34.46 137.457 34.46ZM137.007 43.082C137.727 43.082 138.345 42.92 138.861 42.596C139.377 42.26 139.761 41.78 140.013 41.156V39.608H137.043C135.423 39.608 134.613 40.172 134.613 41.3C134.613 41.852 134.823 42.29 135.243 42.614C135.663 42.926 136.251 43.082 137.007 43.082ZM144.762 30.644H146.04V44H144.762V30.644ZM167.663 31.4V44H166.385V33.92L161.435 42.398H160.805L155.855 33.974V44H154.577V31.4H155.675L161.147 40.742L166.565 31.4H167.663ZM179.743 39.662H171.823C171.895 40.646 172.273 41.444 172.957 42.056C173.641 42.656 174.505 42.956 175.549 42.956C176.137 42.956 176.677 42.854 177.169 42.65C177.661 42.434 178.087 42.122 178.447 41.714L179.167 42.542C178.747 43.046 178.219 43.43 177.583 43.694C176.959 43.958 176.269 44.09 175.513 44.09C174.541 44.09 173.677 43.886 172.921 43.478C172.177 43.058 171.595 42.482 171.175 41.75C170.755 41.018 170.545 40.19 170.545 39.266C170.545 38.342 170.743 37.514 171.139 36.782C171.547 36.05 172.099 35.48 172.795 35.072C173.503 34.664 174.295 34.46 175.171 34.46C176.047 34.46 176.833 34.664 177.529 35.072C178.225 35.48 178.771 36.05 179.167 36.782C179.563 37.502 179.761 38.33 179.761 39.266L179.743 39.662ZM175.171 35.558C174.259 35.558 173.491 35.852 172.867 36.44C172.255 37.016 171.907 37.772 171.823 38.708H178.537C178.453 37.772 178.099 37.016 177.475 36.44C176.863 35.852 176.095 35.558 175.171 35.558ZM187.348 43.424C187.108 43.64 186.808 43.808 186.448 43.928C186.1 44.036 185.734 44.09 185.35 44.09C184.462 44.09 183.778 43.85 183.298 43.37C182.818 42.89 182.578 42.212 182.578 41.336V35.612H180.886V34.532H182.578V32.462H183.856V34.532H186.736V35.612H183.856V41.264C183.856 41.828 183.994 42.26 184.27 42.56C184.558 42.848 184.966 42.992 185.494 42.992C185.758 42.992 186.01 42.95 186.25 42.866C186.502 42.782 186.718 42.662 186.898 42.506L187.348 43.424ZM192.987 34.46C194.223 34.46 195.171 34.772 195.831 35.396C196.491 36.008 196.821 36.92 196.821 38.132V44H195.597V42.524C195.309 43.016 194.883 43.4 194.319 43.676C193.767 43.952 193.107 44.09 192.339 44.09C191.283 44.09 190.443 43.838 189.819 43.334C189.195 42.83 188.883 42.164 188.883 41.336C188.883 40.532 189.171 39.884 189.747 39.392C190.335 38.9 191.265 38.654 192.537 38.654H195.543V38.078C195.543 37.262 195.315 36.644 194.859 36.224C194.403 35.792 193.737 35.576 192.861 35.576C192.261 35.576 191.685 35.678 191.133 35.882C190.581 36.074 190.107 36.344 189.711 36.692L189.135 35.738C189.615 35.33 190.191 35.018 190.863 34.802C191.535 34.574 192.243 34.46 192.987 34.46ZM192.537 43.082C193.257 43.082 193.875 42.92 194.391 42.596C194.907 42.26 195.291 41.78 195.543 41.156V39.608H192.573C190.953 39.608 190.143 40.172 190.143 41.3C190.143 41.852 190.353 42.29 190.773 42.614C191.193 42.926 191.781 43.082 192.537 43.082ZM203.01 32.552H198.582V31.4H208.77V32.552H204.342V44H203.01V32.552ZM211.606 36.386C211.906 35.75 212.35 35.27 212.938 34.946C213.538 34.622 214.276 34.46 215.152 34.46V35.702L214.846 35.684C213.85 35.684 213.07 35.99 212.506 36.602C211.942 37.214 211.66 38.072 211.66 39.176V44H210.382V34.532H211.606V36.386ZM220.76 34.46C221.996 34.46 222.944 34.772 223.604 35.396C224.264 36.008 224.594 36.92 224.594 38.132V44H223.37V42.524C223.082 43.016 222.656 43.4 222.092 43.676C221.54 43.952 220.88 44.09 220.112 44.09C219.056 44.09 218.216 43.838 217.592 43.334C216.968 42.83 216.656 42.164 216.656 41.336C216.656 40.532 216.944 39.884 217.52 39.392C218.108 38.9 219.038 38.654 220.31 38.654H223.316V38.078C223.316 37.262 223.088 36.644 222.632 36.224C222.176 35.792 221.51 35.576 220.634 35.576C220.034 35.576 219.458 35.678 218.906 35.882C218.354 36.074 217.88 36.344 217.484 36.692L216.908 35.738C217.388 35.33 217.964 35.018 218.636 34.802C219.308 34.574 220.016 34.46 220.76 34.46ZM220.31 43.082C221.03 43.082 221.648 42.92 222.164 42.596C222.68 42.26 223.064 41.78 223.316 41.156V39.608H220.346C218.726 39.608 217.916 40.172 217.916 41.3C217.916 41.852 218.126 42.29 218.546 42.614C218.966 42.926 219.554 43.082 220.31 43.082ZM236.74 30.644V44H235.516V42.128C235.132 42.764 234.622 43.25 233.986 43.586C233.362 43.922 232.654 44.09 231.862 44.09C230.974 44.09 230.17 43.886 229.45 43.478C228.73 43.07 228.166 42.5 227.758 41.768C227.35 41.036 227.146 40.202 227.146 39.266C227.146 38.33 227.35 37.496 227.758 36.764C228.166 36.032 228.73 35.468 229.45 35.072C230.17 34.664 230.974 34.46 231.862 34.46C232.63 34.46 233.32 34.622 233.932 34.946C234.556 35.258 235.066 35.72 235.462 36.332V30.644H236.74ZM231.97 42.956C232.63 42.956 233.224 42.806 233.752 42.506C234.292 42.194 234.712 41.756 235.012 41.192C235.324 40.628 235.48 39.986 235.48 39.266C235.48 38.546 235.324 37.904 235.012 37.34C234.712 36.776 234.292 36.344 233.752 36.044C233.224 35.732 232.63 35.576 231.97 35.576C231.298 35.576 230.692 35.732 230.152 36.044C229.624 36.344 229.204 36.776 228.892 37.34C228.592 37.904 228.442 38.546 228.442 39.266C228.442 39.986 228.592 40.628 228.892 41.192C229.204 41.756 229.624 42.194 230.152 42.506C230.692 42.806 231.298 42.956 231.97 42.956ZM248.544 39.662H240.624C240.696 40.646 241.074 41.444 241.758 42.056C242.442 42.656 243.306 42.956 244.35 42.956C244.938 42.956 245.478 42.854 245.97 42.65C246.462 42.434 246.888 42.122 247.248 41.714L247.968 42.542C247.548 43.046 247.02 43.43 246.384 43.694C245.76 43.958 245.07 44.09 244.314 44.09C243.342 44.09 242.478 43.886 241.722 43.478C240.978 43.058 240.396 42.482 239.976 41.75C239.556 41.018 239.346 40.19 239.346 39.266C239.346 38.342 239.544 37.514 239.94 36.782C240.348 36.05 240.9 35.48 241.596 35.072C242.304 34.664 243.096 34.46 243.972 34.46C244.848 34.46 245.634 34.664 246.33 35.072C247.026 35.48 247.572 36.05 247.968 36.782C248.364 37.502 248.562 38.33 248.562 39.266L248.544 39.662ZM243.972 35.558C243.06 35.558 242.292 35.852 241.668 36.44C241.056 37.016 240.708 37.772 240.624 38.708H247.338C247.254 37.772 246.9 37.016 246.276 36.44C245.664 35.852 244.896 35.558 243.972 35.558ZM252.387 36.386C252.687 35.75 253.131 35.27 253.719 34.946C254.319 34.622 255.057 34.46 255.933 34.46V35.702L255.627 35.684C254.631 35.684 253.851 35.99 253.287 36.602C252.723 37.214 252.441 38.072 252.441 39.176V44H251.163V34.532H252.387V36.386ZM267.707 40.688H265.187V44H263.891V40.688H256.781V39.752L263.459 31.4H264.899L258.455 39.536H263.927V36.62H265.187V39.536H267.707V40.688ZM274.454 34.532H275.732V44H274.454V34.532ZM275.102 32.462C274.838 32.462 274.616 32.372 274.436 32.192C274.256 32.012 274.166 31.796 274.166 31.544C274.166 31.304 274.256 31.094 274.436 30.914C274.616 30.734 274.838 30.644 275.102 30.644C275.366 30.644 275.588 30.734 275.768 30.914C275.948 31.082 276.038 31.286 276.038 31.526C276.038 31.79 275.948 32.012 275.768 32.192C275.588 32.372 275.366 32.462 275.102 32.462ZM281.826 44.09C281.058 44.09 280.32 43.982 279.612 43.766C278.916 43.538 278.37 43.256 277.974 42.92L278.55 41.912C278.946 42.224 279.444 42.482 280.044 42.686C280.644 42.878 281.268 42.974 281.916 42.974C282.78 42.974 283.416 42.842 283.824 42.578C284.244 42.302 284.454 41.918 284.454 41.426C284.454 41.078 284.34 40.808 284.112 40.616C283.884 40.412 283.596 40.262 283.248 40.166C282.9 40.058 282.438 39.956 281.862 39.86C281.094 39.716 280.476 39.572 280.008 39.428C279.54 39.272 279.138 39.014 278.802 38.654C278.478 38.294 278.316 37.796 278.316 37.16C278.316 36.368 278.646 35.72 279.306 35.216C279.966 34.712 280.884 34.46 282.06 34.46C282.672 34.46 283.284 34.544 283.896 34.712C284.508 34.868 285.012 35.078 285.408 35.342L284.85 36.368C284.07 35.828 283.14 35.558 282.06 35.558C281.244 35.558 280.626 35.702 280.206 35.99C279.798 36.278 279.594 36.656 279.594 37.124C279.594 37.484 279.708 37.772 279.936 37.988C280.176 38.204 280.47 38.366 280.818 38.474C281.166 38.57 281.646 38.672 282.258 38.78C283.014 38.924 283.62 39.068 284.076 39.212C284.532 39.356 284.922 39.602 285.246 39.95C285.57 40.298 285.732 40.778 285.732 41.39C285.732 42.218 285.384 42.878 284.688 43.37C284.004 43.85 283.05 44.09 281.826 44.09ZM297.791 43.424C297.551 43.64 297.251 43.808 296.891 43.928C296.543 44.036 296.177 44.09 295.793 44.09C294.905 44.09 294.221 43.85 293.741 43.37C293.261 42.89 293.021 42.212 293.021 41.336V35.612H291.329V34.532H293.021V32.462H294.299V34.532H297.179V35.612H294.299V41.264C294.299 41.828 294.437 42.26 294.713 42.56C295.001 42.848 295.409 42.992 295.937 42.992C296.201 42.992 296.453 42.95 296.693 42.866C296.945 42.782 297.161 42.662 297.341 42.506L297.791 43.424ZM304.942 34.46C306.13 34.46 307.072 34.808 307.768 35.504C308.476 36.188 308.83 37.19 308.83 38.51V44H307.552V38.636C307.552 37.652 307.306 36.902 306.814 36.386C306.322 35.87 305.62 35.612 304.708 35.612C303.688 35.612 302.878 35.918 302.278 36.53C301.69 37.13 301.396 37.964 301.396 39.032V44H300.118V30.644H301.396V36.188C301.744 35.636 302.224 35.21 302.836 34.91C303.448 34.61 304.15 34.46 304.942 34.46ZM320.579 39.662H312.659C312.731 40.646 313.109 41.444 313.793 42.056C314.477 42.656 315.341 42.956 316.385 42.956C316.973 42.956 317.513 42.854 318.005 42.65C318.497 42.434 318.923 42.122 319.283 41.714L320.003 42.542C319.583 43.046 319.055 43.43 318.419 43.694C317.795 43.958 317.105 44.09 316.349 44.09C315.377 44.09 314.513 43.886 313.757 43.478C313.013 43.058 312.431 42.482 312.011 41.75C311.591 41.018 311.381 40.19 311.381 39.266C311.381 38.342 311.579 37.514 311.975 36.782C312.383 36.05 312.935 35.48 313.631 35.072C314.339 34.664 315.131 34.46 316.007 34.46C316.883 34.46 317.669 34.664 318.365 35.072C319.061 35.48 319.607 36.05 320.003 36.782C320.399 37.502 320.597 38.33 320.597 39.266L320.579 39.662ZM316.007 35.558C315.095 35.558 314.327 35.852 313.703 36.44C313.091 37.016 312.743 37.772 312.659 38.708H319.373C319.289 37.772 318.935 37.016 318.311 36.44C317.699 35.852 316.931 35.558 316.007 35.558ZM339.717 34.46C340.905 34.46 341.835 34.802 342.507 35.486C343.191 36.17 343.533 37.178 343.533 38.51V44H342.255V38.636C342.255 37.652 342.015 36.902 341.535 36.386C341.067 35.87 340.401 35.612 339.537 35.612C338.553 35.612 337.779 35.918 337.215 36.53C336.651 37.13 336.369 37.964 336.369 39.032V44H335.091V38.636C335.091 37.652 334.851 36.902 334.371 36.386C333.903 35.87 333.231 35.612 332.355 35.612C331.383 35.612 330.609 35.918 330.033 36.53C329.469 37.13 329.187 37.964 329.187 39.032V44H327.909V34.532H329.133V36.26C329.469 35.684 329.937 35.24 330.537 34.928C331.137 34.616 331.827 34.46 332.607 34.46C333.399 34.46 334.083 34.628 334.659 34.964C335.247 35.3 335.685 35.798 335.973 36.458C336.321 35.834 336.819 35.348 337.467 35C338.127 34.64 338.877 34.46 339.717 34.46ZM350.904 44.09C349.992 44.09 349.17 43.886 348.438 43.478C347.706 43.058 347.13 42.482 346.71 41.75C346.29 41.018 346.08 40.19 346.08 39.266C346.08 38.342 346.29 37.514 346.71 36.782C347.13 36.05 347.706 35.48 348.438 35.072C349.17 34.664 349.992 34.46 350.904 34.46C351.816 34.46 352.638 34.664 353.37 35.072C354.102 35.48 354.672 36.05 355.08 36.782C355.5 37.514 355.71 38.342 355.71 39.266C355.71 40.19 355.5 41.018 355.08 41.75C354.672 42.482 354.102 43.058 353.37 43.478C352.638 43.886 351.816 44.09 350.904 44.09ZM350.904 42.956C351.576 42.956 352.176 42.806 352.704 42.506C353.244 42.194 353.664 41.756 353.964 41.192C354.264 40.628 354.414 39.986 354.414 39.266C354.414 38.546 354.264 37.904 353.964 37.34C353.664 36.776 353.244 36.344 352.704 36.044C352.176 35.732 351.576 35.576 350.904 35.576C350.232 35.576 349.626 35.732 349.086 36.044C348.558 36.344 348.138 36.776 347.826 37.34C347.526 37.904 347.376 38.546 347.376 39.266C347.376 39.986 347.526 40.628 347.826 41.192C348.138 41.756 348.558 42.194 349.086 42.506C349.626 42.806 350.232 42.956 350.904 42.956ZM360.857 44.09C360.089 44.09 359.351 43.982 358.643 43.766C357.947 43.538 357.401 43.256 357.005 42.92L357.581 41.912C357.977 42.224 358.475 42.482 359.075 42.686C359.675 42.878 360.299 42.974 360.947 42.974C361.811 42.974 362.447 42.842 362.855 42.578C363.275 42.302 363.485 41.918 363.485 41.426C363.485 41.078 363.371 40.808 363.143 40.616C362.915 40.412 362.627 40.262 362.279 40.166C361.931 40.058 361.469 39.956 360.893 39.86C360.125 39.716 359.507 39.572 359.039 39.428C358.571 39.272 358.169 39.014 357.833 38.654C357.509 38.294 357.347 37.796 357.347 37.16C357.347 36.368 357.677 35.72 358.337 35.216C358.997 34.712 359.915 34.46 361.091 34.46C361.703 34.46 362.315 34.544 362.927 34.712C363.539 34.868 364.043 35.078 364.439 35.342L363.881 36.368C363.101 35.828 362.171 35.558 361.091 35.558C360.275 35.558 359.657 35.702 359.237 35.99C358.829 36.278 358.625 36.656 358.625 37.124C358.625 37.484 358.739 37.772 358.967 37.988C359.207 38.204 359.501 38.366 359.849 38.474C360.197 38.57 360.677 38.672 361.289 38.78C362.045 38.924 362.651 39.068 363.107 39.212C363.563 39.356 363.953 39.602 364.277 39.95C364.601 40.298 364.763 40.778 364.763 41.39C364.763 42.218 364.415 42.878 363.719 43.37C363.035 43.85 362.081 44.09 360.857 44.09ZM372.112 43.424C371.872 43.64 371.572 43.808 371.212 43.928C370.864 44.036 370.498 44.09 370.114 44.09C369.226 44.09 368.542 43.85 368.062 43.37C367.582 42.89 367.342 42.212 367.342 41.336V35.612H365.65V34.532H367.342V32.462H368.62V34.532H371.5V35.612H368.62V41.264C368.62 41.828 368.758 42.26 369.034 42.56C369.322 42.848 369.73 42.992 370.258 42.992C370.522 42.992 370.774 42.95 371.014 42.866C371.266 42.782 371.482 42.662 371.662 42.506L372.112 43.424ZM384.027 34.46C384.915 34.46 385.719 34.664 386.439 35.072C387.159 35.468 387.723 36.032 388.131 36.764C388.539 37.496 388.743 38.33 388.743 39.266C388.743 40.214 388.539 41.054 388.131 41.786C387.723 42.518 387.159 43.088 386.439 43.496C385.731 43.892 384.927 44.09 384.027 44.09C383.259 44.09 382.563 43.934 381.939 43.622C381.327 43.298 380.823 42.83 380.427 42.218V47.492H379.149V34.532H380.373V36.404C380.757 35.78 381.261 35.3 381.885 34.964C382.521 34.628 383.235 34.46 384.027 34.46ZM383.937 42.956C384.597 42.956 385.197 42.806 385.737 42.506C386.277 42.194 386.697 41.756 386.997 41.192C387.309 40.628 387.465 39.986 387.465 39.266C387.465 38.546 387.309 37.91 386.997 37.358C386.697 36.794 386.277 36.356 385.737 36.044C385.197 35.732 384.597 35.576 383.937 35.576C383.265 35.576 382.659 35.732 382.119 36.044C381.591 36.356 381.171 36.794 380.859 37.358C380.559 37.91 380.409 38.546 380.409 39.266C380.409 39.986 380.559 40.628 380.859 41.192C381.171 41.756 381.591 42.194 382.119 42.506C382.659 42.806 383.265 42.956 383.937 42.956ZM395.218 44.09C394.306 44.09 393.484 43.886 392.752 43.478C392.02 43.058 391.444 42.482 391.024 41.75C390.604 41.018 390.394 40.19 390.394 39.266C390.394 38.342 390.604 37.514 391.024 36.782C391.444 36.05 392.02 35.48 392.752 35.072C393.484 34.664 394.306 34.46 395.218 34.46C396.13 34.46 396.952 34.664 397.684 35.072C398.416 35.48 398.986 36.05 399.394 36.782C399.814 37.514 400.024 38.342 400.024 39.266C400.024 40.19 399.814 41.018 399.394 41.75C398.986 42.482 398.416 43.058 397.684 43.478C396.952 43.886 396.13 44.09 395.218 44.09ZM395.218 42.956C395.89 42.956 396.49 42.806 397.018 42.506C397.558 42.194 397.978 41.756 398.278 41.192C398.578 40.628 398.728 39.986 398.728 39.266C398.728 38.546 398.578 37.904 398.278 37.34C397.978 36.776 397.558 36.344 397.018 36.044C396.49 35.732 395.89 35.576 395.218 35.576C394.546 35.576 393.94 35.732 393.4 36.044C392.872 36.344 392.452 36.776 392.14 37.34C391.84 37.904 391.69 38.546 391.69 39.266C391.69 39.986 391.84 40.628 392.14 41.192C392.452 41.756 392.872 42.194 393.4 42.506C393.94 42.806 394.546 42.956 395.218 42.956ZM407.512 34.46C408.4 34.46 409.204 34.664 409.924 35.072C410.644 35.468 411.208 36.032 411.616 36.764C412.024 37.496 412.228 38.33 412.228 39.266C412.228 40.214 412.024 41.054 411.616 41.786C411.208 42.518 410.644 43.088 409.924 43.496C409.216 43.892 408.412 44.09 407.512 44.09C406.744 44.09 406.048 43.934 405.424 43.622C404.812 43.298 404.308 42.83 403.912 42.218V47.492H402.634V34.532H403.858V36.404C404.242 35.78 404.746 35.3 405.37 34.964C406.006 34.628 406.72 34.46 407.512 34.46ZM407.422 42.956C408.082 42.956 408.682 42.806 409.222 42.506C409.762 42.194 410.182 41.756 410.482 41.192C410.794 40.628 410.95 39.986 410.95 39.266C410.95 38.546 410.794 37.91 410.482 37.358C410.182 36.794 409.762 36.356 409.222 36.044C408.682 35.732 408.082 35.576 407.422 35.576C406.75 35.576 406.144 35.732 405.604 36.044C405.076 36.356 404.656 36.794 404.344 37.358C404.044 37.91 403.894 38.546 403.894 39.266C403.894 39.986 404.044 40.628 404.344 41.192C404.656 41.756 405.076 42.194 405.604 42.506C406.144 42.806 406.75 42.956 407.422 42.956ZM423.365 34.532V44H422.141V42.272C421.805 42.848 421.343 43.298 420.755 43.622C420.167 43.934 419.495 44.09 418.739 44.09C417.503 44.09 416.525 43.748 415.805 43.064C415.097 42.368 414.743 41.354 414.743 40.022V34.532H416.021V39.896C416.021 40.892 416.267 41.648 416.759 42.164C417.251 42.68 417.953 42.938 418.865 42.938C419.861 42.938 420.647 42.638 421.223 42.038C421.799 41.426 422.087 40.58 422.087 39.5V34.532H423.365ZM426.944 30.644H428.222V44H426.944V30.644ZM435.09 34.46C436.326 34.46 437.274 34.772 437.934 35.396C438.594 36.008 438.924 36.92 438.924 38.132V44H437.7V42.524C437.412 43.016 436.986 43.4 436.422 43.676C435.87 43.952 435.21 44.09 434.442 44.09C433.386 44.09 432.546 43.838 431.922 43.334C431.298 42.83 430.986 42.164 430.986 41.336C430.986 40.532 431.274 39.884 431.85 39.392C432.438 38.9 433.368 38.654 434.64 38.654H437.646V38.078C437.646 37.262 437.418 36.644 436.962 36.224C436.506 35.792 435.84 35.576 434.964 35.576C434.364 35.576 433.788 35.678 433.236 35.882C432.684 36.074 432.21 36.344 431.814 36.692L431.238 35.738C431.718 35.33 432.294 35.018 432.966 34.802C433.638 34.574 434.346 34.46 435.09 34.46ZM434.64 43.082C435.36 43.082 435.978 42.92 436.494 42.596C437.01 42.26 437.394 41.78 437.646 41.156V39.608H434.676C433.056 39.608 432.246 40.172 432.246 41.3C432.246 41.852 432.456 42.29 432.876 42.614C433.296 42.926 433.884 43.082 434.64 43.082ZM443.619 36.386C443.919 35.75 444.363 35.27 444.951 34.946C445.551 34.622 446.289 34.46 447.165 34.46V35.702L446.859 35.684C445.863 35.684 445.083 35.99 444.519 36.602C443.955 37.214 443.673 38.072 443.673 39.176V44H442.395V34.532H443.619V36.386ZM5.094 64.46C6.33 64.46 7.278 64.772 7.938 65.396C8.598 66.008 8.928 66.92 8.928 68.132V74H7.704V72.524C7.416 73.016 6.99 73.4 6.426 73.676C5.874 73.952 5.214 74.09 4.446 74.09C3.39 74.09 2.55 73.838 1.926 73.334C1.302 72.83 0.99 72.164 0.99 71.336C0.99 70.532 1.278 69.884 1.854 69.392C2.442 68.9 3.372 68.654 4.644 68.654H7.65V68.078C7.65 67.262 7.422 66.644 6.966 66.224C6.51 65.792 5.844 65.576 4.968 65.576C4.368 65.576 3.792 65.678 3.24 65.882C2.688 66.074 2.214 66.344 1.818 66.692L1.242 65.738C1.722 65.33 2.298 65.018 2.97 64.802C3.642 64.574 4.35 64.46 5.094 64.46ZM4.644 73.082C5.364 73.082 5.982 72.92 6.498 72.596C7.014 72.26 7.398 71.78 7.65 71.156V69.608H4.68C3.06 69.608 2.25 70.172 2.25 71.3C2.25 71.852 2.46 72.29 2.88 72.614C3.3 72.926 3.888 73.082 4.644 73.082ZM17.2232 64.46C18.4112 64.46 19.3532 64.808 20.0492 65.504C20.7572 66.188 21.1112 67.19 21.1112 68.51V74H19.8332V68.636C19.8332 67.652 19.5872 66.902 19.0952 66.386C18.6032 65.87 17.9012 65.612 16.9892 65.612C15.9692 65.612 15.1592 65.918 14.5592 66.53C13.9712 67.13 13.6772 67.964 13.6772 69.032V74H12.3992V64.532H13.6232V66.278C13.9712 65.702 14.4512 65.258 15.0632 64.946C15.6872 64.622 16.4072 64.46 17.2232 64.46ZM33.256 60.644V74H32.032V72.128C31.648 72.764 31.138 73.25 30.502 73.586C29.878 73.922 29.17 74.09 28.378 74.09C27.49 74.09 26.686 73.886 25.966 73.478C25.246 73.07 24.682 72.5 24.274 71.768C23.866 71.036 23.662 70.202 23.662 69.266C23.662 68.33 23.866 67.496 24.274 66.764C24.682 66.032 25.246 65.468 25.966 65.072C26.686 64.664 27.49 64.46 28.378 64.46C29.146 64.46 29.836 64.622 30.448 64.946C31.072 65.258 31.582 65.72 31.978 66.332V60.644H33.256ZM28.486 72.956C29.146 72.956 29.74 72.806 30.268 72.506C30.808 72.194 31.228 71.756 31.528 71.192C31.84 70.628 31.996 69.986 31.996 69.266C31.996 68.546 31.84 67.904 31.528 67.34C31.228 66.776 30.808 66.344 30.268 66.044C29.74 65.732 29.146 65.576 28.486 65.576C27.814 65.576 27.208 65.732 26.668 66.044C26.14 66.344 25.72 66.776 25.408 67.34C25.108 67.904 24.958 68.546 24.958 69.266C24.958 69.986 25.108 70.628 25.408 71.192C25.72 71.756 26.14 72.194 26.668 72.506C27.208 72.806 27.814 72.956 28.486 72.956ZM45.4501 74.09C44.5141 74.09 43.6741 73.886 42.9301 73.478C42.1981 73.07 41.6221 72.5 41.2021 71.768C40.7821 71.024 40.5721 70.19 40.5721 69.266C40.5721 68.342 40.7821 67.514 41.2021 66.782C41.6221 66.05 42.1981 65.48 42.9301 65.072C43.6741 64.664 44.5141 64.46 45.4501 64.46C46.2661 64.46 46.9921 64.622 47.6281 64.946C48.2761 65.258 48.7861 65.72 49.1581 66.332L48.2041 66.98C47.8921 66.512 47.4961 66.164 47.0161 65.936C46.5361 65.696 46.0141 65.576 45.4501 65.576C44.7661 65.576 44.1481 65.732 43.5961 66.044C43.0561 66.344 42.6301 66.776 42.3181 67.34C42.0181 67.904 41.8681 68.546 41.8681 69.266C41.8681 69.998 42.0181 70.646 42.3181 71.21C42.6301 71.762 43.0561 72.194 43.5961 72.506C44.1481 72.806 44.7661 72.956 45.4501 72.956C46.0141 72.956 46.5361 72.842 47.0161 72.614C47.4961 72.386 47.8921 72.038 48.2041 71.57L49.1581 72.218C48.7861 72.83 48.2761 73.298 47.6281 73.622C46.9801 73.934 46.2541 74.09 45.4501 74.09ZM55.3805 74.09C54.4685 74.09 53.6465 73.886 52.9145 73.478C52.1825 73.058 51.6065 72.482 51.1865 71.75C50.7665 71.018 50.5565 70.19 50.5565 69.266C50.5565 68.342 50.7665 67.514 51.1865 66.782C51.6065 66.05 52.1825 65.48 52.9145 65.072C53.6465 64.664 54.4685 64.46 55.3805 64.46C56.2925 64.46 57.1145 64.664 57.8465 65.072C58.5785 65.48 59.1485 66.05 59.5565 66.782C59.9765 67.514 60.1865 68.342 60.1865 69.266C60.1865 70.19 59.9765 71.018 59.5565 71.75C59.1485 72.482 58.5785 73.058 57.8465 73.478C57.1145 73.886 56.2925 74.09 55.3805 74.09ZM55.3805 72.956C56.0525 72.956 56.6525 72.806 57.1805 72.506C57.7205 72.194 58.1405 71.756 58.4405 71.192C58.7405 70.628 58.8905 69.986 58.8905 69.266C58.8905 68.546 58.7405 67.904 58.4405 67.34C58.1405 66.776 57.7205 66.344 57.1805 66.044C56.6525 65.732 56.0525 65.576 55.3805 65.576C54.7085 65.576 54.1025 65.732 53.5625 66.044C53.0345 66.344 52.6145 66.776 52.3025 67.34C52.0025 67.904 51.8525 68.546 51.8525 69.266C51.8525 69.986 52.0025 70.628 52.3025 71.192C52.6145 71.756 53.0345 72.194 53.5625 72.506C54.1025 72.806 54.7085 72.956 55.3805 72.956ZM67.6197 64.46C68.8077 64.46 69.7497 64.808 70.4457 65.504C71.1537 66.188 71.5077 67.19 71.5077 68.51V74H70.2297V68.636C70.2297 67.652 69.9837 66.902 69.4917 66.386C68.9997 65.87 68.2977 65.612 67.3857 65.612C66.3657 65.612 65.5557 65.918 64.9557 66.53C64.3677 67.13 64.0737 67.964 64.0737 69.032V74H62.7957V64.532H64.0197V66.278C64.3677 65.702 64.8477 65.258 65.4597 64.946C66.0837 64.622 66.8037 64.46 67.6197 64.46ZM82.7575 64.532L78.5455 74H77.2315L73.0375 64.532H74.3695L77.9155 72.596L81.4975 64.532H82.7575ZM92.5377 69.662H84.6177C84.6897 70.646 85.0677 71.444 85.7517 72.056C86.4357 72.656 87.2997 72.956 88.3437 72.956C88.9317 72.956 89.4717 72.854 89.9637 72.65C90.4557 72.434 90.8817 72.122 91.2417 71.714L91.9617 72.542C91.5417 73.046 91.0137 73.43 90.3777 73.694C89.7537 73.958 89.0637 74.09 88.3077 74.09C87.3357 74.09 86.4717 73.886 85.7157 73.478C84.9717 73.058 84.3897 72.482 83.9697 71.75C83.5497 71.018 83.3397 70.19 83.3397 69.266C83.3397 68.342 83.5377 67.514 83.9337 66.782C84.3417 66.05 84.8937 65.48 85.5897 65.072C86.2977 64.664 87.0897 64.46 87.9657 64.46C88.8417 64.46 89.6277 64.664 90.3237 65.072C91.0197 65.48 91.5657 66.05 91.9617 66.782C92.3577 67.502 92.5557 68.33 92.5557 69.266L92.5377 69.662ZM87.9657 65.558C87.0537 65.558 86.2857 65.852 85.6617 66.44C85.0497 67.016 84.7017 67.772 84.6177 68.708H91.3317C91.2477 67.772 90.8937 67.016 90.2697 66.44C89.6577 65.852 88.8897 65.558 87.9657 65.558ZM99.981 64.46C101.169 64.46 102.111 64.808 102.807 65.504C103.515 66.188 103.869 67.19 103.869 68.51V74H102.591V68.636C102.591 67.652 102.345 66.902 101.853 66.386C101.361 65.87 100.659 65.612 99.747 65.612C98.727 65.612 97.917 65.918 97.317 66.53C96.729 67.13 96.435 67.964 96.435 69.032V74H95.157V64.532H96.381V66.278C96.729 65.702 97.209 65.258 97.821 64.946C98.445 64.622 99.165 64.46 99.981 64.46ZM107.339 64.532H108.617V74H107.339V64.532ZM107.987 62.462C107.723 62.462 107.501 62.372 107.321 62.192C107.141 62.012 107.051 61.796 107.051 61.544C107.051 61.304 107.141 61.094 107.321 60.914C107.501 60.734 107.723 60.644 107.987 60.644C108.251 60.644 108.473 60.734 108.653 60.914C108.833 61.082 108.923 61.286 108.923 61.526C108.923 61.79 108.833 62.012 108.653 62.192C108.473 62.372 108.251 62.462 107.987 62.462ZM120.417 69.662H112.497C112.569 70.646 112.947 71.444 113.631 72.056C114.315 72.656 115.179 72.956 116.223 72.956C116.811 72.956 117.351 72.854 117.843 72.65C118.335 72.434 118.761 72.122 119.121 71.714L119.841 72.542C119.421 73.046 118.893 73.43 118.257 73.694C117.633 73.958 116.943 74.09 116.187 74.09C115.215 74.09 114.351 73.886 113.595 73.478C112.851 73.058 112.269 72.482 111.849 71.75C111.429 71.018 111.219 70.19 111.219 69.266C111.219 68.342 111.417 67.514 111.813 66.782C112.221 66.05 112.773 65.48 113.469 65.072C114.177 64.664 114.969 64.46 115.845 64.46C116.721 64.46 117.507 64.664 118.203 65.072C118.899 65.48 119.445 66.05 119.841 66.782C120.237 67.502 120.435 68.33 120.435 69.266L120.417 69.662ZM115.845 65.558C114.933 65.558 114.165 65.852 113.541 66.44C112.929 67.016 112.581 67.772 112.497 68.708H119.211C119.127 67.772 118.773 67.016 118.149 66.44C117.537 65.852 116.769 65.558 115.845 65.558ZM127.86 64.46C129.048 64.46 129.99 64.808 130.686 65.504C131.394 66.188 131.748 67.19 131.748 68.51V74H130.47V68.636C130.47 67.652 130.224 66.902 129.732 66.386C129.24 65.87 128.538 65.612 127.626 65.612C126.606 65.612 125.796 65.918 125.196 66.53C124.608 67.13 124.314 67.964 124.314 69.032V74H123.036V64.532H124.26V66.278C124.608 65.702 125.088 65.258 125.7 64.946C126.324 64.622 127.044 64.46 127.86 64.46ZM140.204 73.424C139.964 73.64 139.664 73.808 139.304 73.928C138.956 74.036 138.59 74.09 138.206 74.09C137.318 74.09 136.634 73.85 136.154 73.37C135.674 72.89 135.434 72.212 135.434 71.336V65.612H133.742V64.532H135.434V62.462H136.712V64.532H139.592V65.612H136.712V71.264C136.712 71.828 136.85 72.26 137.126 72.56C137.414 72.848 137.822 72.992 138.35 72.992C138.614 72.992 138.866 72.95 139.106 72.866C139.358 72.782 139.574 72.662 139.754 72.506L140.204 73.424ZM152.119 64.46C153.007 64.46 153.811 64.664 154.531 65.072C155.251 65.468 155.815 66.032 156.223 66.764C156.631 67.496 156.835 68.33 156.835 69.266C156.835 70.214 156.631 71.054 156.223 71.786C155.815 72.518 155.251 73.088 154.531 73.496C153.823 73.892 153.019 74.09 152.119 74.09C151.351 74.09 150.655 73.934 150.031 73.622C149.419 73.298 148.915 72.83 148.519 72.218V77.492H147.241V64.532H148.465V66.404C148.849 65.78 149.353 65.3 149.977 64.964C150.613 64.628 151.327 64.46 152.119 64.46ZM152.029 72.956C152.689 72.956 153.289 72.806 153.829 72.506C154.369 72.194 154.789 71.756 155.089 71.192C155.401 70.628 155.557 69.986 155.557 69.266C155.557 68.546 155.401 67.91 155.089 67.358C154.789 66.794 154.369 66.356 153.829 66.044C153.289 65.732 152.689 65.576 152.029 65.576C151.357 65.576 150.751 65.732 150.211 66.044C149.683 66.356 149.263 66.794 148.951 67.358C148.651 67.91 148.501 68.546 148.501 69.266C148.501 69.986 148.651 70.628 148.951 71.192C149.263 71.756 149.683 72.194 150.211 72.506C150.751 72.806 151.357 72.956 152.029 72.956ZM159.44 60.644H160.718V74H159.44V60.644ZM167.586 64.46C168.822 64.46 169.77 64.772 170.43 65.396C171.09 66.008 171.42 66.92 171.42 68.132V74H170.196V72.524C169.908 73.016 169.482 73.4 168.918 73.676C168.366 73.952 167.706 74.09 166.938 74.09C165.882 74.09 165.042 73.838 164.418 73.334C163.794 72.83 163.482 72.164 163.482 71.336C163.482 70.532 163.77 69.884 164.346 69.392C164.934 68.9 165.864 68.654 167.136 68.654H170.142V68.078C170.142 67.262 169.914 66.644 169.458 66.224C169.002 65.792 168.336 65.576 167.46 65.576C166.86 65.576 166.284 65.678 165.732 65.882C165.18 66.074 164.706 66.344 164.31 66.692L163.734 65.738C164.214 65.33 164.79 65.018 165.462 64.802C166.134 64.574 166.842 64.46 167.586 64.46ZM167.136 73.082C167.856 73.082 168.474 72.92 168.99 72.596C169.506 72.26 169.89 71.78 170.142 71.156V69.608H167.172C165.552 69.608 164.742 70.172 164.742 71.3C164.742 71.852 164.952 72.29 165.372 72.614C165.792 72.926 166.38 73.082 167.136 73.082ZM179.877 73.424C179.637 73.64 179.337 73.808 178.977 73.928C178.629 74.036 178.263 74.09 177.879 74.09C176.991 74.09 176.307 73.85 175.827 73.37C175.347 72.89 175.107 72.212 175.107 71.336V65.612H173.415V64.532H175.107V62.462H176.385V64.532H179.265V65.612H176.385V71.264C176.385 71.828 176.523 72.26 176.799 72.56C177.087 72.848 177.495 72.992 178.023 72.992C178.287 72.992 178.539 72.95 178.779 72.866C179.031 72.782 179.247 72.662 179.427 72.506L179.877 73.424ZM185.336 61.634C184.784 61.634 184.364 61.784 184.076 62.084C183.8 62.384 183.662 62.828 183.662 63.416V64.532H186.578V65.612H183.698V74H182.42V65.612H180.728V64.532H182.42V63.362C182.42 62.498 182.666 61.814 183.158 61.31C183.662 60.806 184.37 60.554 185.282 60.554C185.642 60.554 185.99 60.608 186.326 60.716C186.662 60.812 186.944 60.956 187.172 61.148L186.74 62.102C186.368 61.79 185.9 61.634 185.336 61.634ZM192.015 74.09C191.103 74.09 190.281 73.886 189.549 73.478C188.817 73.058 188.241 72.482 187.821 71.75C187.401 71.018 187.191 70.19 187.191 69.266C187.191 68.342 187.401 67.514 187.821 66.782C188.241 66.05 188.817 65.48 189.549 65.072C190.281 64.664 191.103 64.46 192.015 64.46C192.927 64.46 193.749 64.664 194.481 65.072C195.213 65.48 195.783 66.05 196.191 66.782C196.611 67.514 196.821 68.342 196.821 69.266C196.821 70.19 196.611 71.018 196.191 71.75C195.783 72.482 195.213 73.058 194.481 73.478C193.749 73.886 192.927 74.09 192.015 74.09ZM192.015 72.956C192.687 72.956 193.287 72.806 193.815 72.506C194.355 72.194 194.775 71.756 195.075 71.192C195.375 70.628 195.525 69.986 195.525 69.266C195.525 68.546 195.375 67.904 195.075 67.34C194.775 66.776 194.355 66.344 193.815 66.044C193.287 65.732 192.687 65.576 192.015 65.576C191.343 65.576 190.737 65.732 190.197 66.044C189.669 66.344 189.249 66.776 188.937 67.34C188.637 67.904 188.487 68.546 188.487 69.266C188.487 69.986 188.637 70.628 188.937 71.192C189.249 71.756 189.669 72.194 190.197 72.506C190.737 72.806 191.343 72.956 192.015 72.956ZM200.654 66.386C200.954 65.75 201.398 65.27 201.986 64.946C202.586 64.622 203.324 64.46 204.2 64.46V65.702L203.894 65.684C202.898 65.684 202.118 65.99 201.554 66.602C200.99 67.214 200.708 68.072 200.708 69.176V74H199.43V64.532H200.654V66.386ZM218.322 64.46C219.51 64.46 220.44 64.802 221.112 65.486C221.796 66.17 222.138 67.178 222.138 68.51V74H220.86V68.636C220.86 67.652 220.62 66.902 220.14 66.386C219.672 65.87 219.006 65.612 218.142 65.612C217.158 65.612 216.384 65.918 215.82 66.53C215.256 67.13 214.974 67.964 214.974 69.032V74H213.696V68.636C213.696 67.652 213.456 66.902 212.976 66.386C212.508 65.87 211.836 65.612 210.96 65.612C209.988 65.612 209.214 65.918 208.638 66.53C208.074 67.13 207.792 67.964 207.792 69.032V74H206.514V64.532H207.738V66.26C208.074 65.684 208.542 65.24 209.142 64.928C209.742 64.616 210.432 64.46 211.212 64.46C212.004 64.46 212.688 64.628 213.264 64.964C213.852 65.3 214.29 65.798 214.578 66.458C214.926 65.834 215.424 65.348 216.072 65C216.732 64.64 217.482 64.46 218.322 64.46ZM233.447 61.634C232.895 61.634 232.475 61.784 232.187 62.084C231.911 62.384 231.773 62.828 231.773 63.416V64.532H234.689V65.612H231.809V74H230.531V65.612H228.839V64.532H230.531V63.362C230.531 62.498 230.777 61.814 231.269 61.31C231.773 60.806 232.481 60.554 233.393 60.554C233.753 60.554 234.101 60.608 234.437 60.716C234.773 60.812 235.055 60.956 235.283 61.148L234.851 62.102C234.479 61.79 234.011 61.634 233.447 61.634ZM240.127 74.09C239.215 74.09 238.393 73.886 237.661 73.478C236.929 73.058 236.353 72.482 235.933 71.75C235.513 71.018 235.303 70.19 235.303 69.266C235.303 68.342 235.513 67.514 235.933 66.782C236.353 66.05 236.929 65.48 237.661 65.072C238.393 64.664 239.215 64.46 240.127 64.46C241.039 64.46 241.861 64.664 242.593 65.072C243.325 65.48 243.895 66.05 244.303 66.782C244.723 67.514 244.933 68.342 244.933 69.266C244.933 70.19 244.723 71.018 244.303 71.75C243.895 72.482 243.325 73.058 242.593 73.478C241.861 73.886 241.039 74.09 240.127 74.09ZM240.127 72.956C240.799 72.956 241.399 72.806 241.927 72.506C242.467 72.194 242.887 71.756 243.187 71.192C243.487 70.628 243.637 69.986 243.637 69.266C243.637 68.546 243.487 67.904 243.187 67.34C242.887 66.776 242.467 66.344 241.927 66.044C241.399 65.732 240.799 65.576 240.127 65.576C239.455 65.576 238.849 65.732 238.309 66.044C237.781 66.344 237.361 66.776 237.049 67.34C236.749 67.904 236.599 68.546 236.599 69.266C236.599 69.986 236.749 70.628 237.049 71.192C237.361 71.756 237.781 72.194 238.309 72.506C238.849 72.806 239.455 72.956 240.127 72.956ZM248.766 66.386C249.066 65.75 249.51 65.27 250.098 64.946C250.698 64.622 251.436 64.46 252.312 64.46V65.702L252.006 65.684C251.01 65.684 250.23 65.99 249.666 66.602C249.102 67.214 248.82 68.072 248.82 69.176V74H247.542V64.532H248.766V66.386ZM262.789 64.46C264.025 64.46 264.973 64.772 265.633 65.396C266.293 66.008 266.623 66.92 266.623 68.132V74H265.399V72.524C265.111 73.016 264.685 73.4 264.121 73.676C263.569 73.952 262.909 74.09 262.141 74.09C261.085 74.09 260.245 73.838 259.621 73.334C258.997 72.83 258.685 72.164 258.685 71.336C258.685 70.532 258.973 69.884 259.549 69.392C260.137 68.9 261.067 68.654 262.339 68.654H265.345V68.078C265.345 67.262 265.117 66.644 264.661 66.224C264.205 65.792 263.539 65.576 262.663 65.576C262.063 65.576 261.487 65.678 260.935 65.882C260.383 66.074 259.909 66.344 259.513 66.692L258.937 65.738C259.417 65.33 259.993 65.018 260.665 64.802C261.337 64.574 262.045 64.46 262.789 64.46ZM262.339 73.082C263.059 73.082 263.677 72.92 264.193 72.596C264.709 72.26 265.093 71.78 265.345 71.156V69.608H262.375C260.755 69.608 259.945 70.172 259.945 71.3C259.945 71.852 260.155 72.29 260.575 72.614C260.995 72.926 261.583 73.082 262.339 73.082ZM274.054 74.09C273.118 74.09 272.278 73.886 271.534 73.478C270.802 73.07 270.226 72.5 269.806 71.768C269.386 71.024 269.176 70.19 269.176 69.266C269.176 68.342 269.386 67.514 269.806 66.782C270.226 66.05 270.802 65.48 271.534 65.072C272.278 64.664 273.118 64.46 274.054 64.46C274.87 64.46 275.596 64.622 276.232 64.946C276.88 65.258 277.39 65.72 277.762 66.332L276.808 66.98C276.496 66.512 276.1 66.164 275.62 65.936C275.14 65.696 274.618 65.576 274.054 65.576C273.37 65.576 272.752 65.732 272.2 66.044C271.66 66.344 271.234 66.776 270.922 67.34C270.622 67.904 270.472 68.546 270.472 69.266C270.472 69.998 270.622 70.646 270.922 71.21C271.234 71.762 271.66 72.194 272.2 72.506C272.752 72.806 273.37 72.956 274.054 72.956C274.618 72.956 275.14 72.842 275.62 72.614C276.1 72.386 276.496 72.038 276.808 71.57L277.762 72.218C277.39 72.83 276.88 73.298 276.232 73.622C275.584 73.934 274.858 74.09 274.054 74.09ZM284.038 74.09C283.102 74.09 282.262 73.886 281.518 73.478C280.786 73.07 280.21 72.5 279.79 71.768C279.37 71.024 279.16 70.19 279.16 69.266C279.16 68.342 279.37 67.514 279.79 66.782C280.21 66.05 280.786 65.48 281.518 65.072C282.262 64.664 283.102 64.46 284.038 64.46C284.854 64.46 285.58 64.622 286.216 64.946C286.864 65.258 287.374 65.72 287.746 66.332L286.792 66.98C286.48 66.512 286.084 66.164 285.604 65.936C285.124 65.696 284.602 65.576 284.038 65.576C283.354 65.576 282.736 65.732 282.184 66.044C281.644 66.344 281.218 66.776 280.906 67.34C280.606 67.904 280.456 68.546 280.456 69.266C280.456 69.998 280.606 70.646 280.906 71.21C281.218 71.762 281.644 72.194 282.184 72.506C282.736 72.806 283.354 72.956 284.038 72.956C284.602 72.956 285.124 72.842 285.604 72.614C286.084 72.386 286.48 72.038 286.792 71.57L287.746 72.218C287.374 72.83 286.864 73.298 286.216 73.622C285.568 73.934 284.842 74.09 284.038 74.09ZM298.342 69.662H290.422C290.494 70.646 290.872 71.444 291.556 72.056C292.24 72.656 293.104 72.956 294.148 72.956C294.736 72.956 295.276 72.854 295.768 72.65C296.26 72.434 296.686 72.122 297.046 71.714L297.766 72.542C297.346 73.046 296.818 73.43 296.182 73.694C295.558 73.958 294.868 74.09 294.112 74.09C293.14 74.09 292.276 73.886 291.52 73.478C290.776 73.058 290.194 72.482 289.774 71.75C289.354 71.018 289.144 70.19 289.144 69.266C289.144 68.342 289.342 67.514 289.738 66.782C290.146 66.05 290.698 65.48 291.394 65.072C292.102 64.664 292.894 64.46 293.77 64.46C294.646 64.46 295.432 64.664 296.128 65.072C296.824 65.48 297.37 66.05 297.766 66.782C298.162 67.502 298.36 68.33 298.36 69.266L298.342 69.662ZM293.77 65.558C292.858 65.558 292.09 65.852 291.466 66.44C290.854 67.016 290.506 67.772 290.422 68.708H297.136C297.052 67.772 296.698 67.016 296.074 66.44C295.462 65.852 294.694 65.558 293.77 65.558ZM303.5 74.09C302.732 74.09 301.994 73.982 301.286 73.766C300.59 73.538 300.044 73.256 299.648 72.92L300.224 71.912C300.62 72.224 301.118 72.482 301.718 72.686C302.318 72.878 302.942 72.974 303.59 72.974C304.454 72.974 305.09 72.842 305.498 72.578C305.918 72.302 306.128 71.918 306.128 71.426C306.128 71.078 306.014 70.808 305.786 70.616C305.558 70.412 305.27 70.262 304.922 70.166C304.574 70.058 304.112 69.956 303.536 69.86C302.768 69.716 302.15 69.572 301.682 69.428C301.214 69.272 300.812 69.014 300.476 68.654C300.152 68.294 299.99 67.796 299.99 67.16C299.99 66.368 300.32 65.72 300.98 65.216C301.64 64.712 302.558 64.46 303.734 64.46C304.346 64.46 304.958 64.544 305.57 64.712C306.182 64.868 306.686 65.078 307.082 65.342L306.524 66.368C305.744 65.828 304.814 65.558 303.734 65.558C302.918 65.558 302.3 65.702 301.88 65.99C301.472 66.278 301.268 66.656 301.268 67.124C301.268 67.484 301.382 67.772 301.61 67.988C301.85 68.204 302.144 68.366 302.492 68.474C302.84 68.57 303.32 68.672 303.932 68.78C304.688 68.924 305.294 69.068 305.75 69.212C306.206 69.356 306.596 69.602 306.92 69.95C307.244 70.298 307.406 70.778 307.406 71.39C307.406 72.218 307.058 72.878 306.362 73.37C305.678 73.85 304.724 74.09 303.5 74.09ZM312.306 74.09C311.538 74.09 310.8 73.982 310.092 73.766C309.396 73.538 308.85 73.256 308.454 72.92L309.03 71.912C309.426 72.224 309.924 72.482 310.524 72.686C311.124 72.878 311.748 72.974 312.396 72.974C313.26 72.974 313.896 72.842 314.304 72.578C314.724 72.302 314.934 71.918 314.934 71.426C314.934 71.078 314.82 70.808 314.592 70.616C314.364 70.412 314.076 70.262 313.728 70.166C313.38 70.058 312.918 69.956 312.342 69.86C311.574 69.716 310.956 69.572 310.488 69.428C310.02 69.272 309.618 69.014 309.282 68.654C308.958 68.294 308.796 67.796 308.796 67.16C308.796 66.368 309.126 65.72 309.786 65.216C310.446 64.712 311.364 64.46 312.54 64.46C313.152 64.46 313.764 64.544 314.376 64.712C314.988 64.868 315.492 65.078 315.888 65.342L315.33 66.368C314.55 65.828 313.62 65.558 312.54 65.558C311.724 65.558 311.106 65.702 310.686 65.99C310.278 66.278 310.074 66.656 310.074 67.124C310.074 67.484 310.188 67.772 310.416 67.988C310.656 68.204 310.95 68.366 311.298 68.474C311.646 68.57 312.126 68.672 312.738 68.78C313.494 68.924 314.1 69.068 314.556 69.212C315.012 69.356 315.402 69.602 315.726 69.95C316.05 70.298 316.212 70.778 316.212 71.39C316.212 72.218 315.864 72.878 315.168 73.37C314.484 73.85 313.53 74.09 312.306 74.09ZM328.272 73.424C328.032 73.64 327.732 73.808 327.372 73.928C327.024 74.036 326.658 74.09 326.274 74.09C325.386 74.09 324.702 73.85 324.222 73.37C323.742 72.89 323.502 72.212 323.502 71.336V65.612H321.81V64.532H323.502V62.462H324.78V64.532H327.66V65.612H324.78V71.264C324.78 71.828 324.918 72.26 325.194 72.56C325.482 72.848 325.89 72.992 326.418 72.992C326.682 72.992 326.934 72.95 327.174 72.866C327.426 72.782 327.642 72.662 327.822 72.506L328.272 73.424ZM334.134 74.09C333.222 74.09 332.4 73.886 331.668 73.478C330.936 73.058 330.36 72.482 329.94 71.75C329.52 71.018 329.31 70.19 329.31 69.266C329.31 68.342 329.52 67.514 329.94 66.782C330.36 66.05 330.936 65.48 331.668 65.072C332.4 64.664 333.222 64.46 334.134 64.46C335.046 64.46 335.868 64.664 336.6 65.072C337.332 65.48 337.902 66.05 338.31 66.782C338.73 67.514 338.94 68.342 338.94 69.266C338.94 70.19 338.73 71.018 338.31 71.75C337.902 72.482 337.332 73.058 336.6 73.478C335.868 73.886 335.046 74.09 334.134 74.09ZM334.134 72.956C334.806 72.956 335.406 72.806 335.934 72.506C336.474 72.194 336.894 71.756 337.194 71.192C337.494 70.628 337.644 69.986 337.644 69.266C337.644 68.546 337.494 67.904 337.194 67.34C336.894 66.776 336.474 66.344 335.934 66.044C335.406 65.732 334.806 65.576 334.134 65.576C333.462 65.576 332.856 65.732 332.316 66.044C331.788 66.344 331.368 66.776 331.056 67.34C330.756 67.904 330.606 68.546 330.606 69.266C330.606 69.986 330.756 70.628 331.056 71.192C331.368 71.756 331.788 72.194 332.316 72.506C332.856 72.806 333.462 72.956 334.134 72.956ZM355.027 64.532V72.848C355.027 74.456 354.631 75.644 353.839 76.412C353.059 77.192 351.877 77.582 350.293 77.582C349.417 77.582 348.583 77.45 347.791 77.186C347.011 76.934 346.375 76.58 345.883 76.124L346.531 75.152C346.987 75.56 347.539 75.878 348.187 76.106C348.847 76.334 349.537 76.448 350.257 76.448C351.457 76.448 352.339 76.166 352.903 75.602C353.467 75.05 353.749 74.186 353.749 73.01V71.804C353.353 72.404 352.831 72.86 352.183 73.172C351.547 73.484 350.839 73.64 350.059 73.64C349.171 73.64 348.361 73.448 347.629 73.064C346.909 72.668 346.339 72.122 345.919 71.426C345.511 70.718 345.307 69.92 345.307 69.032C345.307 68.144 345.511 67.352 345.919 66.656C346.339 65.96 346.909 65.42 347.629 65.036C348.349 64.652 349.159 64.46 350.059 64.46C350.863 64.46 351.589 64.622 352.237 64.946C352.885 65.27 353.407 65.738 353.803 66.35V64.532H355.027ZM350.185 72.506C350.869 72.506 351.487 72.362 352.039 72.074C352.591 71.774 353.017 71.36 353.317 70.832C353.629 70.304 353.785 69.704 353.785 69.032C353.785 68.36 353.629 67.766 353.317 67.25C353.017 66.722 352.591 66.314 352.039 66.026C351.499 65.726 350.881 65.576 350.185 65.576C349.501 65.576 348.883 65.72 348.331 66.008C347.791 66.296 347.365 66.704 347.053 67.232C346.753 67.76 346.603 68.36 346.603 69.032C346.603 69.704 346.753 70.304 347.053 70.832C347.365 71.36 347.791 71.774 348.331 72.074C348.883 72.362 349.501 72.506 350.185 72.506ZM358.6 60.644H359.878V74H358.6V60.644ZM367.304 74.09C366.392 74.09 365.57 73.886 364.838 73.478C364.106 73.058 363.53 72.482 363.11 71.75C362.69 71.018 362.48 70.19 362.48 69.266C362.48 68.342 362.69 67.514 363.11 66.782C363.53 66.05 364.106 65.48 364.838 65.072C365.57 64.664 366.392 64.46 367.304 64.46C368.216 64.46 369.038 64.664 369.77 65.072C370.502 65.48 371.072 66.05 371.48 66.782C371.9 67.514 372.11 68.342 372.11 69.266C372.11 70.19 371.9 71.018 371.48 71.75C371.072 72.482 370.502 73.058 369.77 73.478C369.038 73.886 368.216 74.09 367.304 74.09ZM367.304 72.956C367.976 72.956 368.576 72.806 369.104 72.506C369.644 72.194 370.064 71.756 370.364 71.192C370.664 70.628 370.814 69.986 370.814 69.266C370.814 68.546 370.664 67.904 370.364 67.34C370.064 66.776 369.644 66.344 369.104 66.044C368.576 65.732 367.976 65.576 367.304 65.576C366.632 65.576 366.026 65.732 365.486 66.044C364.958 66.344 364.538 66.776 364.226 67.34C363.926 67.904 363.776 68.546 363.776 69.266C363.776 69.986 363.926 70.628 364.226 71.192C364.538 71.756 364.958 72.194 365.486 72.506C366.026 72.806 366.632 72.956 367.304 72.956ZM379.598 64.46C380.486 64.46 381.29 64.664 382.01 65.072C382.73 65.468 383.294 66.032 383.702 66.764C384.11 67.496 384.314 68.33 384.314 69.266C384.314 70.202 384.11 71.036 383.702 71.768C383.294 72.5 382.73 73.07 382.01 73.478C381.29 73.886 380.486 74.09 379.598 74.09C378.806 74.09 378.092 73.922 377.456 73.586C376.832 73.25 376.328 72.764 375.944 72.128V74H374.72V60.644H375.998V66.332C376.394 65.72 376.898 65.258 377.51 64.946C378.134 64.622 378.83 64.46 379.598 64.46ZM379.508 72.956C380.168 72.956 380.768 72.806 381.308 72.506C381.848 72.194 382.268 71.756 382.568 71.192C382.88 70.628 383.036 69.986 383.036 69.266C383.036 68.546 382.88 67.904 382.568 67.34C382.268 66.776 381.848 66.344 381.308 66.044C380.768 65.732 380.168 65.576 379.508 65.576C378.836 65.576 378.23 65.732 377.689 66.044C377.162 66.344 376.742 66.776 376.43 67.34C376.13 67.904 375.98 68.546 375.98 69.266C375.98 69.986 376.13 70.628 376.43 71.192C376.742 71.756 377.162 72.194 377.689 72.506C378.23 72.806 378.836 72.956 379.508 72.956ZM390.178 64.46C391.414 64.46 392.362 64.772 393.022 65.396C393.682 66.008 394.012 66.92 394.012 68.132V74H392.788V72.524C392.5 73.016 392.074 73.4 391.51 73.676C390.958 73.952 390.298 74.09 389.53 74.09C388.474 74.09 387.634 73.838 387.01 73.334C386.386 72.83 386.074 72.164 386.074 71.336C386.074 70.532 386.362 69.884 386.938 69.392C387.526 68.9 388.456 68.654 389.728 68.654H392.734V68.078C392.734 67.262 392.506 66.644 392.05 66.224C391.594 65.792 390.928 65.576 390.052 65.576C389.452 65.576 388.876 65.678 388.324 65.882C387.772 66.074 387.298 66.344 386.902 66.692L386.326 65.738C386.806 65.33 387.382 65.018 388.054 64.802C388.726 64.574 389.434 64.46 390.178 64.46ZM389.728 73.082C390.448 73.082 391.066 72.92 391.582 72.596C392.098 72.26 392.482 71.78 392.734 71.156V69.608H389.764C388.144 69.608 387.334 70.172 387.334 71.3C387.334 71.852 387.544 72.29 387.964 72.614C388.384 72.926 388.972 73.082 389.728 73.082ZM397.483 60.644H398.761V74H397.483V60.644ZM10.026 99.662H2.106C2.178 100.646 2.556 101.444 3.24 102.056C3.924 102.656 4.788 102.956 5.832 102.956C6.42 102.956 6.96 102.854 7.452 102.65C7.944 102.434 8.37 102.122 8.73 101.714L9.45 102.542C9.03 103.046 8.502 103.43 7.866 103.694C7.242 103.958 6.552 104.09 5.796 104.09C4.824 104.09 3.96 103.886 3.204 103.478C2.46 103.058 1.878 102.482 1.458 101.75C1.038 101.018 0.828 100.19 0.828 99.266C0.828 98.342 1.026 97.514 1.422 96.782C1.83 96.05 2.382 95.48 3.078 95.072C3.786 94.664 4.578 94.46 5.454 94.46C6.33 94.46 7.116 94.664 7.812 95.072C8.508 95.48 9.054 96.05 9.45 96.782C9.846 97.502 10.044 98.33 10.044 99.266L10.026 99.662ZM5.454 95.558C4.542 95.558 3.774 95.852 3.15 96.44C2.538 97.016 2.19 97.772 2.106 98.708H8.82C8.736 97.772 8.382 97.016 7.758 96.44C7.146 95.852 6.378 95.558 5.454 95.558ZM18.4116 104L15.4056 100.04L12.3816 104H10.9416L14.6856 99.14L11.1216 94.532H12.5616L15.4056 98.24L18.2496 94.532H19.6536L16.0896 99.14L19.8696 104H18.4116ZM25.5869 104.09C24.6509 104.09 23.8109 103.886 23.0669 103.478C22.3349 103.07 21.7589 102.5 21.3389 101.768C20.9189 101.024 20.7089 100.19 20.7089 99.266C20.7089 98.342 20.9189 97.514 21.3389 96.782C21.7589 96.05 22.3349 95.48 23.0669 95.072C23.8109 94.664 24.6509 94.46 25.5869 94.46C26.4029 94.46 27.1289 94.622 27.7649 94.946C28.4129 95.258 28.9229 95.72 29.2949 96.332L28.3409 96.98C28.0289 96.512 27.6329 96.164 27.1529 95.936C26.6729 95.696 26.1509 95.576 25.5869 95.576C24.9029 95.576 24.2849 95.732 23.7329 96.044C23.1929 96.344 22.7669 96.776 22.4549 97.34C22.1549 97.904 22.0049 98.546 22.0049 99.266C22.0049 99.998 22.1549 100.646 22.4549 101.21C22.7669 101.762 23.1929 102.194 23.7329 102.506C24.2849 102.806 24.9029 102.956 25.5869 102.956C26.1509 102.956 26.6729 102.842 27.1529 102.614C27.6329 102.386 28.0289 102.038 28.3409 101.57L29.2949 102.218C28.9229 102.83 28.4129 103.298 27.7649 103.622C27.1169 103.934 26.3909 104.09 25.5869 104.09ZM36.4888 94.46C37.6768 94.46 38.6188 94.808 39.3148 95.504C40.0228 96.188 40.3768 97.19 40.3768 98.51V104H39.0988V98.636C39.0988 97.652 38.8528 96.902 38.3608 96.386C37.8688 95.87 37.1668 95.612 36.2548 95.612C35.2348 95.612 34.4248 95.918 33.8248 96.53C33.2368 97.13 32.9428 97.964 32.9428 99.032V104H31.6648V90.644H32.9428V96.188C33.2908 95.636 33.7708 95.21 34.3828 94.91C34.9948 94.61 35.6968 94.46 36.4888 94.46ZM47.1585 94.46C48.3945 94.46 49.3425 94.772 50.0025 95.396C50.6625 96.008 50.9925 96.92 50.9925 98.132V104H49.7685V102.524C49.4805 103.016 49.0545 103.4 48.4905 103.676C47.9385 103.952 47.2785 104.09 46.5105 104.09C45.4545 104.09 44.6145 103.838 43.9905 103.334C43.3665 102.83 43.0545 102.164 43.0545 101.336C43.0545 100.532 43.3425 99.884 43.9185 99.392C44.5065 98.9 45.4365 98.654 46.7085 98.654H49.7145V98.078C49.7145 97.262 49.4865 96.644 49.0305 96.224C48.5745 95.792 47.9085 95.576 47.0325 95.576C46.4325 95.576 45.8565 95.678 45.3045 95.882C44.7525 96.074 44.2785 96.344 43.8825 96.692L43.3065 95.738C43.7865 95.33 44.3625 95.018 45.0345 94.802C45.7065 94.574 46.4145 94.46 47.1585 94.46ZM46.7085 103.082C47.4285 103.082 48.0465 102.92 48.5625 102.596C49.0785 102.26 49.4625 101.78 49.7145 101.156V99.608H46.7445C45.1245 99.608 44.3145 100.172 44.3145 101.3C44.3145 101.852 44.5245 102.29 44.9445 102.614C45.3645 102.926 45.9525 103.082 46.7085 103.082ZM59.2876 94.46C60.4756 94.46 61.4176 94.808 62.1136 95.504C62.8216 96.188 63.1756 97.19 63.1756 98.51V104H61.8976V98.636C61.8976 97.652 61.6516 96.902 61.1596 96.386C60.6676 95.87 59.9656 95.612 59.0536 95.612C58.0336 95.612 57.2236 95.918 56.6236 96.53C56.0356 97.13 55.7416 97.964 55.7416 99.032V104H54.4636V94.532H55.6876V96.278C56.0356 95.702 56.5156 95.258 57.1276 94.946C57.7516 94.622 58.4716 94.46 59.2876 94.46ZM75.4464 94.532V102.848C75.4464 104.456 75.0504 105.644 74.2584 106.412C73.4784 107.192 72.2964 107.582 70.7124 107.582C69.8364 107.582 69.0024 107.45 68.2104 107.186C67.4304 106.934 66.7944 106.58 66.3024 106.124L66.9504 105.152C67.4064 105.56 67.9584 105.878 68.6064 106.106C69.2664 106.334 69.9564 106.448 70.6764 106.448C71.8764 106.448 72.7584 106.166 73.3224 105.602C73.8864 105.05 74.1684 104.186 74.1684 103.01V101.804C73.7724 102.404 73.2504 102.86 72.6024 103.172C71.9664 103.484 71.2584 103.64 70.4784 103.64C69.5904 103.64 68.7804 103.448 68.0484 103.064C67.3284 102.668 66.7584 102.122 66.3384 101.426C65.9304 100.718 65.7264 99.92 65.7264 99.032C65.7264 98.144 65.9304 97.352 66.3384 96.656C66.7584 95.96 67.3284 95.42 68.0484 95.036C68.7684 94.652 69.5784 94.46 70.4784 94.46C71.2824 94.46 72.0084 94.622 72.6564 94.946C73.3044 95.27 73.8264 95.738 74.2224 96.35V94.532H75.4464ZM70.6044 102.506C71.2884 102.506 71.9064 102.362 72.4584 102.074C73.0104 101.774 73.4364 101.36 73.7364 100.832C74.0484 100.304 74.2044 99.704 74.2044 99.032C74.2044 98.36 74.0484 97.766 73.7364 97.25C73.4364 96.722 73.0104 96.314 72.4584 96.026C71.9184 95.726 71.3004 95.576 70.6044 95.576C69.9204 95.576 69.3024 95.72 68.7504 96.008C68.2104 96.296 67.7844 96.704 67.4724 97.232C67.1724 97.76 67.0224 98.36 67.0224 99.032C67.0224 99.704 67.1724 100.304 67.4724 100.832C67.7844 101.36 68.2104 101.774 68.7504 102.074C69.3024 102.362 69.9204 102.506 70.6044 102.506ZM87.2643 99.662H79.3443C79.4163 100.646 79.7943 101.444 80.4783 102.056C81.1623 102.656 82.0263 102.956 83.0703 102.956C83.6583 102.956 84.1983 102.854 84.6903 102.65C85.1823 102.434 85.6083 102.122 85.9683 101.714L86.6883 102.542C86.2683 103.046 85.7403 103.43 85.1043 103.694C84.4803 103.958 83.7903 104.09 83.0343 104.09C82.0623 104.09 81.1983 103.886 80.4423 103.478C79.6983 103.058 79.1163 102.482 78.6963 101.75C78.2763 101.018 78.0663 100.19 78.0663 99.266C78.0663 98.342 78.2643 97.514 78.6603 96.782C79.0683 96.05 79.6203 95.48 80.3163 95.072C81.0243 94.664 81.8163 94.46 82.6923 94.46C83.5683 94.46 84.3543 94.664 85.0503 95.072C85.7463 95.48 86.2923 96.05 86.6883 96.782C87.0843 97.502 87.2823 98.33 87.2823 99.266L87.2643 99.662ZM82.6923 95.558C81.7803 95.558 81.0123 95.852 80.3883 96.44C79.7763 97.016 79.4283 97.772 79.3443 98.708H86.0583C85.9743 97.772 85.6203 97.016 84.9963 96.44C84.3843 95.852 83.6163 95.558 82.6923 95.558ZM92.4216 104.09C91.6536 104.09 90.9156 103.982 90.2076 103.766C89.5116 103.538 88.9656 103.256 88.5696 102.92L89.1456 101.912C89.5416 102.224 90.0396 102.482 90.6396 102.686C91.2396 102.878 91.8636 102.974 92.5116 102.974C93.3756 102.974 94.0116 102.842 94.4196 102.578C94.8396 102.302 95.0496 101.918 95.0496 101.426C95.0496 101.078 94.9356 100.808 94.7076 100.616C94.4796 100.412 94.1916 100.262 93.8436 100.166C93.4956 100.058 93.0336 99.956 92.4576 99.86C91.6896 99.716 91.0716 99.572 90.6036 99.428C90.1356 99.272 89.7336 99.014 89.3976 98.654C89.0736 98.294 88.9116 97.796 88.9116 97.16C88.9116 96.368 89.2416 95.72 89.9016 95.216C90.5616 94.712 91.4796 94.46 92.6556 94.46C93.2676 94.46 93.8796 94.544 94.4916 94.712C95.1036 94.868 95.6076 95.078 96.0036 95.342L95.4456 96.368C94.6656 95.828 93.7356 95.558 92.6556 95.558C91.8396 95.558 91.2216 95.702 90.8016 95.99C90.3936 96.278 90.1896 96.656 90.1896 97.124C90.1896 97.484 90.3036 97.772 90.5316 97.988C90.7716 98.204 91.0656 98.366 91.4136 98.474C91.7616 98.57 92.2416 98.672 92.8536 98.78C93.6096 98.924 94.2156 99.068 94.6716 99.212C95.1276 99.356 95.5176 99.602 95.8416 99.95C96.1656 100.298 96.3276 100.778 96.3276 101.39C96.3276 102.218 95.9796 102.878 95.2836 103.37C94.5996 103.85 93.6456 104.09 92.4216 104.09ZM98.8162 104.09C98.5522 104.09 98.3242 103.994 98.1322 103.802C97.9522 103.61 97.8622 103.376 97.8622 103.1C97.8622 102.824 97.9522 102.596 98.1322 102.416C98.3242 102.224 98.5522 102.128 98.8162 102.128C99.0802 102.128 99.3082 102.224 99.5002 102.416C99.6922 102.596 99.7882 102.824 99.7882 103.1C99.7882 103.376 99.6922 103.61 99.5002 103.802C99.3082 103.994 99.0802 104.09 98.8162 104.09ZM111.806 99.644V104H110.492V99.644L105.452 91.4H106.874L111.194 98.474L115.514 91.4H116.846L111.806 99.644ZM121.439 104.09C120.527 104.09 119.705 103.886 118.973 103.478C118.241 103.058 117.665 102.482 117.245 101.75C116.825 101.018 116.615 100.19 116.615 99.266C116.615 98.342 116.825 97.514 117.245 96.782C117.665 96.05 118.241 95.48 118.973 95.072C119.705 94.664 120.527 94.46 121.439 94.46C122.351 94.46 123.173 94.664 123.905 95.072C124.637 95.48 125.207 96.05 125.615 96.782C126.035 97.514 126.245 98.342 126.245 99.266C126.245 100.19 126.035 101.018 125.615 101.75C125.207 102.482 124.637 103.058 123.905 103.478C123.173 103.886 122.351 104.09 121.439 104.09ZM121.439 102.956C122.111 102.956 122.711 102.806 123.239 102.506C123.779 102.194 124.199 101.756 124.499 101.192C124.799 100.628 124.949 99.986 124.949 99.266C124.949 98.546 124.799 97.904 124.499 97.34C124.199 96.776 123.779 96.344 123.239 96.044C122.711 95.732 122.111 95.576 121.439 95.576C120.767 95.576 120.161 95.732 119.621 96.044C119.093 96.344 118.673 96.776 118.361 97.34C118.061 97.904 117.911 98.546 117.911 99.266C117.911 99.986 118.061 100.628 118.361 101.192C118.673 101.756 119.093 102.194 119.621 102.506C120.161 102.806 120.767 102.956 121.439 102.956ZM137.386 94.532V104H136.162V102.272C135.826 102.848 135.364 103.298 134.776 103.622C134.188 103.934 133.516 104.09 132.76 104.09C131.524 104.09 130.546 103.748 129.826 103.064C129.118 102.368 128.764 101.354 128.764 100.022V94.532H130.042V99.896C130.042 100.892 130.288 101.648 130.78 102.164C131.272 102.68 131.974 102.938 132.886 102.938C133.882 102.938 134.668 102.638 135.244 102.038C135.82 101.426 136.108 100.58 136.108 99.5V94.532H137.386ZM149.601 104.09C148.665 104.09 147.825 103.886 147.081 103.478C146.349 103.07 145.773 102.5 145.353 101.768C144.933 101.024 144.723 100.19 144.723 99.266C144.723 98.342 144.933 97.514 145.353 96.782C145.773 96.05 146.349 95.48 147.081 95.072C147.825 94.664 148.665 94.46 149.601 94.46C150.417 94.46 151.143 94.622 151.779 94.946C152.427 95.258 152.937 95.72 153.309 96.332L152.355 96.98C152.043 96.512 151.647 96.164 151.167 95.936C150.687 95.696 150.165 95.576 149.601 95.576C148.917 95.576 148.299 95.732 147.747 96.044C147.207 96.344 146.781 96.776 146.469 97.34C146.169 97.904 146.019 98.546 146.019 99.266C146.019 99.998 146.169 100.646 146.469 101.21C146.781 101.762 147.207 102.194 147.747 102.506C148.299 102.806 148.917 102.956 149.601 102.956C150.165 102.956 150.687 102.842 151.167 102.614C151.647 102.386 152.043 102.038 152.355 101.57L153.309 102.218C152.937 102.83 152.427 103.298 151.779 103.622C151.131 103.934 150.405 104.09 149.601 104.09ZM159.131 94.46C160.367 94.46 161.315 94.772 161.975 95.396C162.635 96.008 162.965 96.92 162.965 98.132V104H161.741V102.524C161.453 103.016 161.027 103.4 160.463 103.676C159.911 103.952 159.251 104.09 158.483 104.09C157.427 104.09 156.587 103.838 155.963 103.334C155.339 102.83 155.027 102.164 155.027 101.336C155.027 100.532 155.315 99.884 155.891 99.392C156.479 98.9 157.409 98.654 158.681 98.654H161.687V98.078C161.687 97.262 161.459 96.644 161.003 96.224C160.547 95.792 159.881 95.576 159.005 95.576C158.405 95.576 157.829 95.678 157.277 95.882C156.725 96.074 156.251 96.344 155.855 96.692L155.279 95.738C155.759 95.33 156.335 95.018 157.007 94.802C157.679 94.574 158.387 94.46 159.131 94.46ZM158.681 103.082C159.401 103.082 160.019 102.92 160.535 102.596C161.051 102.26 161.435 101.78 161.687 101.156V99.608H158.717C157.097 99.608 156.287 100.172 156.287 101.3C156.287 101.852 156.497 102.29 156.917 102.614C157.337 102.926 157.925 103.082 158.681 103.082ZM171.26 94.46C172.448 94.46 173.39 94.808 174.086 95.504C174.794 96.188 175.148 97.19 175.148 98.51V104H173.87V98.636C173.87 97.652 173.624 96.902 173.132 96.386C172.64 95.87 171.938 95.612 171.026 95.612C170.006 95.612 169.196 95.918 168.596 96.53C168.008 97.13 167.714 97.964 167.714 99.032V104H166.436V94.532H167.66V96.278C168.008 95.702 168.488 95.258 169.1 94.946C169.724 94.622 170.444 94.46 171.26 94.46ZM197.225 94.532L193.643 104H192.437L189.449 96.242L186.461 104H185.255L181.691 94.532H182.915L185.885 102.578L188.927 94.532H190.025L193.049 102.578L196.055 94.532H197.225ZM202.756 104.09C201.844 104.09 201.022 103.886 200.29 103.478C199.558 103.058 198.982 102.482 198.562 101.75C198.142 101.018 197.932 100.19 197.932 99.266C197.932 98.342 198.142 97.514 198.562 96.782C198.982 96.05 199.558 95.48 200.29 95.072C201.022 94.664 201.844 94.46 202.756 94.46C203.668 94.46 204.49 94.664 205.222 95.072C205.954 95.48 206.524 96.05 206.932 96.782C207.352 97.514 207.562 98.342 207.562 99.266C207.562 100.19 207.352 101.018 206.932 101.75C206.524 102.482 205.954 103.058 205.222 103.478C204.49 103.886 203.668 104.09 202.756 104.09ZM202.756 102.956C203.428 102.956 204.028 102.806 204.556 102.506C205.096 102.194 205.516 101.756 205.816 101.192C206.116 100.628 206.266 99.986 206.266 99.266C206.266 98.546 206.116 97.904 205.816 97.34C205.516 96.776 205.096 96.344 204.556 96.044C204.028 95.732 203.428 95.576 202.756 95.576C202.084 95.576 201.478 95.732 200.938 96.044C200.41 96.344 199.99 96.776 199.678 97.34C199.378 97.904 199.228 98.546 199.228 99.266C199.228 99.986 199.378 100.628 199.678 101.192C199.99 101.756 200.41 102.194 200.938 102.506C201.478 102.806 202.084 102.956 202.756 102.956ZM211.395 96.386C211.695 95.75 212.139 95.27 212.727 94.946C213.327 94.622 214.065 94.46 214.941 94.46V95.702L214.635 95.684C213.639 95.684 212.859 95.99 212.295 96.602C211.731 97.214 211.449 98.072 211.449 99.176V104H210.171V94.532H211.395V96.386ZM220.765 99.248L218.533 101.3V104H217.255V90.644H218.533V99.698L224.185 94.532H225.769L221.719 98.402L226.147 104H224.581L220.765 99.248ZM236.088 94.46C237.324 94.46 238.272 94.772 238.932 95.396C239.592 96.008 239.922 96.92 239.922 98.132V104H238.698V102.524C238.41 103.016 237.984 103.4 237.42 103.676C236.868 103.952 236.208 104.09 235.44 104.09C234.384 104.09 233.544 103.838 232.92 103.334C232.296 102.83 231.984 102.164 231.984 101.336C231.984 100.532 232.272 99.884 232.848 99.392C233.436 98.9 234.366 98.654 235.638 98.654H238.644V98.078C238.644 97.262 238.416 96.644 237.96 96.224C237.504 95.792 236.838 95.576 235.962 95.576C235.362 95.576 234.786 95.678 234.234 95.882C233.682 96.074 233.208 96.344 232.812 96.692L232.236 95.738C232.716 95.33 233.292 95.018 233.964 94.802C234.636 94.574 235.344 94.46 236.088 94.46ZM235.638 103.082C236.358 103.082 236.976 102.92 237.492 102.596C238.008 102.26 238.392 101.78 238.644 101.156V99.608H235.674C234.054 99.608 233.244 100.172 233.244 101.3C233.244 101.852 233.454 102.29 233.874 102.614C234.294 102.926 234.882 103.082 235.638 103.082ZM248.217 94.46C249.405 94.46 250.347 94.808 251.043 95.504C251.751 96.188 252.105 97.19 252.105 98.51V104H250.827V98.636C250.827 97.652 250.581 96.902 250.089 96.386C249.597 95.87 248.895 95.612 247.983 95.612C246.963 95.612 246.153 95.918 245.553 96.53C244.965 97.13 244.671 97.964 244.671 99.032V104H243.393V94.532H244.617V96.278C244.965 95.702 245.445 95.258 246.057 94.946C246.681 94.622 247.401 94.46 248.217 94.46ZM263.355 94.532L258.621 105.134C258.237 106.022 257.793 106.652 257.289 107.024C256.785 107.396 256.179 107.582 255.471 107.582C255.015 107.582 254.589 107.51 254.193 107.366C253.797 107.222 253.455 107.006 253.167 106.718L253.761 105.764C254.241 106.244 254.817 106.484 255.489 106.484C255.921 106.484 256.287 106.364 256.587 106.124C256.899 105.884 257.187 105.476 257.451 104.9L257.865 103.982L253.635 94.532H254.967L258.531 102.578L262.095 94.532H263.355ZM278.963 94.532L275.381 104H274.175L271.187 96.242L268.199 104H266.993L263.429 94.532H264.653L267.623 102.578L270.665 94.532H271.763L274.787 102.578L277.793 94.532H278.963ZM285.711 94.46C286.899 94.46 287.841 94.808 288.537 95.504C289.245 96.188 289.599 97.19 289.599 98.51V104H288.321V98.636C288.321 97.652 288.075 96.902 287.583 96.386C287.091 95.87 286.389 95.612 285.477 95.612C284.457 95.612 283.647 95.918 283.047 96.53C282.459 97.13 282.165 97.964 282.165 99.032V104H280.887V90.644H282.165V96.188C282.513 95.636 282.993 95.21 283.605 94.91C284.217 94.61 284.919 94.46 285.711 94.46ZM301.348 99.662H293.428C293.5 100.646 293.878 101.444 294.562 102.056C295.246 102.656 296.11 102.956 297.154 102.956C297.742 102.956 298.282 102.854 298.774 102.65C299.266 102.434 299.692 102.122 300.052 101.714L300.772 102.542C300.352 103.046 299.824 103.43 299.188 103.694C298.564 103.958 297.874 104.09 297.118 104.09C296.146 104.09 295.282 103.886 294.526 103.478C293.782 103.058 293.2 102.482 292.78 101.75C292.36 101.018 292.15 100.19 292.15 99.266C292.15 98.342 292.348 97.514 292.744 96.782C293.152 96.05 293.704 95.48 294.4 95.072C295.108 94.664 295.9 94.46 296.776 94.46C297.652 94.46 298.438 94.664 299.134 95.072C299.83 95.48 300.376 96.05 300.772 96.782C301.168 97.502 301.366 98.33 301.366 99.266L301.348 99.662ZM296.776 95.558C295.864 95.558 295.096 95.852 294.472 96.44C293.86 97.016 293.512 97.772 293.428 98.708H300.142C300.058 97.772 299.704 97.016 299.08 96.44C298.468 95.852 297.7 95.558 296.776 95.558ZM305.192 96.386C305.492 95.75 305.936 95.27 306.524 94.946C307.124 94.622 307.862 94.46 308.738 94.46V95.702L308.432 95.684C307.436 95.684 306.656 95.99 306.092 96.602C305.528 97.214 305.246 98.072 305.246 99.176V104H303.968V94.532H305.192V96.386ZM319.208 99.662H311.288C311.36 100.646 311.738 101.444 312.422 102.056C313.106 102.656 313.97 102.956 315.014 102.956C315.602 102.956 316.142 102.854 316.634 102.65C317.126 102.434 317.552 102.122 317.912 101.714L318.632 102.542C318.212 103.046 317.684 103.43 317.048 103.694C316.424 103.958 315.734 104.09 314.978 104.09C314.006 104.09 313.142 103.886 312.386 103.478C311.642 103.058 311.06 102.482 310.64 101.75C310.22 101.018 310.01 100.19 310.01 99.266C310.01 98.342 310.208 97.514 310.604 96.782C311.012 96.05 311.564 95.48 312.26 95.072C312.968 94.664 313.76 94.46 314.636 94.46C315.512 94.46 316.298 94.664 316.994 95.072C317.69 95.48 318.236 96.05 318.632 96.782C319.028 97.502 319.226 98.33 319.226 99.266L319.208 99.662ZM314.636 95.558C313.724 95.558 312.956 95.852 312.332 96.44C311.72 97.016 311.372 97.772 311.288 98.708H318.002C317.918 97.772 317.564 97.016 316.94 96.44C316.328 95.852 315.56 95.558 314.636 95.558ZM321.953 104.09C321.689 104.09 321.461 103.994 321.269 103.802C321.089 103.61 320.999 103.376 320.999 103.1C320.999 102.824 321.089 102.596 321.269 102.416C321.461 102.224 321.689 102.128 321.953 102.128C322.217 102.128 322.445 102.224 322.637 102.416C322.829 102.596 322.925 102.824 322.925 103.1C322.925 103.376 322.829 103.61 322.637 103.802C322.445 103.994 322.217 104.09 321.953 104.09Z" fill="#4F4F4F"/>
</svg>
