<svg width="57" height="12" viewBox="0 0 57 12" fill="none" xmlns="http://www.w3.org/2000/svg">
<path d="M0.675 5.63C0.675 4.07 1.19 2.77 2.22 1.73C3.25 0.689999 4.56 0.169999 6.15 0.169999C7.77 0.169999 9.08 0.654999 10.08 1.625L9.15 3.065C8.76 2.735 8.3 2.465 7.77 2.255C7.25 2.045 6.74 1.94 6.24 1.94C5.12 1.94 4.245 2.29 3.615 2.99C2.985 3.69 2.67 4.56 2.67 5.6C2.67 6.65 2.99 7.55 3.63 8.3C4.27 9.04 5.145 9.41 6.255 9.41C7.395 9.41 8.425 8.96 9.345 8.06L10.365 9.455C9.235 10.605 7.84 11.18 6.18 11.18C4.53 11.18 3.2 10.655 2.19 9.605C1.18 8.555 0.675 7.23 0.675 5.63ZM12.3462 10.055C11.5362 9.295 11.1312 8.335 11.1312 7.175C11.1312 6.015 11.5362 5.06 12.3462 4.31C13.1562 3.55 14.1462 3.17 15.3162 3.17C16.4962 3.17 17.4912 3.55 18.3012 4.31C19.1212 5.06 19.5312 6.015 19.5312 7.175C19.5312 8.335 19.1262 9.295 18.3162 10.055C17.5062 10.805 16.5112 11.18 15.3312 11.18C14.1512 11.18 13.1562 10.805 12.3462 10.055ZM13.0662 7.175C13.0662 7.875 13.2812 8.45 13.7112 8.9C14.1512 9.34 14.6912 9.56 15.3312 9.56C15.9712 9.56 16.5112 9.34 16.9512 8.9C17.3912 8.45 17.6112 7.875 17.6112 7.175C17.6112 6.485 17.3862 5.915 16.9362 5.465C16.4962 5.015 15.9612 4.79 15.3312 4.79C14.7012 4.79 14.1662 5.015 13.7262 5.465C13.2862 5.915 13.0662 6.485 13.0662 7.175ZM21.103 11V3.35H22.933V4.25L22.903 4.79H22.933C23.133 4.38 23.463 4.01 23.923 3.68C24.383 3.34 24.958 3.17 25.648 3.17C27.428 3.17 28.318 4.14 28.318 6.08V11H26.413V6.47C26.413 5.96 26.323 5.575 26.143 5.315C25.973 5.045 25.663 4.91 25.213 4.91C24.553 4.91 24.018 5.15 23.608 5.63C23.208 6.11 23.008 6.705 23.008 7.415V11H21.103ZM30.6626 8.195V4.97H29.6726V3.455H30.7076V1.265H32.5676V3.455H34.3076V4.97H32.5676V7.955C32.5676 8.505 32.7226 8.885 33.0326 9.095C33.3526 9.295 33.7026 9.395 34.0826 9.395C34.2126 9.395 34.3276 9.385 34.4276 9.365V11.03C34.1276 11.06 33.9326 11.075 33.8426 11.075C33.5826 11.075 33.3326 11.055 33.0926 11.015C32.8526 10.985 32.5776 10.91 32.2676 10.79C31.9576 10.67 31.6876 10.515 31.4576 10.325C31.2376 10.125 31.0476 9.845 30.8876 9.485C30.7376 9.115 30.6626 8.685 30.6626 8.195ZM35.2983 8.885C35.2983 8.345 35.4433 7.885 35.7333 7.505C36.0333 7.125 36.4233 6.85 36.9033 6.68C37.3933 6.5 37.8633 6.375 38.3133 6.305C38.7733 6.235 39.2533 6.2 39.7533 6.2H40.0833V6.095C40.0833 5.195 39.6033 4.745 38.6433 4.745C37.9433 4.745 37.2333 4.99 36.5133 5.48L35.8083 4.115C36.1383 3.855 36.5833 3.635 37.1433 3.455C37.7033 3.265 38.2583 3.17 38.8083 3.17C39.8083 3.17 40.5883 3.44 41.1483 3.98C41.7083 4.51 41.9883 5.255 41.9883 6.215V11H40.2183V10.355L40.2633 9.8H40.2333C39.9933 10.21 39.6583 10.545 39.2283 10.805C38.7983 11.055 38.3283 11.18 37.8183 11.18C37.1083 11.18 36.5083 10.97 36.0183 10.55C35.5383 10.12 35.2983 9.565 35.2983 8.885ZM37.1883 8.72C37.1883 8.99 37.2883 9.225 37.4883 9.425C37.6983 9.625 37.9833 9.725 38.3433 9.725C38.8533 9.725 39.2733 9.515 39.6033 9.095C39.9333 8.675 40.0983 8.215 40.0983 7.715V7.505H39.7683C38.0483 7.505 37.1883 7.91 37.1883 8.72ZM43.4749 7.175C43.4749 6.055 43.8549 5.11 44.6149 4.34C45.3849 3.56 46.3899 3.17 47.6299 3.17C48.1799 3.17 48.7199 3.265 49.2499 3.455C49.7799 3.645 50.2199 3.93 50.5699 4.31L49.7149 5.615C49.1649 5.065 48.5049 4.79 47.7349 4.79C47.0449 4.79 46.4849 5.02 46.0549 5.48C45.6249 5.93 45.4099 6.49 45.4099 7.16C45.4099 7.83 45.6299 8.4 46.0699 8.87C46.5099 9.33 47.0849 9.56 47.7949 9.56C48.6249 9.56 49.3749 9.235 50.0449 8.585L50.7799 9.935C50.4199 10.315 49.9549 10.62 49.3849 10.85C48.8249 11.07 48.2399 11.18 47.6299 11.18C46.3899 11.18 45.3849 10.8 44.6149 10.04C43.8549 9.27 43.4749 8.315 43.4749 7.175ZM52.5327 8.195V4.97H51.5427V3.455H52.5777V1.265H54.4377V3.455H56.1777V4.97H54.4377V7.955C54.4377 8.505 54.5927 8.885 54.9027 9.095C55.2227 9.295 55.5727 9.395 55.9527 9.395C56.0827 9.395 56.1977 9.385 56.2977 9.365V11.03C55.9977 11.06 55.8027 11.075 55.7127 11.075C55.4527 11.075 55.2027 11.055 54.9627 11.015C54.7227 10.985 54.4477 10.91 54.1377 10.79C53.8277 10.67 53.5577 10.515 53.3277 10.325C53.1077 10.125 52.9177 9.845 52.7577 9.485C52.6077 9.115 52.5327 8.685 52.5327 8.195Z" fill="#333333"/>
</svg>
