<svg width="18" height="11" viewBox="0 0 18 11" fill="none" xmlns="http://www.w3.org/2000/svg">
<path d="M0.29 11V0.349999H6.665V2.015H2.225V4.805H5.81V6.47H2.225V9.335H6.905V11H0.29ZM8.81539 11V0.349999H10.7504L14.7854 6.5C14.9054 6.69 15.0354 6.925 15.1754 7.205C15.3254 7.475 15.4454 7.7 15.5354 7.88L15.6704 8.15H15.7004C15.6304 7.47 15.5954 6.92 15.5954 6.5V0.349999H17.5154V11H15.5954L11.5604 4.865C11.4404 4.675 11.3054 4.445 11.1554 4.175C11.0154 3.895 10.9004 3.665 10.8104 3.485L10.6754 3.215H10.6454C10.7154 3.895 10.7504 4.445 10.7504 4.865V11H8.81539Z" fill="#333333"/>
</svg>
