<svg width="167" height="40" viewBox="0 0 167 40" fill="none" xmlns="http://www.w3.org/2000/svg">
<rect width="167" height="40" rx="20" fill="#6248FF"/>
<path d="M24.49 23.81L25.47 22.452C25.7967 22.7413 26.1793 22.9887 26.618 23.194C27.066 23.3993 27.5047 23.502 27.934 23.502C28.382 23.502 28.7367 23.3993 28.998 23.194C29.2593 22.9793 29.39 22.704 29.39 22.368C29.39 22.0227 29.2313 21.724 28.914 21.472C28.5967 21.22 28.2093 21.0007 27.752 20.814C27.304 20.6273 26.8513 20.422 26.394 20.198C25.9367 19.974 25.5493 19.6567 25.232 19.246C24.9147 18.8353 24.756 18.3453 24.756 17.776C24.756 16.9173 25.0733 16.222 25.708 15.69C26.352 15.158 27.164 14.892 28.144 14.892C29.3107 14.892 30.2813 15.2467 31.056 15.956L30.258 17.426C29.978 17.174 29.6373 16.9687 29.236 16.81C28.844 16.642 28.4567 16.558 28.074 16.558C27.6167 16.558 27.248 16.6607 26.968 16.866C26.6973 17.0713 26.562 17.3467 26.562 17.692C26.562 18.028 26.7207 18.3173 27.038 18.56C27.3553 18.8027 27.738 19.0127 28.186 19.19C28.6433 19.3673 29.1007 19.568 29.558 19.792C30.0153 20.0067 30.4027 20.3193 30.72 20.73C31.0373 21.1407 31.196 21.64 31.196 22.228C31.196 23.068 30.902 23.768 30.314 24.328C29.726 24.888 28.9187 25.168 27.892 25.168C27.2573 25.168 26.6413 25.0513 26.044 24.818C25.4467 24.5847 24.9287 24.2487 24.49 23.81ZM32.997 25V15.06H34.803V25H32.997ZM36.6339 20.016C36.6339 18.5693 37.1192 17.356 38.0899 16.376C39.0699 15.3867 40.2926 14.892 41.7579 14.892C43.2512 14.892 44.4832 15.312 45.4539 16.152L44.5579 17.496C44.2499 17.216 43.8486 16.9873 43.3539 16.81C42.8592 16.6327 42.3786 16.544 41.9119 16.544C40.8386 16.544 39.9986 16.8707 39.3919 17.524C38.7946 18.1773 38.4959 18.9893 38.4959 19.96C38.4959 21.0147 38.8132 21.8733 39.4479 22.536C40.0826 23.1893 40.8759 23.516 41.8279 23.516C42.7706 23.516 43.6012 23.1707 44.3199 22.48V21.318H42.7939V19.764H45.9439V25H44.4039V24.524L44.4179 24.104H44.3899C44.0632 24.4213 43.6386 24.678 43.1159 24.874C42.6026 25.07 42.0659 25.168 41.5059 25.168C40.1526 25.168 38.9999 24.692 38.0479 23.74C37.1052 22.7787 36.6339 21.5373 36.6339 20.016ZM47.9267 25V15.06H49.7327L53.4987 20.8C53.6107 20.9773 53.732 21.1967 53.8627 21.458C54.0027 21.71 54.1147 21.92 54.1987 22.088L54.3247 22.34H54.3527C54.2873 21.7053 54.2547 21.192 54.2547 20.8V15.06H56.0467V25H54.2547L50.4887 19.274C50.3767 19.0967 50.2507 18.882 50.1107 18.63C49.98 18.3687 49.8727 18.154 49.7887 17.986L49.6627 17.734H49.6347C49.7 18.3687 49.7327 18.882 49.7327 19.274V25H47.9267ZM61.9677 25V15.06H63.7737V25H61.9677ZM66.1786 25V15.06H67.9846L71.7506 20.8C71.8626 20.9773 71.9839 21.1967 72.1146 21.458C72.2546 21.71 72.3666 21.92 72.4506 22.088L72.5766 22.34H72.6046C72.5393 21.7053 72.5066 21.192 72.5066 20.8V15.06H74.2986V25H72.5066L68.7406 19.274C68.6286 19.0967 68.5026 18.882 68.3626 18.63C68.2319 18.3687 68.1246 18.154 68.0406 17.986L67.9146 17.734H67.8866C67.9519 18.3687 67.9846 18.882 67.9846 19.274V25H66.1786ZM80.2196 25V15.06H85.9316V16.614H82.0256V19.428H85.3156V20.982H82.0256V25H80.2196ZM86.864 19.96C86.864 18.5227 87.3447 17.3187 88.306 16.348C89.2767 15.3773 90.5087 14.892 92.002 14.892C93.4954 14.892 94.7227 15.3773 95.684 16.348C96.6547 17.3187 97.14 18.5227 97.14 19.96C97.14 21.4347 96.6547 22.6713 95.684 23.67C94.7227 24.6687 93.4954 25.168 92.002 25.168C90.5087 25.168 89.2767 24.6687 88.306 23.67C87.3447 22.6713 86.864 21.4347 86.864 19.96ZM88.726 19.96C88.726 20.9773 89.034 21.8267 89.65 22.508C90.2754 23.18 91.0594 23.516 92.002 23.516C92.9447 23.516 93.724 23.18 94.34 22.508C94.9654 21.8267 95.278 20.9773 95.278 19.96C95.278 18.9893 94.9654 18.1773 94.34 17.524C93.724 16.8707 92.9447 16.544 92.002 16.544C91.0594 16.544 90.2754 16.8707 89.65 17.524C89.034 18.1773 88.726 18.9893 88.726 19.96ZM98.9638 25V15.06H102.24C103.08 15.06 103.705 15.1487 104.116 15.326C104.638 15.5407 105.049 15.8813 105.348 16.348C105.646 16.8147 105.796 17.3793 105.796 18.042C105.796 18.6487 105.646 19.204 105.348 19.708C105.049 20.2027 104.643 20.5527 104.13 20.758V20.786C104.214 20.8887 104.321 21.0613 104.452 21.304L106.496 25H104.466L102.506 21.29H100.77V25H98.9638ZM100.77 19.722H102.394C102.879 19.722 103.262 19.582 103.542 19.302C103.822 19.0127 103.962 18.6253 103.962 18.14C103.962 17.4493 103.7 16.9967 103.178 16.782C102.926 16.67 102.562 16.614 102.086 16.614H100.77V19.722ZM111.419 25V15.06H117.131V16.614H113.225V19.428H116.515V20.982H113.225V25H111.419ZM118.747 25V15.06H122.023C122.863 15.06 123.488 15.1487 123.899 15.326C124.422 15.5407 124.832 15.8813 125.131 16.348C125.43 16.8147 125.579 17.3793 125.579 18.042C125.579 18.6487 125.43 19.204 125.131 19.708C124.832 20.2027 124.426 20.5527 123.913 20.758V20.786C123.997 20.8887 124.104 21.0613 124.235 21.304L126.279 25H124.249L122.289 21.29H120.553V25H118.747ZM120.553 19.722H122.177C122.662 19.722 123.045 19.582 123.325 19.302C123.605 19.0127 123.745 18.6253 123.745 18.14C123.745 17.4493 123.484 16.9967 122.961 16.782C122.709 16.67 122.345 16.614 121.869 16.614H120.553V19.722ZM127.702 25V15.06H133.652V16.614H129.508V19.218H132.854V20.772H129.508V23.446H133.876V25H127.702ZM135.659 25V15.06H141.609V16.614H137.465V19.218H140.811V20.772H137.465V23.446H141.833V25H135.659Z" fill="white"/>
</svg>
