<svg width="91" height="12" viewBox="0 0 91 12" fill="none" xmlns="http://www.w3.org/2000/svg">
<path d="M0.29 11V0.349999H2.225V4.865H7.1V0.349999H9.02V11H7.1V6.53H2.225V11H0.29ZM11.9175 10.055C11.1075 9.295 10.7025 8.335 10.7025 7.175C10.7025 6.015 11.1075 5.06 11.9175 4.31C12.7275 3.55 13.7175 3.17 14.8875 3.17C16.0675 3.17 17.0625 3.55 17.8725 4.31C18.6925 5.06 19.1025 6.015 19.1025 7.175C19.1025 8.335 18.6975 9.295 17.8875 10.055C17.0775 10.805 16.0825 11.18 14.9025 11.18C13.7225 11.18 12.7275 10.805 11.9175 10.055ZM12.6375 7.175C12.6375 7.875 12.8525 8.45 13.2825 8.9C13.7225 9.34 14.2625 9.56 14.9025 9.56C15.5425 9.56 16.0825 9.34 16.5225 8.9C16.9625 8.45 17.1825 7.875 17.1825 7.175C17.1825 6.485 16.9575 5.915 16.5075 5.465C16.0675 5.015 15.5325 4.79 14.9025 4.79C14.2725 4.79 13.7375 5.015 13.2975 5.465C12.8575 5.915 12.6375 6.485 12.6375 7.175ZM22.1032 11L19.7782 3.35H21.7882L23.1232 8.375L23.2732 9.185H23.3032C23.3532 8.915 23.4132 8.645 23.4832 8.375L24.8932 3.365H26.5882L27.9982 8.375L28.1632 9.185H28.1932C28.2232 8.915 28.2782 8.645 28.3582 8.375L29.6932 3.35H31.6732L29.3482 11H27.2332L25.9432 6.635L25.7482 5.81H25.7182C25.6682 6.09 25.6082 6.365 25.5382 6.635L24.2332 11H22.1032ZM36.3774 2.045V0.349999H38.2824V2.045H36.3774ZM36.3774 11V3.35H38.2824V11H36.3774ZM40.6929 8.195V4.97H39.7029V3.455H40.7379V1.265H42.5979V3.455H44.3379V4.97H42.5979V7.955C42.5979 8.505 42.7529 8.885 43.0629 9.095C43.3829 9.295 43.7329 9.395 44.1129 9.395C44.2429 9.395 44.3579 9.385 44.4579 9.365V11.03C44.1579 11.06 43.9629 11.075 43.8729 11.075C43.6129 11.075 43.3629 11.055 43.1229 11.015C42.8829 10.985 42.6079 10.91 42.2979 10.79C41.9879 10.67 41.7179 10.515 41.4879 10.325C41.2679 10.125 41.0779 9.845 40.9179 9.485C40.7679 9.115 40.6929 8.685 40.6929 8.195ZM50.902 11L48.577 3.35H50.587L51.922 8.375L52.072 9.185H52.102C52.152 8.915 52.212 8.645 52.282 8.375L53.692 3.365H55.387L56.797 8.375L56.962 9.185H56.992C57.022 8.915 57.077 8.645 57.157 8.375L58.492 3.35H60.472L58.147 11H56.032L54.742 6.635L54.547 5.81H54.517C54.467 6.09 54.407 6.365 54.337 6.635L53.032 11H50.902ZM62.3667 10.055C61.5567 9.295 61.1517 8.335 61.1517 7.175C61.1517 6.015 61.5567 5.06 62.3667 4.31C63.1767 3.55 64.1667 3.17 65.3367 3.17C66.5167 3.17 67.5117 3.55 68.3217 4.31C69.1417 5.06 69.5517 6.015 69.5517 7.175C69.5517 8.335 69.1467 9.295 68.3367 10.055C67.5267 10.805 66.5317 11.18 65.3517 11.18C64.1717 11.18 63.1767 10.805 62.3667 10.055ZM63.0867 7.175C63.0867 7.875 63.3017 8.45 63.7317 8.9C64.1717 9.34 64.7117 9.56 65.3517 9.56C65.9917 9.56 66.5317 9.34 66.9717 8.9C67.4117 8.45 67.6317 7.875 67.6317 7.175C67.6317 6.485 67.4067 5.915 66.9567 5.465C66.5167 5.015 65.9817 4.79 65.3517 4.79C64.7217 4.79 64.1867 5.015 63.7467 5.465C63.3067 5.915 63.0867 6.485 63.0867 7.175ZM71.1235 11V3.35H72.9535V4.7L72.9235 5.225H72.9535C73.1335 4.665 73.4435 4.195 73.8835 3.815C74.3235 3.435 74.8235 3.245 75.3835 3.245C75.4635 3.245 75.5835 3.255 75.7435 3.275V5.15C75.6435 5.13 75.4885 5.12 75.2785 5.12C74.5385 5.12 73.9785 5.39 73.5985 5.93C73.2185 6.47 73.0285 7.13 73.0285 7.91V11H71.1235ZM77.0708 11V0.349999H78.9758V6.05H79.9208L81.7658 3.35H83.8808L81.4658 6.77V6.8L84.1808 11H81.9908L79.9658 7.655H78.9758V11H77.0708ZM84.6882 10.055L85.5432 8.795C86.1532 9.355 86.8782 9.635 87.7182 9.635C88.0582 9.635 88.3182 9.57 88.4982 9.44C88.6882 9.3 88.7832 9.11 88.7832 8.87C88.7832 8.65 88.6532 8.46 88.3932 8.3C88.1332 8.14 87.8182 7.995 87.4482 7.865C87.0782 7.735 86.7032 7.585 86.3232 7.415C85.9532 7.235 85.6382 6.98 85.3782 6.65C85.1182 6.32 84.9882 5.925 84.9882 5.465C84.9882 4.745 85.2632 4.185 85.8132 3.785C86.3732 3.375 87.0732 3.17 87.9132 3.17C88.9732 3.17 89.8332 3.46 90.4932 4.04L89.7882 5.375C89.5682 5.185 89.2732 5.03 88.9032 4.91C88.5432 4.78 88.1932 4.715 87.8532 4.715C87.1432 4.715 86.7882 4.96 86.7882 5.45C86.7882 5.67 86.9182 5.86 87.1782 6.02C87.4382 6.18 87.7532 6.325 88.1232 6.455C88.5032 6.585 88.8782 6.735 89.2482 6.905C89.6182 7.065 89.9332 7.31 90.1932 7.64C90.4532 7.97 90.5832 8.365 90.5832 8.825C90.5832 9.505 90.3182 10.07 89.7882 10.52C89.2582 10.96 88.5582 11.18 87.6882 11.18C86.4682 11.18 85.4682 10.805 84.6882 10.055Z" fill="#333333"/>
</svg>
