<svg width="83" height="12" viewBox="0 0 83 12" fill="none" xmlns="http://www.w3.org/2000/svg">
<path d="M0.29 11V0.349999H2.225V11H0.29ZM4.44383 11V3.35H6.27383V4.25L6.24383 4.79H6.27383C6.47383 4.38 6.80383 4.01 7.26383 3.68C7.72383 3.34 8.29883 3.17 8.98883 3.17C10.7688 3.17 11.6588 4.14 11.6588 6.08V11H9.75383V6.47C9.75383 5.96 9.66383 5.575 9.48383 5.315C9.31383 5.045 9.00383 4.91 8.55383 4.91C7.89383 4.91 7.35883 5.15 6.94883 5.63C6.54883 6.11 6.34883 6.705 6.34883 7.415V11H4.44383ZM13.0134 10.055L13.8684 8.795C14.4784 9.355 15.2034 9.635 16.0434 9.635C16.3834 9.635 16.6434 9.57 16.8234 9.44C17.0134 9.3 17.1084 9.11 17.1084 8.87C17.1084 8.65 16.9784 8.46 16.7184 8.3C16.4584 8.14 16.1434 7.995 15.7734 7.865C15.4034 7.735 15.0284 7.585 14.6484 7.415C14.2784 7.235 13.9634 6.98 13.7034 6.65C13.4434 6.32 13.3134 5.925 13.3134 5.465C13.3134 4.745 13.5884 4.185 14.1384 3.785C14.6984 3.375 15.3984 3.17 16.2384 3.17C17.2984 3.17 18.1584 3.46 18.8184 4.04L18.1134 5.375C17.8934 5.185 17.5984 5.03 17.2284 4.91C16.8684 4.78 16.5184 4.715 16.1784 4.715C15.4684 4.715 15.1134 4.96 15.1134 5.45C15.1134 5.67 15.2434 5.86 15.5034 6.02C15.7634 6.18 16.0784 6.325 16.4484 6.455C16.8284 6.585 17.2034 6.735 17.5734 6.905C17.9434 7.065 18.2584 7.31 18.5184 7.64C18.7784 7.97 18.9084 8.365 18.9084 8.825C18.9084 9.505 18.6434 10.07 18.1134 10.52C17.5834 10.96 16.8834 11.18 16.0134 11.18C14.7934 11.18 13.7934 10.805 13.0134 10.055ZM20.8589 8.195V4.97H19.8689V3.455H20.9039V1.265H22.7639V3.455H24.5039V4.97H22.7639V7.955C22.7639 8.505 22.9189 8.885 23.2289 9.095C23.5489 9.295 23.8989 9.395 24.2789 9.395C24.4089 9.395 24.5239 9.385 24.6239 9.365V11.03C24.3239 11.06 24.1289 11.075 24.0389 11.075C23.7789 11.075 23.5289 11.055 23.2889 11.015C23.0489 10.985 22.7739 10.91 22.4639 10.79C22.1539 10.67 21.8839 10.515 21.6539 10.325C21.4339 10.125 21.2439 9.845 21.0839 9.485C20.9339 9.115 20.8589 8.685 20.8589 8.195ZM26.0796 11V3.35H27.9096V4.7L27.8796 5.225H27.9096C28.0896 4.665 28.3996 4.195 28.8396 3.815C29.2796 3.435 29.7796 3.245 30.3396 3.245C30.4196 3.245 30.5396 3.255 30.6996 3.275V5.15C30.5996 5.13 30.4446 5.12 30.2346 5.12C29.4946 5.12 28.9346 5.39 28.5546 5.93C28.1746 6.47 27.9846 7.13 27.9846 7.91V11H26.0796ZM31.9518 8.27V3.35H33.8568V7.88C33.8568 8.39 33.9418 8.78 34.1118 9.05C34.2918 9.31 34.6018 9.44 35.0418 9.44C35.7018 9.44 36.2218 9.19 36.6018 8.69C36.9918 8.19 37.1868 7.58 37.1868 6.86V3.35H39.0768V11H37.2468V10.1L37.2918 9.575H37.2618C37.0618 10.005 36.7218 10.38 36.2418 10.7C35.7618 11.02 35.2168 11.18 34.6068 11.18C32.8368 11.18 31.9518 10.21 31.9518 8.27ZM40.6732 7.175C40.6732 6.055 41.0532 5.11 41.8132 4.34C42.5832 3.56 43.5882 3.17 44.8282 3.17C45.3782 3.17 45.9182 3.265 46.4482 3.455C46.9782 3.645 47.4182 3.93 47.7682 4.31L46.9132 5.615C46.3632 5.065 45.7032 4.79 44.9332 4.79C44.2432 4.79 43.6832 5.02 43.2532 5.48C42.8232 5.93 42.6082 6.49 42.6082 7.16C42.6082 7.83 42.8282 8.4 43.2682 8.87C43.7082 9.33 44.2832 9.56 44.9932 9.56C45.8232 9.56 46.5732 9.235 47.2432 8.585L47.9782 9.935C47.6182 10.315 47.1532 10.62 46.5832 10.85C46.0232 11.07 45.4382 11.18 44.8282 11.18C43.5882 11.18 42.5832 10.8 41.8132 10.04C41.0532 9.27 40.6732 8.315 40.6732 7.175ZM49.7309 8.195V4.97H48.7409V3.455H49.7759V1.265H51.6359V3.455H53.3759V4.97H51.6359V7.955C51.6359 8.505 51.7909 8.885 52.1009 9.095C52.4209 9.295 52.7709 9.395 53.1509 9.395C53.2809 9.395 53.3959 9.385 53.4959 9.365V11.03C53.1959 11.06 53.0009 11.075 52.9109 11.075C52.6509 11.075 52.4009 11.055 52.1609 11.015C51.9209 10.985 51.6459 10.91 51.3359 10.79C51.0259 10.67 50.7559 10.515 50.5259 10.325C50.3059 10.125 50.1159 9.845 49.9559 9.485C49.8059 9.115 49.7309 8.685 49.7309 8.195ZM54.9516 2.045V0.349999H56.8566V2.045H54.9516ZM54.9516 11V3.35H56.8566V11H54.9516ZM59.6421 10.055C58.8321 9.295 58.4271 8.335 58.4271 7.175C58.4271 6.015 58.8321 5.06 59.6421 4.31C60.4521 3.55 61.4421 3.17 62.6121 3.17C63.7921 3.17 64.7871 3.55 65.5971 4.31C66.4171 5.06 66.8271 6.015 66.8271 7.175C66.8271 8.335 66.4221 9.295 65.6121 10.055C64.8021 10.805 63.8071 11.18 62.6271 11.18C61.4471 11.18 60.4521 10.805 59.6421 10.055ZM60.3621 7.175C60.3621 7.875 60.5771 8.45 61.0071 8.9C61.4471 9.34 61.9871 9.56 62.6271 9.56C63.2671 9.56 63.8071 9.34 64.2471 8.9C64.6871 8.45 64.9071 7.875 64.9071 7.175C64.9071 6.485 64.6821 5.915 64.2321 5.465C63.7921 5.015 63.2571 4.79 62.6271 4.79C61.9971 4.79 61.4621 5.015 61.0221 5.465C60.5821 5.915 60.3621 6.485 60.3621 7.175ZM68.3989 11V3.35H70.2289V4.25L70.1989 4.79H70.2289C70.4289 4.38 70.7589 4.01 71.2189 3.68C71.6789 3.34 72.2539 3.17 72.9439 3.17C74.7239 3.17 75.6139 4.14 75.6139 6.08V11H73.7089V6.47C73.7089 5.96 73.6189 5.575 73.4389 5.315C73.2689 5.045 72.9589 4.91 72.5089 4.91C71.8489 4.91 71.3139 5.15 70.9039 5.63C70.5039 6.11 70.3039 6.705 70.3039 7.415V11H68.3989ZM76.9685 10.055L77.8235 8.795C78.4335 9.355 79.1585 9.635 79.9985 9.635C80.3385 9.635 80.5985 9.57 80.7785 9.44C80.9685 9.3 81.0635 9.11 81.0635 8.87C81.0635 8.65 80.9335 8.46 80.6735 8.3C80.4135 8.14 80.0985 7.995 79.7285 7.865C79.3585 7.735 78.9835 7.585 78.6035 7.415C78.2335 7.235 77.9185 6.98 77.6585 6.65C77.3985 6.32 77.2685 5.925 77.2685 5.465C77.2685 4.745 77.5435 4.185 78.0935 3.785C78.6535 3.375 79.3535 3.17 80.1935 3.17C81.2535 3.17 82.1135 3.46 82.7735 4.04L82.0685 5.375C81.8485 5.185 81.5535 5.03 81.1835 4.91C80.8235 4.78 80.4735 4.715 80.1335 4.715C79.4235 4.715 79.0685 4.96 79.0685 5.45C79.0685 5.67 79.1985 5.86 79.4585 6.02C79.7185 6.18 80.0335 6.325 80.4035 6.455C80.7835 6.585 81.1585 6.735 81.5285 6.905C81.8985 7.065 82.2135 7.31 82.4735 7.64C82.7335 7.97 82.8635 8.365 82.8635 8.825C82.8635 9.505 82.5985 10.07 82.0685 10.52C81.5385 10.96 80.8385 11.18 79.9685 11.18C78.7485 11.18 77.7485 10.805 76.9685 10.055Z" fill="#333333"/>
</svg>
