<svg width="67" height="12" viewBox="0 0 67 12" fill="none" xmlns="http://www.w3.org/2000/svg">
<path d="M0.29 11V0.349999H4.4C5.4 0.349999 6.215 0.669999 6.845 1.31C7.475 1.95 7.79 2.785 7.79 3.815C7.79 4.845 7.475 5.69 6.845 6.35C6.215 7 5.4 7.325 4.4 7.325H2.225V11H0.29ZM2.225 5.645H4.04C4.6 5.645 5.035 5.48 5.345 5.15C5.665 4.82 5.825 4.375 5.825 3.815C5.825 3.265 5.665 2.83 5.345 2.51C5.035 2.18 4.61 2.015 4.07 2.015H2.225V5.645ZM9.24852 8.615V0.349999H11.1385V8.33C11.1385 8.73 11.1985 9.005 11.3185 9.155C11.4485 9.305 11.6485 9.38 11.9185 9.38C12.0385 9.38 12.1335 9.375 12.2035 9.365V11.03C11.9335 11.06 11.7335 11.075 11.6035 11.075C11.2935 11.075 11.0185 11.05 10.7785 11C10.5385 10.94 10.2935 10.835 10.0435 10.685C9.79352 10.525 9.59852 10.27 9.45852 9.92C9.31852 9.57 9.24852 9.135 9.24852 8.615ZM12.9995 8.885C12.9995 8.345 13.1445 7.885 13.4345 7.505C13.7345 7.125 14.1245 6.85 14.6045 6.68C15.0945 6.5 15.5645 6.375 16.0145 6.305C16.4745 6.235 16.9545 6.2 17.4545 6.2H17.7845V6.095C17.7845 5.195 17.3045 4.745 16.3445 4.745C15.6445 4.745 14.9345 4.99 14.2145 5.48L13.5095 4.115C13.8395 3.855 14.2845 3.635 14.8445 3.455C15.4045 3.265 15.9595 3.17 16.5095 3.17C17.5095 3.17 18.2895 3.44 18.8495 3.98C19.4095 4.51 19.6895 5.255 19.6895 6.215V11H17.9195V10.355L17.9645 9.8H17.9345C17.6945 10.21 17.3595 10.545 16.9295 10.805C16.4995 11.055 16.0295 11.18 15.5195 11.18C14.8095 11.18 14.2095 10.97 13.7195 10.55C13.2395 10.12 12.9995 9.565 12.9995 8.885ZM14.8895 8.72C14.8895 8.99 14.9895 9.225 15.1895 9.425C15.3995 9.625 15.6845 9.725 16.0445 9.725C16.5545 9.725 16.9745 9.515 17.3045 9.095C17.6345 8.675 17.7995 8.215 17.7995 7.715V7.505H17.4695C15.7495 7.505 14.8895 7.91 14.8895 8.72ZM22.0161 8.195V4.97H21.0261V3.455H22.0611V1.265H23.9211V3.455H25.6611V4.97H23.9211V7.955C23.9211 8.505 24.0761 8.885 24.3861 9.095C24.7061 9.295 25.0561 9.395 25.4361 9.395C25.5661 9.395 25.6811 9.385 25.7811 9.365V11.03C25.4811 11.06 25.2861 11.075 25.1961 11.075C24.9361 11.075 24.6861 11.055 24.4461 11.015C24.2061 10.985 23.9311 10.91 23.6211 10.79C23.3111 10.67 23.0411 10.515 22.8111 10.325C22.5911 10.125 22.4011 9.845 22.2411 9.485C22.0911 9.115 22.0161 8.685 22.0161 8.195ZM27.6718 11V4.97H26.7268V3.455H27.6718V3.125C27.6718 2.645 27.7468 2.23 27.8968 1.88C28.0568 1.52 28.2468 1.245 28.4668 1.055C28.6868 0.854999 28.9468 0.694999 29.2468 0.574999C29.5568 0.455 29.8318 0.38 30.0718 0.349999C30.3118 0.309999 30.5568 0.289999 30.8068 0.289999C31.0868 0.289999 31.3018 0.304999 31.4518 0.335V1.955C31.3718 1.935 31.2418 1.925 31.0618 1.925C30.0718 1.925 29.5768 2.34 29.5768 3.17V3.455H31.2268V4.97H29.5768V11H27.6718ZM33.1723 10.055C32.3623 9.295 31.9573 8.335 31.9573 7.175C31.9573 6.015 32.3623 5.06 33.1723 4.31C33.9823 3.55 34.9723 3.17 36.1423 3.17C37.3223 3.17 38.3173 3.55 39.1273 4.31C39.9473 5.06 40.3573 6.015 40.3573 7.175C40.3573 8.335 39.9523 9.295 39.1423 10.055C38.3323 10.805 37.3373 11.18 36.1573 11.18C34.9773 11.18 33.9823 10.805 33.1723 10.055ZM33.8923 7.175C33.8923 7.875 34.1073 8.45 34.5373 8.9C34.9773 9.34 35.5173 9.56 36.1573 9.56C36.7973 9.56 37.3373 9.34 37.7773 8.9C38.2173 8.45 38.4373 7.875 38.4373 7.175C38.4373 6.485 38.2123 5.915 37.7623 5.465C37.3223 5.015 36.7873 4.79 36.1573 4.79C35.5273 4.79 34.9923 5.015 34.5523 5.465C34.1123 5.915 33.8923 6.485 33.8923 7.175ZM41.9292 11V3.35H43.7592V4.7L43.7292 5.225H43.7592C43.9392 4.665 44.2492 4.195 44.6892 3.815C45.1292 3.435 45.6292 3.245 46.1892 3.245C46.2692 3.245 46.3892 3.255 46.5492 3.275V5.15C46.4492 5.13 46.2942 5.12 46.0842 5.12C45.3442 5.12 44.7842 5.39 44.4042 5.93C44.0242 6.47 43.8342 7.13 43.8342 7.91V11H41.9292ZM47.8764 11V3.35H49.7064V4.25L49.6764 4.79H49.7064C49.9064 4.37 50.2314 3.995 50.6814 3.665C51.1414 3.335 51.6514 3.17 52.2114 3.17C53.3714 3.17 54.1114 3.695 54.4314 4.745H54.4614C54.6914 4.315 55.0414 3.945 55.5114 3.635C55.9814 3.325 56.5014 3.17 57.0714 3.17C58.7414 3.17 59.5764 4.14 59.5764 6.08V11H57.6864V6.44C57.6864 5.95 57.6114 5.575 57.4614 5.315C57.3114 5.045 57.0364 4.91 56.6364 4.91C56.0164 4.91 55.5364 5.175 55.1964 5.705C54.8564 6.225 54.6864 6.845 54.6864 7.565V11H52.7814V6.44C52.7814 5.95 52.7114 5.575 52.5714 5.315C52.4314 5.045 52.1564 4.91 51.7464 4.91C51.1264 4.91 50.6414 5.18 50.2914 5.72C49.9514 6.25 49.7814 6.865 49.7814 7.565V11H47.8764ZM60.9431 10.055L61.7981 8.795C62.4081 9.355 63.1331 9.635 63.9731 9.635C64.3131 9.635 64.5731 9.57 64.7531 9.44C64.9431 9.3 65.0381 9.11 65.0381 8.87C65.0381 8.65 64.9081 8.46 64.6481 8.3C64.3881 8.14 64.0731 7.995 63.7031 7.865C63.3331 7.735 62.9581 7.585 62.5781 7.415C62.2081 7.235 61.8931 6.98 61.6331 6.65C61.3731 6.32 61.2431 5.925 61.2431 5.465C61.2431 4.745 61.5181 4.185 62.0681 3.785C62.6281 3.375 63.3281 3.17 64.1681 3.17C65.2281 3.17 66.0881 3.46 66.7481 4.04L66.0431 5.375C65.8231 5.185 65.5281 5.03 65.1581 4.91C64.7981 4.78 64.4481 4.715 64.1081 4.715C63.3981 4.715 63.0431 4.96 63.0431 5.45C63.0431 5.67 63.1731 5.86 63.4331 6.02C63.6931 6.18 64.0081 6.325 64.3781 6.455C64.7581 6.585 65.1331 6.735 65.5031 6.905C65.8731 7.065 66.1881 7.31 66.4481 7.64C66.7081 7.97 66.8381 8.365 66.8381 8.825C66.8381 9.505 66.5731 10.07 66.0431 10.52C65.5131 10.96 64.8131 11.18 63.9431 11.18C62.7231 11.18 61.7231 10.805 60.9431 10.055Z" fill="#333333"/>
</svg>
