<svg width="118" height="12" viewBox="0 0 118 12" fill="none" xmlns="http://www.w3.org/2000/svg">
<path d="M0.49 9.81L1.47 8.452C1.79667 8.74133 2.17933 8.98867 2.618 9.194C3.066 9.39933 3.50467 9.502 3.934 9.502C4.382 9.502 4.73667 9.39933 4.998 9.194C5.25933 8.97933 5.39 8.704 5.39 8.368C5.39 8.02267 5.23133 7.724 4.914 7.472C4.59667 7.22 4.20933 7.00067 3.752 6.814C3.304 6.62733 2.85133 6.422 2.394 6.198C1.93667 5.974 1.54933 5.65667 1.232 5.246C0.914667 4.83533 0.756 4.34533 0.756 3.776C0.756 2.91733 1.07333 2.222 1.708 1.69C2.352 1.158 3.164 0.891999 4.144 0.891999C5.31067 0.891999 6.28133 1.24667 7.056 1.956L6.258 3.426C5.978 3.174 5.63733 2.96867 5.236 2.81C4.844 2.642 4.45667 2.558 4.074 2.558C3.61667 2.558 3.248 2.66067 2.968 2.866C2.69733 3.07133 2.562 3.34667 2.562 3.692C2.562 4.028 2.72067 4.31733 3.038 4.56C3.35533 4.80267 3.738 5.01267 4.186 5.19C4.64333 5.36733 5.10067 5.568 5.558 5.792C6.01533 6.00667 6.40267 6.31933 6.72 6.73C7.03733 7.14067 7.196 7.64 7.196 8.228C7.196 9.068 6.902 9.768 6.314 10.328C5.726 10.888 4.91867 11.168 3.892 11.168C3.25733 11.168 2.64133 11.0513 2.044 10.818C1.44667 10.5847 0.928667 10.2487 0.49 9.81ZM8.99697 11V1.06H10.803V11H8.99697ZM12.6339 6.016C12.6339 4.56933 13.1192 3.356 14.0899 2.376C15.0699 1.38667 16.2926 0.891999 17.7579 0.891999C19.2512 0.891999 20.4832 1.312 21.4539 2.152L20.5579 3.496C20.2499 3.216 19.8486 2.98733 19.3539 2.81C18.8592 2.63267 18.3786 2.544 17.9119 2.544C16.8386 2.544 15.9986 2.87067 15.3919 3.524C14.7946 4.17733 14.4959 4.98933 14.4959 5.96C14.4959 7.01467 14.8132 7.87333 15.4479 8.536C16.0826 9.18933 16.8759 9.516 17.8279 9.516C18.7706 9.516 19.6012 9.17067 20.3199 8.48V7.318H18.7939V5.764H21.9439V11H20.4039V10.524L20.4179 10.104H20.3899C20.0632 10.4213 19.6386 10.678 19.1159 10.874C18.6026 11.07 18.0659 11.168 17.5059 11.168C16.1526 11.168 14.9999 10.692 14.0479 9.74C13.1052 8.77867 12.6339 7.53733 12.6339 6.016ZM23.9267 11V1.06H25.7327L29.4987 6.8C29.6107 6.97733 29.732 7.19667 29.8627 7.458C30.0027 7.71 30.1147 7.92 30.1987 8.088L30.3247 8.34H30.3527C30.2873 7.70533 30.2547 7.192 30.2547 6.8V1.06H32.0467V11H30.2547L26.4887 5.274C26.3767 5.09667 26.2507 4.882 26.1107 4.63C25.98 4.36867 25.8727 4.154 25.7887 3.986L25.6627 3.734H25.6347C25.7 4.36867 25.7327 4.882 25.7327 5.274V11H23.9267ZM37.9677 11V1.06H39.7737V11H37.9677ZM42.1786 11V1.06H43.9846L47.7506 6.8C47.8626 6.97733 47.9839 7.19667 48.1146 7.458C48.2546 7.71 48.3666 7.92 48.4506 8.088L48.5766 8.34H48.6046C48.5393 7.70533 48.5066 7.192 48.5066 6.8V1.06H50.2986V11H48.5066L44.7406 5.274C44.6286 5.09667 44.5026 4.882 44.3626 4.63C44.2319 4.36867 44.1246 4.154 44.0406 3.986L43.9146 3.734H43.8866C43.9519 4.36867 43.9846 4.882 43.9846 5.274V11H42.1786ZM56.2196 11V1.06H61.9316V2.614H58.0256V5.428H61.3156V6.982H58.0256V11H56.2196ZM62.864 5.96C62.864 4.52267 63.3447 3.31867 64.306 2.348C65.2767 1.37733 66.5087 0.891999 68.002 0.891999C69.4954 0.891999 70.7227 1.37733 71.684 2.348C72.6547 3.31867 73.14 4.52267 73.14 5.96C73.14 7.43467 72.6547 8.67133 71.684 9.67C70.7227 10.6687 69.4954 11.168 68.002 11.168C66.5087 11.168 65.2767 10.6687 64.306 9.67C63.3447 8.67133 62.864 7.43467 62.864 5.96ZM64.726 5.96C64.726 6.97733 65.034 7.82667 65.65 8.508C66.2754 9.18 67.0594 9.516 68.002 9.516C68.9447 9.516 69.724 9.18 70.34 8.508C70.9654 7.82667 71.278 6.97733 71.278 5.96C71.278 4.98933 70.9654 4.17733 70.34 3.524C69.724 2.87067 68.9447 2.544 68.002 2.544C67.0594 2.544 66.2754 2.87067 65.65 3.524C65.034 4.17733 64.726 4.98933 64.726 5.96ZM74.9638 11V1.06H78.2398C79.0798 1.06 79.7051 1.14867 80.1158 1.326C80.6384 1.54067 81.0491 1.88133 81.3478 2.348C81.6464 2.81467 81.7958 3.37933 81.7958 4.042C81.7958 4.64867 81.6464 5.204 81.3478 5.708C81.0491 6.20267 80.6431 6.55267 80.1298 6.758V6.786C80.2138 6.88867 80.3211 7.06133 80.4518 7.304L82.4958 11H80.4658L78.5058 7.29H76.7698V11H74.9638ZM76.7698 5.722H78.3938C78.8791 5.722 79.2618 5.582 79.5418 5.302C79.8218 5.01267 79.9618 4.62533 79.9618 4.14C79.9618 3.44933 79.7004 2.99667 79.1778 2.782C78.9258 2.67 78.5618 2.614 78.0858 2.614H76.7698V5.722ZM87.4188 11V1.06H93.1308V2.614H89.2248V5.428H92.5148V6.982H89.2248V11H87.4188ZM94.747 11V1.06H98.023C98.863 1.06 99.4883 1.14867 99.899 1.326C100.422 1.54067 100.832 1.88133 101.131 2.348C101.43 2.81467 101.579 3.37933 101.579 4.042C101.579 4.64867 101.43 5.204 101.131 5.708C100.832 6.20267 100.426 6.55267 99.913 6.758V6.786C99.997 6.88867 100.104 7.06133 100.235 7.304L102.279 11H100.249L98.289 7.29H96.553V11H94.747ZM96.553 5.722H98.177C98.6623 5.722 99.045 5.582 99.325 5.302C99.605 5.01267 99.745 4.62533 99.745 4.14C99.745 3.44933 99.4836 2.99667 98.961 2.782C98.709 2.67 98.345 2.614 97.869 2.614H96.553V5.722ZM103.702 11V1.06H109.652V2.614H105.508V5.218H108.854V6.772H105.508V9.446H109.876V11H103.702ZM111.659 11V1.06H117.609V2.614H113.465V5.218H116.811V6.772H113.465V9.446H117.833V11H111.659Z" fill="white"/>
</svg>
