<svg width="553" height="119" viewBox="0 0 553 119" fill="none" xmlns="http://www.w3.org/2000/svg">
<path d="M15.808 46V7.664H0.896V0.559998H38.912V7.664H24V46H15.808ZM39.1645 46V13.36H46.9725V19.12L46.8445 21.36H46.9725C47.7405 18.9707 49.0632 16.9653 50.9405 15.344C52.8178 13.7227 54.9512 12.912 57.3405 12.912C57.6818 12.912 58.1938 12.9547 58.8765 13.04V21.04C58.4498 20.9547 57.7885 20.912 56.8925 20.912C53.7352 20.912 51.3458 22.064 49.7245 24.368C48.1032 26.672 47.2925 29.488 47.2925 32.816V46H39.1645ZM61.6685 36.976C61.6685 34.672 62.2872 32.7093 63.5245 31.088C64.8045 29.4667 66.4685 28.2933 68.5165 27.568C70.6072 26.8 72.6125 26.2667 74.5325 25.968C76.4952 25.6693 78.5432 25.52 80.6765 25.52H82.0845V25.072C82.0845 21.232 80.0365 19.312 75.9405 19.312C72.9538 19.312 69.9245 20.3573 66.8525 22.448L63.8445 16.624C65.2525 15.5147 67.1512 14.576 69.5405 13.808C71.9298 12.9973 74.2978 12.592 76.6445 12.592C80.9112 12.592 84.2392 13.744 86.6285 16.048C89.0178 18.3093 90.2125 21.488 90.2125 25.584V46H82.6605V43.248L82.8525 40.88H82.7245C81.7005 42.6293 80.2712 44.0587 78.4365 45.168C76.6018 46.2347 74.5965 46.768 72.4205 46.768C69.3912 46.768 66.8312 45.872 64.7405 44.08C62.6925 42.2453 61.6685 39.8773 61.6685 36.976ZM69.7325 36.272C69.7325 37.424 70.1592 38.4267 71.0125 39.28C71.9085 40.1333 73.1245 40.56 74.6605 40.56C76.8365 40.56 78.6285 39.664 80.0365 37.872C81.4445 36.08 82.1485 34.1173 82.1485 31.984V31.088H80.7405C73.4018 31.088 69.7325 32.816 69.7325 36.272ZM96.6835 29.68C96.6835 24.56 98.0488 20.4427 100.78 17.328C103.553 14.1707 107.116 12.592 111.468 12.592C115.777 12.592 118.956 14.0213 121.004 16.88H121.132C121.046 16.3253 121.004 15.6853 121.004 14.96V0.559998H129.068V46H121.452V43.184L121.58 41.136H121.452C120.47 42.8427 119.062 44.208 117.228 45.232C115.436 46.256 113.409 46.768 111.148 46.768C106.796 46.768 103.297 45.1893 100.652 42.032C98.0062 38.8747 96.6835 34.7573 96.6835 29.68ZM104.876 29.68C104.876 32.752 105.622 35.2267 107.116 37.104C108.609 38.9813 110.572 39.92 113.003 39.92C115.308 39.92 117.249 39.0667 118.828 37.36C120.406 35.6107 121.196 33.0293 121.196 29.616C121.196 26.8853 120.492 24.5387 119.084 22.576C117.676 20.5707 115.67 19.568 113.068 19.568C110.764 19.568 108.822 20.4853 107.244 22.32C105.665 24.112 104.876 26.5653 104.876 29.68ZM135.868 29.68C135.868 24.6453 137.404 20.5493 140.476 17.392C143.591 14.192 147.601 12.592 152.508 12.592C157.031 12.592 160.572 14.064 163.132 17.008C165.692 19.9093 166.972 23.6 166.972 28.08C166.972 28.8053 166.887 29.8507 166.716 31.216H144.252C144.508 33.9467 145.553 36.08 147.388 37.616C149.223 39.1093 151.441 39.856 154.044 39.856C157.287 39.856 160.401 38.6613 163.388 36.272L166.588 42.096C164.967 43.5467 162.961 44.6987 160.572 45.552C158.225 46.3627 155.857 46.768 153.468 46.768C148.22 46.768 143.975 45.1253 140.732 41.84C137.489 38.512 135.868 34.4587 135.868 29.68ZM144.444 25.648H158.844C158.801 23.5147 158.161 21.8293 156.924 20.592C155.729 19.3547 154.193 18.736 152.316 18.736C150.268 18.736 148.54 19.376 147.132 20.656C145.724 21.8933 144.828 23.5573 144.444 25.648ZM187.743 29.68C187.743 24.6453 189.279 20.5493 192.351 17.392C195.466 14.192 199.476 12.592 204.383 12.592C208.906 12.592 212.447 14.064 215.007 17.008C217.567 19.9093 218.847 23.6 218.847 28.08C218.847 28.8053 218.762 29.8507 218.591 31.216H196.127C196.383 33.9467 197.428 36.08 199.263 37.616C201.098 39.1093 203.316 39.856 205.919 39.856C209.162 39.856 212.276 38.6613 215.263 36.272L218.463 42.096C216.842 43.5467 214.836 44.6987 212.447 45.552C210.1 46.3627 207.732 46.768 205.343 46.768C200.095 46.768 195.85 45.1253 192.607 41.84C189.364 38.512 187.743 34.4587 187.743 29.68ZM196.319 25.648H210.719C210.676 23.5147 210.036 21.8293 208.799 20.592C207.604 19.3547 206.068 18.736 204.191 18.736C202.143 18.736 200.415 19.376 199.007 20.656C197.599 21.8933 196.703 23.5573 196.319 25.648ZM233.297 46L221.457 13.36H230.033L236.817 33.584L237.969 38.512H238.097C238.481 36.5067 238.865 34.864 239.249 33.584L246.033 13.36H254.609L242.897 46H233.297ZM257.056 29.68C257.056 24.6453 258.592 20.5493 261.664 17.392C264.778 14.192 268.789 12.592 273.696 12.592C278.218 12.592 281.76 14.064 284.32 17.008C286.88 19.9093 288.16 23.6 288.16 28.08C288.16 28.8053 288.074 29.8507 287.904 31.216H265.44C265.696 33.9467 266.741 36.08 268.576 37.616C270.41 39.1093 272.629 39.856 275.232 39.856C278.474 39.856 281.589 38.6613 284.576 36.272L287.776 42.096C286.154 43.5467 284.149 44.6987 281.76 45.552C279.413 46.3627 277.045 46.768 274.656 46.768C269.408 46.768 265.162 45.1253 261.92 41.84C258.677 38.512 257.056 34.4587 257.056 29.68ZM265.632 25.648H280.032C279.989 23.5147 279.349 21.8293 278.112 20.592C276.917 19.3547 275.381 18.736 273.503 18.736C271.456 18.736 269.728 19.376 268.32 20.656C266.912 21.8933 266.016 23.5573 265.632 25.648ZM294.915 46V13.36H302.723V19.12L302.595 21.36H302.723C303.491 18.9707 304.813 16.9653 306.691 15.344C308.568 13.7227 310.701 12.912 313.091 12.912C313.432 12.912 313.944 12.9547 314.627 13.04V21.04C314.2 20.9547 313.539 20.912 312.643 20.912C309.485 20.912 307.096 22.064 305.475 24.368C303.853 26.672 303.043 29.488 303.043 32.816V46H294.915ZM319.458 51.248C320.652 52.144 321.847 52.592 323.042 52.592C325.644 52.592 327.543 51.184 328.738 48.368L329.954 45.488L316.194 13.36H325.345L332.194 32.176L333.41 36.592H333.538C333.922 34.8853 334.284 33.456 334.626 32.304L341.026 13.36H349.858L335.33 50.928C334.263 53.7867 332.663 55.92 330.53 57.328C328.439 58.736 326.114 59.44 323.554 59.44C322.402 59.44 321.25 59.2693 320.098 58.928C318.988 58.5867 318.156 58.2453 317.602 57.904L316.77 57.328L319.458 51.248ZM361.949 46L352.029 13.36H360.605L366.301 34.8L366.941 38.256H367.069C367.282 37.104 367.538 35.952 367.837 34.8L373.853 13.424H381.085L387.101 34.8L387.805 38.256H387.933C388.061 37.104 388.295 35.952 388.637 34.8L394.333 13.36H402.781L392.861 46H383.837L378.333 27.376L377.501 23.856H377.373C377.159 25.0507 376.903 26.224 376.605 27.376L371.037 46H361.949ZM408.352 46V0.559998H416.48V16.432L416.288 19.184H416.416C417.312 17.4347 418.763 15.8987 420.768 14.576C422.816 13.2533 425.141 12.592 427.744 12.592C435.339 12.592 439.136 16.7307 439.136 25.008V46H431.008V26.672C431.008 24.496 430.624 22.8533 429.856 21.744C429.131 20.592 427.808 20.016 425.888 20.016C423.072 20.016 420.789 21.04 419.04 23.088C417.333 25.0933 416.48 27.6747 416.48 30.832V46H408.352ZM445.556 29.68C445.556 24.6453 447.092 20.5493 450.164 17.392C453.278 14.192 457.289 12.592 462.196 12.592C466.718 12.592 470.26 14.064 472.82 17.008C475.38 19.9093 476.66 23.6 476.66 28.08C476.66 28.8053 476.574 29.8507 476.404 31.216H453.94C454.196 33.9467 455.241 36.08 457.076 37.616C458.91 39.1093 461.129 39.856 463.732 39.856C466.974 39.856 470.089 38.6613 473.076 36.272L476.276 42.096C474.654 43.5467 472.649 44.6987 470.26 45.552C467.913 46.3627 465.545 46.768 463.156 46.768C457.908 46.768 453.662 45.1253 450.42 41.84C447.177 38.512 445.556 34.4587 445.556 29.68ZM454.132 25.648H468.532C468.489 23.5147 467.849 21.8293 466.612 20.592C465.417 19.3547 463.881 18.736 462.003 18.736C459.956 18.736 458.228 19.376 456.82 20.656C455.412 21.8933 454.516 23.5573 454.132 25.648ZM483.415 46V13.36H491.223V19.12L491.095 21.36H491.223C491.991 18.9707 493.313 16.9653 495.191 15.344C497.068 13.7227 499.201 12.912 501.591 12.912C501.932 12.912 502.444 12.9547 503.127 13.04V21.04C502.7 20.9547 502.039 20.912 501.143 20.912C497.985 20.912 495.596 22.064 493.975 24.368C492.353 26.672 491.543 29.488 491.543 32.816V46H483.415ZM506.243 29.68C506.243 24.6453 507.779 20.5493 510.851 17.392C513.966 14.192 517.976 12.592 522.883 12.592C527.406 12.592 530.947 14.064 533.507 17.008C536.067 19.9093 537.347 23.6 537.347 28.08C537.347 28.8053 537.262 29.8507 537.091 31.216H514.627C514.883 33.9467 515.928 36.08 517.763 37.616C519.598 39.1093 521.816 39.856 524.419 39.856C527.662 39.856 530.776 38.6613 533.763 36.272L536.963 42.096C535.342 43.5467 533.336 44.6987 530.947 45.552C528.6 46.3627 526.232 46.768 523.843 46.768C518.595 46.768 514.35 45.1253 511.107 41.84C507.864 38.512 506.243 34.4587 506.243 29.68ZM514.819 25.648H529.219C529.176 23.5147 528.536 21.8293 527.299 20.592C526.104 19.3547 524.568 18.736 522.691 18.736C520.643 18.736 518.915 19.376 517.507 20.656C516.099 21.8933 515.203 23.5573 514.819 25.648ZM543.974 46V37.808H552.102V46H543.974ZM5.504 118V72.56H13.76V118H5.504ZM23.227 118V85.36H31.035V89.2L30.907 91.504H31.035C31.8883 89.7547 33.2963 88.176 35.259 86.768C37.2217 85.3173 39.675 84.592 42.619 84.592C50.2137 84.592 54.011 88.7307 54.011 97.008V118H45.883V98.672C45.883 96.496 45.499 94.8533 44.731 93.744C44.0057 92.592 42.683 92.016 40.763 92.016C37.947 92.016 35.6643 93.04 33.915 95.088C32.2083 97.136 31.355 99.6747 31.355 102.704V118H23.227ZM70.3595 118L58.5195 85.36H67.0955L73.8795 105.584L75.0315 110.512H75.1595C75.5435 108.507 75.9275 106.864 76.3115 105.584L83.0955 85.36H91.6715L79.9595 118H70.3595ZM94.118 101.68C94.118 96.6453 95.654 92.5493 98.726 89.392C101.841 86.192 105.851 84.592 110.758 84.592C115.281 84.592 118.822 86.064 121.382 89.008C123.942 91.9093 125.222 95.6 125.222 100.08C125.222 100.805 125.137 101.851 124.966 103.216H102.502C102.758 105.947 103.803 108.08 105.638 109.616C107.473 111.109 109.691 111.856 112.294 111.856C115.537 111.856 118.651 110.661 121.638 108.272L124.838 114.096C123.217 115.547 121.211 116.699 118.822 117.552C116.475 118.363 114.107 118.768 111.718 118.768C106.47 118.768 102.225 117.125 98.982 113.84C95.7393 110.512 94.118 106.459 94.118 101.68ZM102.694 97.648H117.094C117.051 95.5147 116.411 93.8293 115.174 92.592C113.979 91.3547 112.443 90.736 110.566 90.736C108.518 90.736 106.79 91.376 105.382 92.656C103.974 93.8933 103.078 95.5573 102.694 97.648ZM129.353 113.968L133.001 108.592C135.604 110.981 138.697 112.176 142.281 112.176C143.732 112.176 144.841 111.899 145.609 111.344C146.42 110.747 146.825 109.936 146.825 108.912C146.825 107.973 146.27 107.163 145.161 106.48C144.052 105.797 142.708 105.179 141.129 104.624C139.55 104.069 137.95 103.429 136.329 102.704C134.75 101.936 133.406 100.848 132.297 99.44C131.188 98.032 130.633 96.3467 130.633 94.384C130.633 91.312 131.806 88.9227 134.153 87.216C136.542 85.4667 139.529 84.592 143.113 84.592C147.636 84.592 151.305 85.8293 154.121 88.304L151.113 94C150.174 93.1893 148.916 92.528 147.337 92.016C145.801 91.4613 144.308 91.184 142.857 91.184C139.828 91.184 138.313 92.2293 138.313 94.32C138.313 95.2587 138.868 96.0693 139.977 96.752C141.086 97.4347 142.43 98.0533 144.009 98.608C145.63 99.1627 147.23 99.8027 148.809 100.528C150.388 101.211 151.732 102.256 152.841 103.664C153.95 105.072 154.505 106.757 154.505 108.72C154.505 111.621 153.374 114.032 151.113 115.952C148.852 117.829 145.865 118.768 142.153 118.768C136.948 118.768 132.681 117.168 129.353 113.968ZM162.827 106.032V92.272H158.603V85.808H163.019V76.464H170.955V85.808H178.379V92.272H170.955V105.008C170.955 107.355 171.616 108.976 172.939 109.872C174.304 110.725 175.798 111.152 177.419 111.152C177.974 111.152 178.464 111.109 178.891 111.024V118.128C177.611 118.256 176.779 118.32 176.395 118.32C175.286 118.32 174.219 118.235 173.195 118.064C172.171 117.936 170.998 117.616 169.675 117.104C168.352 116.592 167.2 115.931 166.219 115.12C165.28 114.267 164.47 113.072 163.787 111.536C163.147 109.957 162.827 108.123 162.827 106.032ZM201.102 118V72.56H209.23V88.432L209.038 91.184H209.166C210.062 89.4347 211.513 87.8987 213.518 86.576C215.566 85.2533 217.891 84.592 220.494 84.592C228.089 84.592 231.886 88.7307 231.886 97.008V118H223.758V98.672C223.758 96.496 223.374 94.8533 222.606 93.744C221.881 92.592 220.558 92.016 218.638 92.016C215.822 92.016 213.539 93.04 211.79 95.088C210.083 97.0933 209.23 99.6747 209.23 102.832V118H201.102ZM238.306 101.68C238.306 96.6453 239.842 92.5493 242.914 89.392C246.028 86.192 250.039 84.592 254.946 84.592C259.468 84.592 263.01 86.064 265.57 89.008C268.13 91.9093 269.41 95.6 269.41 100.08C269.41 100.805 269.324 101.851 269.154 103.216H246.69C246.946 105.947 247.991 108.08 249.826 109.616C251.66 111.109 253.879 111.856 256.482 111.856C259.724 111.856 262.839 110.661 265.826 108.272L269.026 114.096C267.404 115.547 265.399 116.699 263.01 117.552C260.663 118.363 258.295 118.768 255.906 118.768C250.658 118.768 246.412 117.125 243.17 113.84C239.927 110.512 238.306 106.459 238.306 101.68ZM246.882 97.648H261.282C261.239 95.5147 260.599 93.8293 259.362 92.592C258.167 91.3547 256.631 90.736 254.753 90.736C252.706 90.736 250.978 91.376 249.57 92.656C248.162 93.8933 247.266 95.5573 246.882 97.648ZM276.165 118V85.36H283.973V91.12L283.845 93.36H283.973C284.741 90.9707 286.063 88.9653 287.941 87.344C289.818 85.7227 291.951 84.912 294.341 84.912C294.682 84.912 295.194 84.9547 295.877 85.04V93.04C295.45 92.9547 294.789 92.912 293.893 92.912C290.735 92.912 288.346 94.064 286.725 96.368C285.103 98.672 284.293 101.488 284.293 104.816V118H276.165ZM298.993 101.68C298.993 96.6453 300.529 92.5493 303.601 89.392C306.716 86.192 310.726 84.592 315.633 84.592C320.156 84.592 323.697 86.064 326.257 89.008C328.817 91.9093 330.097 95.6 330.097 100.08C330.097 100.805 330.012 101.851 329.841 103.216H307.377C307.633 105.947 308.678 108.08 310.513 109.616C312.348 111.109 314.566 111.856 317.169 111.856C320.412 111.856 323.526 110.661 326.513 108.272L329.713 114.096C328.092 115.547 326.086 116.699 323.697 117.552C321.35 118.363 318.982 118.768 316.593 118.768C311.345 118.768 307.1 117.125 303.857 113.84C300.614 110.512 298.993 106.459 298.993 101.68ZM307.569 97.648H321.969C321.926 95.5147 321.286 93.8293 320.049 92.592C318.854 91.3547 317.318 90.736 315.441 90.736C313.393 90.736 311.665 91.376 310.257 92.656C308.849 93.8933 307.953 95.5573 307.569 97.648ZM338.132 104.88L337.492 72.56H345.876L345.236 104.88H338.132ZM337.748 118V110.384H345.62V118H337.748Z" fill="#333333"/>
</svg>
